<svg xmlns="http://www.w3.org/2000/svg" xmlns:xlink="http://www.w3.org/1999/xlink" width="3000" zoomAndPan="magnify" viewBox="0 0 2250 374.999991" height="500" preserveAspectRatio="xMidYMid meet" version="1.0"><defs><g/><clipPath id="6e20840b01"><rect x="0" width="2211" y="0" height="276"/></clipPath><clipPath id="f47beeab8e"><path d="M 234 283.441406 L 2059 283.441406 L 2059 332.191406 L 234 332.191406 Z M 234 283.441406 " clip-rule="nonzero"/></clipPath></defs><g transform="matrix(1, 0, 0, 1, 13, 14)"><g clip-path="url(#6e20840b01)"><g fill="#029ef8" fill-opacity="1"><g transform="translate(13.33852, 230.419523)"><g><path d="M 158.1875 0 L 157.734375 -83.59375 L 117.171875 -15.546875 L 97.34375 -15.546875 L 57.015625 -81.34375 L 57.015625 0 L 15.765625 0 L 15.765625 -157.734375 L 52.5 -157.734375 L 107.9375 -66.703125 L 162.015625 -157.734375 L 198.734375 -157.734375 L 199.1875 0 Z M 158.1875 0 "/></g></g></g><g fill="#029ef8" fill-opacity="1"><g transform="translate(219.294426, 230.419523)"><g><path d="M 138.578125 -60.84375 C 138.578125 -60.539062 138.351562 -57.007812 137.90625 -50.25 L 49.125 -50.25 C 50.925781 -43.9375 54.414062 -39.085938 59.59375 -35.703125 C 64.78125 -32.328125 71.28125 -30.640625 79.09375 -30.640625 C 84.945312 -30.640625 90.015625 -31.46875 94.296875 -33.125 C 98.578125 -34.78125 102.894531 -37.484375 107.25 -41.234375 L 129.78125 -17.796875 C 117.914062 -4.578125 100.566406 2.03125 77.734375 2.03125 C 63.460938 2.03125 50.921875 -0.671875 40.109375 -6.078125 C 29.296875 -11.492188 20.921875 -19.003906 14.984375 -28.609375 C 9.046875 -38.222656 6.078125 -49.117188 6.078125 -61.296875 C 6.078125 -73.304688 8.96875 -84.082031 14.75 -93.625 C 20.539062 -103.164062 28.539062 -110.640625 38.75 -116.046875 C 48.96875 -121.453125 60.460938 -124.15625 73.234375 -124.15625 C 85.398438 -124.15625 96.441406 -121.640625 106.359375 -116.609375 C 116.273438 -111.578125 124.125 -104.289062 129.90625 -94.75 C 135.6875 -85.207031 138.578125 -73.90625 138.578125 -60.84375 Z M 73.453125 -93.734375 C 66.847656 -93.734375 61.328125 -91.851562 56.890625 -88.09375 C 52.460938 -84.34375 49.648438 -79.238281 48.453125 -72.78125 L 98.46875 -72.78125 C 97.269531 -79.238281 94.453125 -84.34375 90.015625 -88.09375 C 85.585938 -91.851562 80.066406 -93.734375 73.453125 -93.734375 Z M 73.453125 -93.734375 "/></g></g></g><g fill="#029ef8" fill-opacity="1"><g transform="translate(354.945872, 230.419523)"><g><path d="M 143.53125 -167.1875 L 143.53125 0 L 102.75 0 L 102.75 -12.171875 C 94.789062 -2.703125 82.847656 2.03125 66.921875 2.03125 C 55.804688 2.03125 45.664062 -0.554688 36.5 -5.734375 C 27.34375 -10.921875 20.097656 -18.320312 14.765625 -27.9375 C 9.429688 -37.550781 6.765625 -48.671875 6.765625 -61.296875 C 6.765625 -73.910156 9.429688 -84.984375 14.765625 -94.515625 C 20.097656 -104.054688 27.34375 -111.378906 36.5 -116.484375 C 45.664062 -121.597656 55.804688 -124.15625 66.921875 -124.15625 C 81.492188 -124.15625 92.757812 -119.945312 100.71875 -111.53125 L 100.71875 -167.1875 Z M 75.9375 -32 C 83.300781 -32 89.382812 -34.585938 94.1875 -39.765625 C 98.988281 -44.953125 101.390625 -52.128906 101.390625 -61.296875 C 101.390625 -70.304688 99.023438 -77.363281 94.296875 -82.46875 C 89.566406 -87.570312 83.445312 -90.125 75.9375 -90.125 C 68.425781 -90.125 62.265625 -87.570312 57.453125 -82.46875 C 52.648438 -77.363281 50.25 -70.304688 50.25 -61.296875 C 50.25 -52.128906 52.648438 -44.953125 57.453125 -39.765625 C 62.265625 -34.585938 68.425781 -32 75.9375 -32 Z M 75.9375 -32 "/></g></g></g><g fill="#029ef8" fill-opacity="1"><g transform="translate(503.216019, 230.419523)"><g><path d="M 13.75 -122.125 L 56.5625 -122.125 L 56.5625 0 L 13.75 0 Z M 35.15625 -135.640625 C 27.34375 -135.640625 21.03125 -137.816406 16.21875 -142.171875 C 11.414062 -146.535156 9.015625 -151.945312 9.015625 -158.40625 C 9.015625 -164.863281 11.414062 -170.269531 16.21875 -174.625 C 21.03125 -178.976562 27.34375 -181.15625 35.15625 -181.15625 C 42.96875 -181.15625 49.273438 -179.085938 54.078125 -174.953125 C 58.890625 -170.828125 61.296875 -165.535156 61.296875 -159.078125 C 61.296875 -152.316406 58.890625 -146.71875 54.078125 -142.28125 C 49.273438 -137.851562 42.96875 -135.640625 35.15625 -135.640625 Z M 35.15625 -135.640625 "/></g></g></g><g fill="#029ef8" fill-opacity="1"><g transform="translate(564.732274, 230.419523)"><g><path d="M 76.15625 2.03125 C 62.632812 2.03125 50.539062 -0.671875 39.875 -6.078125 C 29.21875 -11.492188 20.921875 -19.003906 14.984375 -28.609375 C 9.046875 -38.222656 6.078125 -49.117188 6.078125 -61.296875 C 6.078125 -73.460938 9.046875 -84.3125 14.984375 -93.84375 C 20.921875 -103.382812 29.21875 -110.820312 39.875 -116.15625 C 50.539062 -121.488281 62.632812 -124.15625 76.15625 -124.15625 C 89.976562 -124.15625 101.921875 -121.1875 111.984375 -115.25 C 122.046875 -109.320312 129.179688 -101.097656 133.390625 -90.578125 L 100.265625 -73.6875 C 94.710938 -84.644531 86.601562 -90.125 75.9375 -90.125 C 68.269531 -90.125 61.921875 -87.570312 56.890625 -82.46875 C 51.859375 -77.363281 49.34375 -70.304688 49.34375 -61.296875 C 49.34375 -52.128906 51.859375 -44.953125 56.890625 -39.765625 C 61.921875 -34.585938 68.269531 -32 75.9375 -32 C 86.601562 -32 94.710938 -37.484375 100.265625 -48.453125 L 133.390625 -31.546875 C 129.179688 -21.023438 122.046875 -12.796875 111.984375 -6.859375 C 101.921875 -0.929688 89.976562 2.03125 76.15625 2.03125 Z M 76.15625 2.03125 "/></g></g></g><g fill="#029ef8" fill-opacity="1"><g transform="translate(691.595666, 230.419523)"><g><path d="M 13.75 -122.125 L 56.5625 -122.125 L 56.5625 0 L 13.75 0 Z M 35.15625 -135.640625 C 27.34375 -135.640625 21.03125 -137.816406 16.21875 -142.171875 C 11.414062 -146.535156 9.015625 -151.945312 9.015625 -158.40625 C 9.015625 -164.863281 11.414062 -170.269531 16.21875 -174.625 C 21.03125 -178.976562 27.34375 -181.15625 35.15625 -181.15625 C 42.96875 -181.15625 49.273438 -179.085938 54.078125 -174.953125 C 58.890625 -170.828125 61.296875 -165.535156 61.296875 -159.078125 C 61.296875 -152.316406 58.890625 -146.71875 54.078125 -142.28125 C 49.273438 -137.851562 42.96875 -135.640625 35.15625 -135.640625 Z M 35.15625 -135.640625 "/></g></g></g><g fill="#029ef8" fill-opacity="1"><g transform="translate(753.11197, 230.419523)"><g><path d="M 93.28125 -124.15625 C 108.457031 -124.15625 120.664062 -119.644531 129.90625 -110.625 C 139.144531 -101.613281 143.765625 -88.023438 143.765625 -69.859375 L 143.765625 0 L 100.953125 0 L 100.953125 -62.859375 C 100.953125 -79.535156 94.265625 -87.875 80.890625 -87.875 C 73.535156 -87.875 67.640625 -85.46875 63.203125 -80.65625 C 58.773438 -75.851562 56.5625 -68.644531 56.5625 -59.03125 L 56.5625 0 L 13.75 0 L 13.75 -122.125 L 54.53125 -122.125 L 54.53125 -108.828125 C 59.332031 -113.785156 65.035156 -117.578125 71.640625 -120.203125 C 78.253906 -122.835938 85.46875 -124.15625 93.28125 -124.15625 Z M 93.28125 -124.15625 "/></g></g></g><g fill="#029ef8" fill-opacity="1"><g transform="translate(900.93143, 230.419523)"><g><path d="M 65.796875 -124.15625 C 86.078125 -124.15625 101.550781 -119.535156 112.21875 -110.296875 C 122.882812 -101.054688 128.21875 -86.898438 128.21875 -67.828125 L 128.21875 0 L 88.328125 0 L 88.328125 -15.765625 C 82.171875 -3.898438 70.15625 2.03125 52.28125 2.03125 C 42.8125 2.03125 34.617188 0.378906 27.703125 -2.921875 C 20.796875 -6.234375 15.578125 -10.703125 12.046875 -16.328125 C 8.523438 -21.960938 6.765625 -28.390625 6.765625 -35.609375 C 6.765625 -47.171875 11.191406 -56.144531 20.046875 -62.53125 C 28.910156 -68.914062 42.582031 -72.109375 61.0625 -72.109375 L 85.40625 -72.109375 C 84.644531 -85.023438 76.003906 -91.484375 59.484375 -91.484375 C 53.628906 -91.484375 47.695312 -90.539062 41.6875 -88.65625 C 35.675781 -86.78125 30.566406 -84.191406 26.359375 -80.890625 L 11.9375 -109.953125 C 18.695312 -114.460938 26.921875 -117.957031 36.609375 -120.4375 C 46.304688 -122.914062 56.035156 -124.15625 65.796875 -124.15625 Z M 64.21875 -25.015625 C 69.175781 -25.015625 73.53125 -26.210938 77.28125 -28.609375 C 81.039062 -31.015625 83.75 -34.546875 85.40625 -39.203125 L 85.40625 -49.796875 L 66.921875 -49.796875 C 54.453125 -49.796875 48.21875 -45.664062 48.21875 -37.40625 C 48.21875 -33.644531 49.644531 -30.640625 52.5 -28.390625 C 55.351562 -26.140625 59.257812 -25.015625 64.21875 -25.015625 Z M 64.21875 -25.015625 "/></g></g></g><g fill="#029ef8" fill-opacity="1"><g transform="translate(1033.428242, 230.419523)"><g/></g></g><g fill="#029ef8" fill-opacity="1"><g transform="translate(1089.987077, 230.419523)"><g><path d="M 49.34375 -122.359375 L 0.90625 -122.359375 L 0.90625 -157.734375 L 142.1875 -157.734375 L 142.1875 -122.359375 L 93.96875 -122.359375 L 93.96875 0 L 49.34375 0 Z M 49.34375 -122.359375 "/></g></g></g><g fill="#029ef8" fill-opacity="1"><g transform="translate(1224.061208, 230.419523)"><g><path d="M 54.53125 -107.484375 C 58.882812 -113.035156 64.550781 -117.203125 71.53125 -119.984375 C 78.519531 -122.765625 86.523438 -124.15625 95.546875 -124.15625 L 95.546875 -85.625 C 91.640625 -86.070312 88.40625 -86.296875 85.84375 -86.296875 C 76.6875 -86.296875 69.515625 -83.816406 64.328125 -78.859375 C 59.148438 -73.898438 56.5625 -66.316406 56.5625 -56.109375 L 56.5625 0 L 13.75 0 L 13.75 -122.125 L 54.53125 -122.125 Z M 54.53125 -107.484375 "/></g></g></g><g fill="#029ef8" fill-opacity="1"><g transform="translate(1314.871004, 230.419523)"><g><path d="M 65.796875 -124.15625 C 86.078125 -124.15625 101.550781 -119.535156 112.21875 -110.296875 C 122.882812 -101.054688 128.21875 -86.898438 128.21875 -67.828125 L 128.21875 0 L 88.328125 0 L 88.328125 -15.765625 C 82.171875 -3.898438 70.15625 2.03125 52.28125 2.03125 C 42.8125 2.03125 34.617188 0.378906 27.703125 -2.921875 C 20.796875 -6.234375 15.578125 -10.703125 12.046875 -16.328125 C 8.523438 -21.960938 6.765625 -28.390625 6.765625 -35.609375 C 6.765625 -47.171875 11.191406 -56.144531 20.046875 -62.53125 C 28.910156 -68.914062 42.582031 -72.109375 61.0625 -72.109375 L 85.40625 -72.109375 C 84.644531 -85.023438 76.003906 -91.484375 59.484375 -91.484375 C 53.628906 -91.484375 47.695312 -90.539062 41.6875 -88.65625 C 35.675781 -86.78125 30.566406 -84.191406 26.359375 -80.890625 L 11.9375 -109.953125 C 18.695312 -114.460938 26.921875 -117.957031 36.609375 -120.4375 C 46.304688 -122.914062 56.035156 -124.15625 65.796875 -124.15625 Z M 64.21875 -25.015625 C 69.175781 -25.015625 73.53125 -26.210938 77.28125 -28.609375 C 81.039062 -31.015625 83.75 -34.546875 85.40625 -39.203125 L 85.40625 -49.796875 L 66.921875 -49.796875 C 54.453125 -49.796875 48.21875 -45.664062 48.21875 -37.40625 C 48.21875 -33.644531 49.644531 -30.640625 52.5 -28.390625 C 55.351562 -26.140625 59.257812 -25.015625 64.21875 -25.015625 Z M 64.21875 -25.015625 "/></g></g></g><g fill="#029ef8" fill-opacity="1"><g transform="translate(1447.367718, 230.419523)"><g><path d="M 143.53125 -167.1875 L 143.53125 0 L 102.75 0 L 102.75 -12.171875 C 94.789062 -2.703125 82.847656 2.03125 66.921875 2.03125 C 55.804688 2.03125 45.664062 -0.554688 36.5 -5.734375 C 27.34375 -10.921875 20.097656 -18.320312 14.765625 -27.9375 C 9.429688 -37.550781 6.765625 -48.671875 6.765625 -61.296875 C 6.765625 -73.910156 9.429688 -84.984375 14.765625 -94.515625 C 20.097656 -104.054688 27.34375 -111.378906 36.5 -116.484375 C 45.664062 -121.597656 55.804688 -124.15625 66.921875 -124.15625 C 81.492188 -124.15625 92.757812 -119.945312 100.71875 -111.53125 L 100.71875 -167.1875 Z M 75.9375 -32 C 83.300781 -32 89.382812 -34.585938 94.1875 -39.765625 C 98.988281 -44.953125 101.390625 -52.128906 101.390625 -61.296875 C 101.390625 -70.304688 99.023438 -77.363281 94.296875 -82.46875 C 89.566406 -87.570312 83.445312 -90.125 75.9375 -90.125 C 68.425781 -90.125 62.265625 -87.570312 57.453125 -82.46875 C 52.648438 -77.363281 50.25 -70.304688 50.25 -61.296875 C 50.25 -52.128906 52.648438 -44.953125 57.453125 -39.765625 C 62.265625 -34.585938 68.425781 -32 75.9375 -32 Z M 75.9375 -32 "/></g></g></g><g fill="#029ef8" fill-opacity="1"><g transform="translate(1595.637913, 230.419523)"><g><path d="M 142.1875 -122.125 L 142.1875 0 L 101.390625 0 L 101.390625 -13.0625 C 96.890625 -8.113281 91.484375 -4.359375 85.171875 -1.796875 C 78.859375 0.753906 72.175781 2.03125 65.125 2.03125 C 49.34375 2.03125 36.757812 -2.625 27.375 -11.9375 C 17.988281 -21.25 13.296875 -35.222656 13.296875 -53.859375 L 13.296875 -122.125 L 56.109375 -122.125 L 56.109375 -60.84375 C 56.109375 -51.675781 57.832031 -44.988281 61.28125 -40.78125 C 64.738281 -36.570312 69.773438 -34.46875 76.390625 -34.46875 C 83.148438 -34.46875 88.671875 -36.832031 92.953125 -41.5625 C 97.234375 -46.300781 99.375 -53.550781 99.375 -63.3125 L 99.375 -122.125 Z M 142.1875 -122.125 "/></g></g></g><g fill="#029ef8" fill-opacity="1"><g transform="translate(1742.556104, 230.419523)"><g><path d="M 76.15625 2.03125 C 62.632812 2.03125 50.539062 -0.671875 39.875 -6.078125 C 29.21875 -11.492188 20.921875 -19.003906 14.984375 -28.609375 C 9.046875 -38.222656 6.078125 -49.117188 6.078125 -61.296875 C 6.078125 -73.460938 9.046875 -84.3125 14.984375 -93.84375 C 20.921875 -103.382812 29.21875 -110.820312 39.875 -116.15625 C 50.539062 -121.488281 62.632812 -124.15625 76.15625 -124.15625 C 89.976562 -124.15625 101.921875 -121.1875 111.984375 -115.25 C 122.046875 -109.320312 129.179688 -101.097656 133.390625 -90.578125 L 100.265625 -73.6875 C 94.710938 -84.644531 86.601562 -90.125 75.9375 -90.125 C 68.269531 -90.125 61.921875 -87.570312 56.890625 -82.46875 C 51.859375 -77.363281 49.34375 -70.304688 49.34375 -61.296875 C 49.34375 -52.128906 51.859375 -44.953125 56.890625 -39.765625 C 61.921875 -34.585938 68.269531 -32 75.9375 -32 C 86.601562 -32 94.710938 -37.484375 100.265625 -48.453125 L 133.390625 -31.546875 C 129.179688 -21.023438 122.046875 -12.796875 111.984375 -6.859375 C 101.921875 -0.929688 89.976562 2.03125 76.15625 2.03125 Z M 76.15625 2.03125 "/></g></g></g><g fill="#029ef8" fill-opacity="1"><g transform="translate(1869.419497, 230.419523)"><g><path d="M 13.75 -122.125 L 56.5625 -122.125 L 56.5625 0 L 13.75 0 Z M 35.15625 -135.640625 C 27.34375 -135.640625 21.03125 -137.816406 16.21875 -142.171875 C 11.414062 -146.535156 9.015625 -151.945312 9.015625 -158.40625 C 9.015625 -164.863281 11.414062 -170.269531 16.21875 -174.625 C 21.03125 -178.976562 27.34375 -181.15625 35.15625 -181.15625 C 42.96875 -181.15625 49.273438 -179.085938 54.078125 -174.953125 C 58.890625 -170.828125 61.296875 -165.535156 61.296875 -159.078125 C 61.296875 -152.316406 58.890625 -146.71875 54.078125 -142.28125 C 49.273438 -137.851562 42.96875 -135.640625 35.15625 -135.640625 Z M 35.15625 -135.640625 "/></g></g></g><g fill="#029ef8" fill-opacity="1"><g transform="translate(1930.935801, 230.419523)"><g><path d="M 143.53125 -167.1875 L 143.53125 0 L 102.75 0 L 102.75 -12.171875 C 94.789062 -2.703125 82.847656 2.03125 66.921875 2.03125 C 55.804688 2.03125 45.664062 -0.554688 36.5 -5.734375 C 27.34375 -10.921875 20.097656 -18.320312 14.765625 -27.9375 C 9.429688 -37.550781 6.765625 -48.671875 6.765625 -61.296875 C 6.765625 -73.910156 9.429688 -84.984375 14.765625 -94.515625 C 20.097656 -104.054688 27.34375 -111.378906 36.5 -116.484375 C 45.664062 -121.597656 55.804688 -124.15625 66.921875 -124.15625 C 81.492188 -124.15625 92.757812 -119.945312 100.71875 -111.53125 L 100.71875 -167.1875 Z M 75.9375 -32 C 83.300781 -32 89.382812 -34.585938 94.1875 -39.765625 C 98.988281 -44.953125 101.390625 -52.128906 101.390625 -61.296875 C 101.390625 -70.304688 99.023438 -77.363281 94.296875 -82.46875 C 89.566406 -87.570312 83.445312 -90.125 75.9375 -90.125 C 68.425781 -90.125 62.265625 -87.570312 57.453125 -82.46875 C 52.648438 -77.363281 50.25 -70.304688 50.25 -61.296875 C 50.25 -52.128906 52.648438 -44.953125 57.453125 -39.765625 C 62.265625 -34.585938 68.425781 -32 75.9375 -32 Z M 75.9375 -32 "/></g></g></g><g fill="#029ef8" fill-opacity="1"><g transform="translate(2079.205899, 230.419523)"><g><path d="M 65.796875 -124.15625 C 86.078125 -124.15625 101.550781 -119.535156 112.21875 -110.296875 C 122.882812 -101.054688 128.21875 -86.898438 128.21875 -67.828125 L 128.21875 0 L 88.328125 0 L 88.328125 -15.765625 C 82.171875 -3.898438 70.15625 2.03125 52.28125 2.03125 C 42.8125 2.03125 34.617188 0.378906 27.703125 -2.921875 C 20.796875 -6.234375 15.578125 -10.703125 12.046875 -16.328125 C 8.523438 -21.960938 6.765625 -28.390625 6.765625 -35.609375 C 6.765625 -47.171875 11.191406 -56.144531 20.046875 -62.53125 C 28.910156 -68.914062 42.582031 -72.109375 61.0625 -72.109375 L 85.40625 -72.109375 C 84.644531 -85.023438 76.003906 -91.484375 59.484375 -91.484375 C 53.628906 -91.484375 47.695312 -90.539062 41.6875 -88.65625 C 35.675781 -86.78125 30.566406 -84.191406 26.359375 -80.890625 L 11.9375 -109.953125 C 18.695312 -114.460938 26.921875 -117.957031 36.609375 -120.4375 C 46.304688 -122.914062 56.035156 -124.15625 65.796875 -124.15625 Z M 64.21875 -25.015625 C 69.175781 -25.015625 73.53125 -26.210938 77.28125 -28.609375 C 81.039062 -31.015625 83.75 -34.546875 85.40625 -39.203125 L 85.40625 -49.796875 L 66.921875 -49.796875 C 54.453125 -49.796875 48.21875 -45.664062 48.21875 -37.40625 C 48.21875 -33.644531 49.644531 -30.640625 52.5 -28.390625 C 55.351562 -26.140625 59.257812 -25.015625 64.21875 -25.015625 Z M 64.21875 -25.015625 "/></g></g></g><g fill="#ffffff" fill-opacity="1"><g transform="translate(1.388143, 218.469148)"><g><path d="M 158.1875 0 L 157.734375 -83.59375 L 117.171875 -15.546875 L 97.34375 -15.546875 L 57.015625 -81.34375 L 57.015625 0 L 15.765625 0 L 15.765625 -157.734375 L 52.5 -157.734375 L 107.9375 -66.703125 L 162.015625 -157.734375 L 198.734375 -157.734375 L 199.1875 0 Z M 158.1875 0 "/></g></g></g><g fill="#ffffff" fill-opacity="1"><g transform="translate(207.344049, 218.469148)"><g><path d="M 138.578125 -60.84375 C 138.578125 -60.539062 138.351562 -57.007812 137.90625 -50.25 L 49.125 -50.25 C 50.925781 -43.9375 54.414062 -39.085938 59.59375 -35.703125 C 64.78125 -32.328125 71.28125 -30.640625 79.09375 -30.640625 C 84.945312 -30.640625 90.015625 -31.46875 94.296875 -33.125 C 98.578125 -34.78125 102.894531 -37.484375 107.25 -41.234375 L 129.78125 -17.796875 C 117.914062 -4.578125 100.566406 2.03125 77.734375 2.03125 C 63.460938 2.03125 50.921875 -0.671875 40.109375 -6.078125 C 29.296875 -11.492188 20.921875 -19.003906 14.984375 -28.609375 C 9.046875 -38.222656 6.078125 -49.117188 6.078125 -61.296875 C 6.078125 -73.304688 8.96875 -84.082031 14.75 -93.625 C 20.539062 -103.164062 28.539062 -110.640625 38.75 -116.046875 C 48.96875 -121.453125 60.460938 -124.15625 73.234375 -124.15625 C 85.398438 -124.15625 96.441406 -121.640625 106.359375 -116.609375 C 116.273438 -111.578125 124.125 -104.289062 129.90625 -94.75 C 135.6875 -85.207031 138.578125 -73.90625 138.578125 -60.84375 Z M 73.453125 -93.734375 C 66.847656 -93.734375 61.328125 -91.851562 56.890625 -88.09375 C 52.460938 -84.34375 49.648438 -79.238281 48.453125 -72.78125 L 98.46875 -72.78125 C 97.269531 -79.238281 94.453125 -84.34375 90.015625 -88.09375 C 85.585938 -91.851562 80.066406 -93.734375 73.453125 -93.734375 Z M 73.453125 -93.734375 "/></g></g></g><g fill="#ffffff" fill-opacity="1"><g transform="translate(342.995496, 218.469148)"><g><path d="M 143.53125 -167.1875 L 143.53125 0 L 102.75 0 L 102.75 -12.171875 C 94.789062 -2.703125 82.847656 2.03125 66.921875 2.03125 C 55.804688 2.03125 45.664062 -0.554688 36.5 -5.734375 C 27.34375 -10.921875 20.097656 -18.320312 14.765625 -27.9375 C 9.429688 -37.550781 6.765625 -48.671875 6.765625 -61.296875 C 6.765625 -73.910156 9.429688 -84.984375 14.765625 -94.515625 C 20.097656 -104.054688 27.34375 -111.378906 36.5 -116.484375 C 45.664062 -121.597656 55.804688 -124.15625 66.921875 -124.15625 C 81.492188 -124.15625 92.757812 -119.945312 100.71875 -111.53125 L 100.71875 -167.1875 Z M 75.9375 -32 C 83.300781 -32 89.382812 -34.585938 94.1875 -39.765625 C 98.988281 -44.953125 101.390625 -52.128906 101.390625 -61.296875 C 101.390625 -70.304688 99.023438 -77.363281 94.296875 -82.46875 C 89.566406 -87.570312 83.445312 -90.125 75.9375 -90.125 C 68.425781 -90.125 62.265625 -87.570312 57.453125 -82.46875 C 52.648438 -77.363281 50.25 -70.304688 50.25 -61.296875 C 50.25 -52.128906 52.648438 -44.953125 57.453125 -39.765625 C 62.265625 -34.585938 68.425781 -32 75.9375 -32 Z M 75.9375 -32 "/></g></g></g><g fill="#ffffff" fill-opacity="1"><g transform="translate(491.265642, 218.469148)"><g><path d="M 13.75 -122.125 L 56.5625 -122.125 L 56.5625 0 L 13.75 0 Z M 35.15625 -135.640625 C 27.34375 -135.640625 21.03125 -137.816406 16.21875 -142.171875 C 11.414062 -146.535156 9.015625 -151.945312 9.015625 -158.40625 C 9.015625 -164.863281 11.414062 -170.269531 16.21875 -174.625 C 21.03125 -178.976562 27.34375 -181.15625 35.15625 -181.15625 C 42.96875 -181.15625 49.273438 -179.085938 54.078125 -174.953125 C 58.890625 -170.828125 61.296875 -165.535156 61.296875 -159.078125 C 61.296875 -152.316406 58.890625 -146.71875 54.078125 -142.28125 C 49.273438 -137.851562 42.96875 -135.640625 35.15625 -135.640625 Z M 35.15625 -135.640625 "/></g></g></g><g fill="#ffffff" fill-opacity="1"><g transform="translate(552.781897, 218.469148)"><g><path d="M 76.15625 2.03125 C 62.632812 2.03125 50.539062 -0.671875 39.875 -6.078125 C 29.21875 -11.492188 20.921875 -19.003906 14.984375 -28.609375 C 9.046875 -38.222656 6.078125 -49.117188 6.078125 -61.296875 C 6.078125 -73.460938 9.046875 -84.3125 14.984375 -93.84375 C 20.921875 -103.382812 29.21875 -110.820312 39.875 -116.15625 C 50.539062 -121.488281 62.632812 -124.15625 76.15625 -124.15625 C 89.976562 -124.15625 101.921875 -121.1875 111.984375 -115.25 C 122.046875 -109.320312 129.179688 -101.097656 133.390625 -90.578125 L 100.265625 -73.6875 C 94.710938 -84.644531 86.601562 -90.125 75.9375 -90.125 C 68.269531 -90.125 61.921875 -87.570312 56.890625 -82.46875 C 51.859375 -77.363281 49.34375 -70.304688 49.34375 -61.296875 C 49.34375 -52.128906 51.859375 -44.953125 56.890625 -39.765625 C 61.921875 -34.585938 68.269531 -32 75.9375 -32 C 86.601562 -32 94.710938 -37.484375 100.265625 -48.453125 L 133.390625 -31.546875 C 129.179688 -21.023438 122.046875 -12.796875 111.984375 -6.859375 C 101.921875 -0.929688 89.976562 2.03125 76.15625 2.03125 Z M 76.15625 2.03125 "/></g></g></g><g fill="#ffffff" fill-opacity="1"><g transform="translate(679.645289, 218.469148)"><g><path d="M 13.75 -122.125 L 56.5625 -122.125 L 56.5625 0 L 13.75 0 Z M 35.15625 -135.640625 C 27.34375 -135.640625 21.03125 -137.816406 16.21875 -142.171875 C 11.414062 -146.535156 9.015625 -151.945312 9.015625 -158.40625 C 9.015625 -164.863281 11.414062 -170.269531 16.21875 -174.625 C 21.03125 -178.976562 27.34375 -181.15625 35.15625 -181.15625 C 42.96875 -181.15625 49.273438 -179.085938 54.078125 -174.953125 C 58.890625 -170.828125 61.296875 -165.535156 61.296875 -159.078125 C 61.296875 -152.316406 58.890625 -146.71875 54.078125 -142.28125 C 49.273438 -137.851562 42.96875 -135.640625 35.15625 -135.640625 Z M 35.15625 -135.640625 "/></g></g></g><g fill="#ffffff" fill-opacity="1"><g transform="translate(741.161593, 218.469148)"><g><path d="M 93.28125 -124.15625 C 108.457031 -124.15625 120.664062 -119.644531 129.90625 -110.625 C 139.144531 -101.613281 143.765625 -88.023438 143.765625 -69.859375 L 143.765625 0 L 100.953125 0 L 100.953125 -62.859375 C 100.953125 -79.535156 94.265625 -87.875 80.890625 -87.875 C 73.535156 -87.875 67.640625 -85.46875 63.203125 -80.65625 C 58.773438 -75.851562 56.5625 -68.644531 56.5625 -59.03125 L 56.5625 0 L 13.75 0 L 13.75 -122.125 L 54.53125 -122.125 L 54.53125 -108.828125 C 59.332031 -113.785156 65.035156 -117.578125 71.640625 -120.203125 C 78.253906 -122.835938 85.46875 -124.15625 93.28125 -124.15625 Z M 93.28125 -124.15625 "/></g></g></g><g fill="#ffffff" fill-opacity="1"><g transform="translate(888.981053, 218.469148)"><g><path d="M 65.796875 -124.15625 C 86.078125 -124.15625 101.550781 -119.535156 112.21875 -110.296875 C 122.882812 -101.054688 128.21875 -86.898438 128.21875 -67.828125 L 128.21875 0 L 88.328125 0 L 88.328125 -15.765625 C 82.171875 -3.898438 70.15625 2.03125 52.28125 2.03125 C 42.8125 2.03125 34.617188 0.378906 27.703125 -2.921875 C 20.796875 -6.234375 15.578125 -10.703125 12.046875 -16.328125 C 8.523438 -21.960938 6.765625 -28.390625 6.765625 -35.609375 C 6.765625 -47.171875 11.191406 -56.144531 20.046875 -62.53125 C 28.910156 -68.914062 42.582031 -72.109375 61.0625 -72.109375 L 85.40625 -72.109375 C 84.644531 -85.023438 76.003906 -91.484375 59.484375 -91.484375 C 53.628906 -91.484375 47.695312 -90.539062 41.6875 -88.65625 C 35.675781 -86.78125 30.566406 -84.191406 26.359375 -80.890625 L 11.9375 -109.953125 C 18.695312 -114.460938 26.921875 -117.957031 36.609375 -120.4375 C 46.304688 -122.914062 56.035156 -124.15625 65.796875 -124.15625 Z M 64.21875 -25.015625 C 69.175781 -25.015625 73.53125 -26.210938 77.28125 -28.609375 C 81.039062 -31.015625 83.75 -34.546875 85.40625 -39.203125 L 85.40625 -49.796875 L 66.921875 -49.796875 C 54.453125 -49.796875 48.21875 -45.664062 48.21875 -37.40625 C 48.21875 -33.644531 49.644531 -30.640625 52.5 -28.390625 C 55.351562 -26.140625 59.257812 -25.015625 64.21875 -25.015625 Z M 64.21875 -25.015625 "/></g></g></g><g fill="#ffffff" fill-opacity="1"><g transform="translate(1021.477866, 218.469148)"><g/></g></g><g fill="#ffffff" fill-opacity="1"><g transform="translate(1078.0367, 218.469148)"><g><path d="M 49.34375 -122.359375 L 0.90625 -122.359375 L 0.90625 -157.734375 L 142.1875 -157.734375 L 142.1875 -122.359375 L 93.96875 -122.359375 L 93.96875 0 L 49.34375 0 Z M 49.34375 -122.359375 "/></g></g></g><g fill="#ffffff" fill-opacity="1"><g transform="translate(1212.110831, 218.469148)"><g><path d="M 54.53125 -107.484375 C 58.882812 -113.035156 64.550781 -117.203125 71.53125 -119.984375 C 78.519531 -122.765625 86.523438 -124.15625 95.546875 -124.15625 L 95.546875 -85.625 C 91.640625 -86.070312 88.40625 -86.296875 85.84375 -86.296875 C 76.6875 -86.296875 69.515625 -83.816406 64.328125 -78.859375 C 59.148438 -73.898438 56.5625 -66.316406 56.5625 -56.109375 L 56.5625 0 L 13.75 0 L 13.75 -122.125 L 54.53125 -122.125 Z M 54.53125 -107.484375 "/></g></g></g><g fill="#ffffff" fill-opacity="1"><g transform="translate(1302.920627, 218.469148)"><g><path d="M 65.796875 -124.15625 C 86.078125 -124.15625 101.550781 -119.535156 112.21875 -110.296875 C 122.882812 -101.054688 128.21875 -86.898438 128.21875 -67.828125 L 128.21875 0 L 88.328125 0 L 88.328125 -15.765625 C 82.171875 -3.898438 70.15625 2.03125 52.28125 2.03125 C 42.8125 2.03125 34.617188 0.378906 27.703125 -2.921875 C 20.796875 -6.234375 15.578125 -10.703125 12.046875 -16.328125 C 8.523438 -21.960938 6.765625 -28.390625 6.765625 -35.609375 C 6.765625 -47.171875 11.191406 -56.144531 20.046875 -62.53125 C 28.910156 -68.914062 42.582031 -72.109375 61.0625 -72.109375 L 85.40625 -72.109375 C 84.644531 -85.023438 76.003906 -91.484375 59.484375 -91.484375 C 53.628906 -91.484375 47.695312 -90.539062 41.6875 -88.65625 C 35.675781 -86.78125 30.566406 -84.191406 26.359375 -80.890625 L 11.9375 -109.953125 C 18.695312 -114.460938 26.921875 -117.957031 36.609375 -120.4375 C 46.304688 -122.914062 56.035156 -124.15625 65.796875 -124.15625 Z M 64.21875 -25.015625 C 69.175781 -25.015625 73.53125 -26.210938 77.28125 -28.609375 C 81.039062 -31.015625 83.75 -34.546875 85.40625 -39.203125 L 85.40625 -49.796875 L 66.921875 -49.796875 C 54.453125 -49.796875 48.21875 -45.664062 48.21875 -37.40625 C 48.21875 -33.644531 49.644531 -30.640625 52.5 -28.390625 C 55.351562 -26.140625 59.257812 -25.015625 64.21875 -25.015625 Z M 64.21875 -25.015625 "/></g></g></g><g fill="#ffffff" fill-opacity="1"><g transform="translate(1435.417341, 218.469148)"><g><path d="M 143.53125 -167.1875 L 143.53125 0 L 102.75 0 L 102.75 -12.171875 C 94.789062 -2.703125 82.847656 2.03125 66.921875 2.03125 C 55.804688 2.03125 45.664062 -0.554688 36.5 -5.734375 C 27.34375 -10.921875 20.097656 -18.320312 14.765625 -27.9375 C 9.429688 -37.550781 6.765625 -48.671875 6.765625 -61.296875 C 6.765625 -73.910156 9.429688 -84.984375 14.765625 -94.515625 C 20.097656 -104.054688 27.34375 -111.378906 36.5 -116.484375 C 45.664062 -121.597656 55.804688 -124.15625 66.921875 -124.15625 C 81.492188 -124.15625 92.757812 -119.945312 100.71875 -111.53125 L 100.71875 -167.1875 Z M 75.9375 -32 C 83.300781 -32 89.382812 -34.585938 94.1875 -39.765625 C 98.988281 -44.953125 101.390625 -52.128906 101.390625 -61.296875 C 101.390625 -70.304688 99.023438 -77.363281 94.296875 -82.46875 C 89.566406 -87.570312 83.445312 -90.125 75.9375 -90.125 C 68.425781 -90.125 62.265625 -87.570312 57.453125 -82.46875 C 52.648438 -77.363281 50.25 -70.304688 50.25 -61.296875 C 50.25 -52.128906 52.648438 -44.953125 57.453125 -39.765625 C 62.265625 -34.585938 68.425781 -32 75.9375 -32 Z M 75.9375 -32 "/></g></g></g><g fill="#ffffff" fill-opacity="1"><g transform="translate(1583.687536, 218.469148)"><g><path d="M 142.1875 -122.125 L 142.1875 0 L 101.390625 0 L 101.390625 -13.0625 C 96.890625 -8.113281 91.484375 -4.359375 85.171875 -1.796875 C 78.859375 0.753906 72.175781 2.03125 65.125 2.03125 C 49.34375 2.03125 36.757812 -2.625 27.375 -11.9375 C 17.988281 -21.25 13.296875 -35.222656 13.296875 -53.859375 L 13.296875 -122.125 L 56.109375 -122.125 L 56.109375 -60.84375 C 56.109375 -51.675781 57.832031 -44.988281 61.28125 -40.78125 C 64.738281 -36.570312 69.773438 -34.46875 76.390625 -34.46875 C 83.148438 -34.46875 88.671875 -36.832031 92.953125 -41.5625 C 97.234375 -46.300781 99.375 -53.550781 99.375 -63.3125 L 99.375 -122.125 Z M 142.1875 -122.125 "/></g></g></g><g fill="#ffffff" fill-opacity="1"><g transform="translate(1730.605728, 218.469148)"><g><path d="M 76.15625 2.03125 C 62.632812 2.03125 50.539062 -0.671875 39.875 -6.078125 C 29.21875 -11.492188 20.921875 -19.003906 14.984375 -28.609375 C 9.046875 -38.222656 6.078125 -49.117188 6.078125 -61.296875 C 6.078125 -73.460938 9.046875 -84.3125 14.984375 -93.84375 C 20.921875 -103.382812 29.21875 -110.820312 39.875 -116.15625 C 50.539062 -121.488281 62.632812 -124.15625 76.15625 -124.15625 C 89.976562 -124.15625 101.921875 -121.1875 111.984375 -115.25 C 122.046875 -109.320312 129.179688 -101.097656 133.390625 -90.578125 L 100.265625 -73.6875 C 94.710938 -84.644531 86.601562 -90.125 75.9375 -90.125 C 68.269531 -90.125 61.921875 -87.570312 56.890625 -82.46875 C 51.859375 -77.363281 49.34375 -70.304688 49.34375 -61.296875 C 49.34375 -52.128906 51.859375 -44.953125 56.890625 -39.765625 C 61.921875 -34.585938 68.269531 -32 75.9375 -32 C 86.601562 -32 94.710938 -37.484375 100.265625 -48.453125 L 133.390625 -31.546875 C 129.179688 -21.023438 122.046875 -12.796875 111.984375 -6.859375 C 101.921875 -0.929688 89.976562 2.03125 76.15625 2.03125 Z M 76.15625 2.03125 "/></g></g></g><g fill="#ffffff" fill-opacity="1"><g transform="translate(1857.46912, 218.469148)"><g><path d="M 13.75 -122.125 L 56.5625 -122.125 L 56.5625 0 L 13.75 0 Z M 35.15625 -135.640625 C 27.34375 -135.640625 21.03125 -137.816406 16.21875 -142.171875 C 11.414062 -146.535156 9.015625 -151.945312 9.015625 -158.40625 C 9.015625 -164.863281 11.414062 -170.269531 16.21875 -174.625 C 21.03125 -178.976562 27.34375 -181.15625 35.15625 -181.15625 C 42.96875 -181.15625 49.273438 -179.085938 54.078125 -174.953125 C 58.890625 -170.828125 61.296875 -165.535156 61.296875 -159.078125 C 61.296875 -152.316406 58.890625 -146.71875 54.078125 -142.28125 C 49.273438 -137.851562 42.96875 -135.640625 35.15625 -135.640625 Z M 35.15625 -135.640625 "/></g></g></g><g fill="#ffffff" fill-opacity="1"><g transform="translate(1918.985424, 218.469148)"><g><path d="M 143.53125 -167.1875 L 143.53125 0 L 102.75 0 L 102.75 -12.171875 C 94.789062 -2.703125 82.847656 2.03125 66.921875 2.03125 C 55.804688 2.03125 45.664062 -0.554688 36.5 -5.734375 C 27.34375 -10.921875 20.097656 -18.320312 14.765625 -27.9375 C 9.429688 -37.550781 6.765625 -48.671875 6.765625 -61.296875 C 6.765625 -73.910156 9.429688 -84.984375 14.765625 -94.515625 C 20.097656 -104.054688 27.34375 -111.378906 36.5 -116.484375 C 45.664062 -121.597656 55.804688 -124.15625 66.921875 -124.15625 C 81.492188 -124.15625 92.757812 -119.945312 100.71875 -111.53125 L 100.71875 -167.1875 Z M 75.9375 -32 C 83.300781 -32 89.382812 -34.585938 94.1875 -39.765625 C 98.988281 -44.953125 101.390625 -52.128906 101.390625 -61.296875 C 101.390625 -70.304688 99.023438 -77.363281 94.296875 -82.46875 C 89.566406 -87.570312 83.445312 -90.125 75.9375 -90.125 C 68.425781 -90.125 62.265625 -87.570312 57.453125 -82.46875 C 52.648438 -77.363281 50.25 -70.304688 50.25 -61.296875 C 50.25 -52.128906 52.648438 -44.953125 57.453125 -39.765625 C 62.265625 -34.585938 68.425781 -32 75.9375 -32 Z M 75.9375 -32 "/></g></g></g><g fill="#ffffff" fill-opacity="1"><g transform="translate(2067.255522, 218.469148)"><g><path d="M 65.796875 -124.15625 C 86.078125 -124.15625 101.550781 -119.535156 112.21875 -110.296875 C 122.882812 -101.054688 128.21875 -86.898438 128.21875 -67.828125 L 128.21875 0 L 88.328125 0 L 88.328125 -15.765625 C 82.171875 -3.898438 70.15625 2.03125 52.28125 2.03125 C 42.8125 2.03125 34.617188 0.378906 27.703125 -2.921875 C 20.796875 -6.234375 15.578125 -10.703125 12.046875 -16.328125 C 8.523438 -21.960938 6.765625 -28.390625 6.765625 -35.609375 C 6.765625 -47.171875 11.191406 -56.144531 20.046875 -62.53125 C 28.910156 -68.914062 42.582031 -72.109375 61.0625 -72.109375 L 85.40625 -72.109375 C 84.644531 -85.023438 76.003906 -91.484375 59.484375 -91.484375 C 53.628906 -91.484375 47.695312 -90.539062 41.6875 -88.65625 C 35.675781 -86.78125 30.566406 -84.191406 26.359375 -80.890625 L 11.9375 -109.953125 C 18.695312 -114.460938 26.921875 -117.957031 36.609375 -120.4375 C 46.304688 -122.914062 56.035156 -124.15625 65.796875 -124.15625 Z M 64.21875 -25.015625 C 69.175781 -25.015625 73.53125 -26.210938 77.28125 -28.609375 C 81.039062 -31.015625 83.75 -34.546875 85.40625 -39.203125 L 85.40625 -49.796875 L 66.921875 -49.796875 C 54.453125 -49.796875 48.21875 -45.664062 48.21875 -37.40625 C 48.21875 -33.644531 49.644531 -30.640625 52.5 -28.390625 C 55.351562 -26.140625 59.257812 -25.015625 64.21875 -25.015625 Z M 64.21875 -25.015625 "/></g></g></g></g></g><g clip-path="url(#f47beeab8e)"><path fill="#029ef8" d="M 1407.90625 283.503906 L 1401.101562 283.507812 C 1371.699219 283.5 1309.472656 283.699219 1214.421875 284.097656 C 1183.585938 284.371094 1152.855469 285 1122.222656 285.976562 C 1093.34375 286.800781 1055.066406 288.382812 1007.386719 290.71875 L 595.109375 311.019531 C 577.820312 311.875 559.710938 312.671875 540.78125 313.402344 C 511.535156 314.527344 487.542969 315.289062 468.804688 315.679688 C 461.019531 315.941406 429.320312 316.421875 373.703125 317.125 C 364.601562 317.238281 335.363281 318.03125 285.996094 319.503906 L 245.277344 320.070312 C 238.472656 320.417969 235.203125 320.796875 235.460938 321.207031 L 234.050781 321.128906 C 235.644531 321.832031 237.953125 322.539062 240.972656 323.246094 C 250.960938 325.535156 264.445312 327.359375 281.425781 328.71875 C 314.042969 330.855469 352.308594 331.976562 396.21875 332.078125 C 442.523438 332.019531 492.921875 330.867188 547.421875 328.628906 L 958.125 308.574219 C 1002.425781 306.421875 1038.957031 304.710938 1067.714844 303.445312 C 1122.632812 301.183594 1171.585938 299.894531 1214.582031 299.574219 C 1318.425781 299.125 1386.898438 298.933594 1420 298.996094 C 1452.660156 299.082031 1485.417969 299.453125 1518.265625 300.113281 C 1542.828125 300.613281 1572.601562 301.550781 1607.578125 302.925781 L 1875.566406 314.160156 C 1907.097656 315.460938 1929.476562 316.339844 1942.710938 316.796875 C 1983.300781 317.558594 2011.875 317.566406 2028.425781 316.828125 C 2039.410156 316.4375 2049.488281 315.222656 2058.671875 313.179688 C 2057.777344 313.078125 2055.75 312.988281 2052.597656 312.910156 C 2043.0625 310.203125 2032.40625 308.136719 2020.640625 306.707031 C 2006.875 305.59375 1985.640625 304.199219 1956.925781 302.53125 C 1812.792969 295.957031 1685.152344 290.515625 1574.003906 286.207031 C 1526.425781 284.480469 1471.0625 283.578125 1407.90625 283.503906 " fill-opacity="0.996" fill-rule="nonzero"/></g></svg>