<svg xmlns="http://www.w3.org/2000/svg" xmlns:xlink="http://www.w3.org/1999/xlink" width="3000" zoomAndPan="magnify" viewBox="0 0 2250 374.999991" height="500" preserveAspectRatio="xMidYMid meet" version="1.0"><defs><g/><clipPath id="0136d6bd63"><rect x="0" width="2204" y="0" height="276"/></clipPath></defs><g fill="#029ef8" fill-opacity="1"><g transform="translate(37.338086, 282.783812)"><g><path d="M 158.1875 0 L 157.734375 -83.609375 L 117.171875 -15.546875 L 97.34375 -15.546875 L 57.015625 -81.34375 L 57.015625 0 L 15.78125 0 L 15.78125 -157.734375 L 52.5 -157.734375 L 107.9375 -66.703125 L 162.015625 -157.734375 L 198.75 -157.734375 L 199.203125 0 Z M 158.1875 0 "/></g></g></g><g fill="#029ef8" fill-opacity="1"><g transform="translate(243.296158, 282.783812)"><g><path d="M 138.59375 -60.84375 C 138.59375 -60.539062 138.363281 -57.007812 137.90625 -50.25 L 49.125 -50.25 C 50.925781 -43.9375 54.414062 -39.085938 59.59375 -35.703125 C 64.78125 -32.328125 71.28125 -30.640625 79.09375 -30.640625 C 84.957031 -30.640625 90.03125 -31.46875 94.3125 -33.125 C 98.59375 -34.78125 102.910156 -37.484375 107.265625 -41.234375 L 129.796875 -17.796875 C 117.929688 -4.578125 100.582031 2.03125 77.75 2.03125 C 63.46875 2.03125 50.921875 -0.671875 40.109375 -6.078125 C 29.296875 -11.492188 20.921875 -19.007812 14.984375 -28.625 C 9.046875 -38.238281 6.078125 -49.128906 6.078125 -61.296875 C 6.078125 -73.316406 8.96875 -84.09375 14.75 -93.625 C 20.539062 -103.164062 28.539062 -110.640625 38.75 -116.046875 C 48.96875 -121.460938 60.460938 -124.171875 73.234375 -124.171875 C 85.398438 -124.171875 96.441406 -121.648438 106.359375 -116.609375 C 116.273438 -111.578125 124.125 -104.289062 129.90625 -94.75 C 135.695312 -85.21875 138.59375 -73.914062 138.59375 -60.84375 Z M 73.46875 -93.75 C 66.851562 -93.75 61.328125 -91.867188 56.890625 -88.109375 C 52.460938 -84.347656 49.648438 -79.238281 48.453125 -72.78125 L 98.46875 -72.78125 C 97.269531 -79.238281 94.453125 -84.347656 90.015625 -88.109375 C 85.585938 -91.867188 80.070312 -93.75 73.46875 -93.75 Z M 73.46875 -93.75 "/></g></g></g><g fill="#029ef8" fill-opacity="1"><g transform="translate(378.949076, 282.783812)"><g><path d="M 143.546875 -167.203125 L 143.546875 0 L 102.75 0 L 102.75 -12.171875 C 94.789062 -2.703125 82.847656 2.03125 66.921875 2.03125 C 55.804688 2.03125 45.664062 -0.554688 36.5 -5.734375 C 27.34375 -10.921875 20.097656 -18.320312 14.765625 -27.9375 C 9.429688 -37.550781 6.765625 -48.671875 6.765625 -61.296875 C 6.765625 -73.910156 9.429688 -84.988281 14.765625 -94.53125 C 20.097656 -104.070312 27.34375 -111.394531 36.5 -116.5 C 45.664062 -121.613281 55.804688 -124.171875 66.921875 -124.171875 C 81.492188 -124.171875 92.765625 -119.960938 100.734375 -111.546875 L 100.734375 -167.203125 Z M 75.9375 -32 C 83.300781 -32 89.382812 -34.585938 94.1875 -39.765625 C 99 -44.953125 101.40625 -52.128906 101.40625 -61.296875 C 101.40625 -70.304688 99.035156 -77.363281 94.296875 -82.46875 C 89.566406 -87.582031 83.445312 -90.140625 75.9375 -90.140625 C 68.425781 -90.140625 62.265625 -87.582031 57.453125 -82.46875 C 52.648438 -77.363281 50.25 -70.304688 50.25 -61.296875 C 50.25 -52.128906 52.648438 -44.953125 57.453125 -39.765625 C 62.265625 -34.585938 68.425781 -32 75.9375 -32 Z M 75.9375 -32 "/></g></g></g><g fill="#029ef8" fill-opacity="1"><g transform="translate(527.220849, 282.783812)"><g><path d="M 13.75 -122.140625 L 56.5625 -122.140625 L 56.5625 0 L 13.75 0 Z M 35.140625 -135.65625 C 27.328125 -135.65625 21.015625 -137.832031 16.203125 -142.1875 C 11.398438 -146.550781 9 -151.960938 9 -158.421875 C 9 -164.878906 11.398438 -170.285156 16.203125 -174.640625 C 21.015625 -178.992188 27.328125 -181.171875 35.140625 -181.171875 C 42.953125 -181.171875 49.257812 -179.101562 54.0625 -174.96875 C 58.875 -170.84375 61.28125 -165.550781 61.28125 -159.09375 C 61.28125 -152.332031 58.875 -146.734375 54.0625 -142.296875 C 49.257812 -137.867188 42.953125 -135.65625 35.140625 -135.65625 Z M 35.140625 -135.65625 "/></g></g></g><g fill="#029ef8" fill-opacity="1"><g transform="translate(588.737828, 282.783812)"><g><path d="M 76.171875 2.03125 C 62.648438 2.03125 50.554688 -0.671875 39.890625 -6.078125 C 29.222656 -11.492188 20.921875 -19.007812 14.984375 -28.625 C 9.046875 -38.238281 6.078125 -49.128906 6.078125 -61.296875 C 6.078125 -73.460938 9.046875 -84.316406 14.984375 -93.859375 C 20.921875 -103.398438 29.222656 -110.835938 39.890625 -116.171875 C 50.554688 -121.503906 62.648438 -124.171875 76.171875 -124.171875 C 89.984375 -124.171875 101.921875 -121.203125 111.984375 -115.265625 C 122.054688 -109.328125 129.195312 -101.101562 133.40625 -90.59375 L 100.28125 -73.6875 C 94.71875 -84.65625 86.601562 -90.140625 75.9375 -90.140625 C 68.28125 -90.140625 61.929688 -87.582031 56.890625 -82.46875 C 51.859375 -77.363281 49.34375 -70.304688 49.34375 -61.296875 C 49.34375 -52.128906 51.859375 -44.953125 56.890625 -39.765625 C 61.929688 -34.585938 68.28125 -32 75.9375 -32 C 86.601562 -32 94.71875 -37.484375 100.28125 -48.453125 L 133.40625 -31.546875 C 129.195312 -21.035156 122.054688 -12.8125 111.984375 -6.875 C 101.921875 -0.9375 89.984375 2.03125 76.171875 2.03125 Z M 76.171875 2.03125 "/></g></g></g><g fill="#029ef8" fill-opacity="1"><g transform="translate(715.602585, 282.783812)"><g><path d="M 13.75 -122.140625 L 56.5625 -122.140625 L 56.5625 0 L 13.75 0 Z M 35.140625 -135.65625 C 27.328125 -135.65625 21.015625 -137.832031 16.203125 -142.1875 C 11.398438 -146.550781 9 -151.960938 9 -158.421875 C 9 -164.878906 11.398438 -170.285156 16.203125 -174.640625 C 21.015625 -178.992188 27.328125 -181.171875 35.140625 -181.171875 C 42.953125 -181.171875 49.257812 -179.101562 54.0625 -174.96875 C 58.875 -170.84375 61.28125 -165.550781 61.28125 -159.09375 C 61.28125 -152.332031 58.875 -146.734375 54.0625 -142.296875 C 49.257812 -137.867188 42.953125 -135.65625 35.140625 -135.65625 Z M 35.140625 -135.65625 "/></g></g></g><g fill="#029ef8" fill-opacity="1"><g transform="translate(777.119564, 282.783812)"><g><path d="M 93.296875 -124.171875 C 108.460938 -124.171875 120.664062 -119.660156 129.90625 -110.640625 C 139.144531 -101.628906 143.765625 -88.035156 143.765625 -69.859375 L 143.765625 0 L 100.953125 0 L 100.953125 -62.875 C 100.953125 -79.550781 94.265625 -87.890625 80.890625 -87.890625 C 73.535156 -87.890625 67.640625 -85.484375 63.203125 -80.671875 C 58.773438 -75.867188 56.5625 -68.660156 56.5625 -59.046875 L 56.5625 0 L 13.75 0 L 13.75 -122.140625 L 54.53125 -122.140625 L 54.53125 -108.84375 C 59.34375 -113.800781 65.050781 -117.59375 71.65625 -120.21875 C 78.269531 -122.851562 85.484375 -124.171875 93.296875 -124.171875 Z M 93.296875 -124.171875 "/></g></g></g><g fill="#029ef8" fill-opacity="1"><g transform="translate(924.940692, 282.783812)"><g><path d="M 65.796875 -124.171875 C 86.078125 -124.171875 101.550781 -119.550781 112.21875 -110.3125 C 122.882812 -101.070312 128.21875 -86.910156 128.21875 -67.828125 L 128.21875 0 L 88.328125 0 L 88.328125 -15.78125 C 82.171875 -3.90625 70.15625 2.03125 52.28125 2.03125 C 42.8125 2.03125 34.617188 0.378906 27.703125 -2.921875 C 20.796875 -6.234375 15.578125 -10.703125 12.046875 -16.328125 C 8.523438 -21.960938 6.765625 -28.390625 6.765625 -35.609375 C 6.765625 -47.171875 11.191406 -56.144531 20.046875 -62.53125 C 28.910156 -68.914062 42.582031 -72.109375 61.0625 -72.109375 L 85.40625 -72.109375 C 84.65625 -85.023438 76.015625 -91.484375 59.484375 -91.484375 C 53.628906 -91.484375 47.695312 -90.546875 41.6875 -88.671875 C 35.675781 -86.796875 30.566406 -84.203125 26.359375 -80.890625 L 11.9375 -109.96875 C 18.695312 -114.476562 26.921875 -117.972656 36.609375 -120.453125 C 46.304688 -122.929688 56.035156 -124.171875 65.796875 -124.171875 Z M 64.21875 -25.015625 C 69.175781 -25.015625 73.53125 -26.210938 77.28125 -28.609375 C 81.039062 -31.015625 83.75 -34.546875 85.40625 -39.203125 L 85.40625 -49.796875 L 66.921875 -49.796875 C 54.453125 -49.796875 48.21875 -45.664062 48.21875 -37.40625 C 48.21875 -33.65625 49.644531 -30.648438 52.5 -28.390625 C 55.351562 -26.140625 59.257812 -25.015625 64.21875 -25.015625 Z M 64.21875 -25.015625 "/></g></g></g><g fill="#029ef8" fill-opacity="1"><g transform="translate(1057.438818, 282.783812)"><g/></g></g><g fill="#029ef8" fill-opacity="1"><g transform="translate(1113.998354, 282.783812)"><g><path d="M 49.34375 -122.359375 L 0.90625 -122.359375 L 0.90625 -157.734375 L 142.1875 -157.734375 L 142.1875 -122.359375 L 93.96875 -122.359375 L 93.96875 0 L 49.34375 0 Z M 49.34375 -122.359375 "/></g></g></g><g fill="#029ef8" fill-opacity="1"><g transform="translate(1245.595236, 282.783812)"><g><path d="M 54.53125 -107.484375 C 58.882812 -113.046875 64.554688 -117.21875 71.546875 -120 C 78.535156 -122.78125 86.535156 -124.171875 95.546875 -124.171875 L 95.546875 -85.625 C 91.640625 -86.082031 88.410156 -86.3125 85.859375 -86.3125 C 76.691406 -86.3125 69.515625 -83.832031 64.328125 -78.875 C 59.148438 -73.914062 56.5625 -66.328125 56.5625 -56.109375 L 56.5625 0 L 13.75 0 L 13.75 -122.140625 L 54.53125 -122.140625 Z M 54.53125 -107.484375 "/></g></g></g><g fill="#029ef8" fill-opacity="1"><g transform="translate(1335.054061, 282.783812)"><g><path d="M 65.796875 -124.171875 C 86.078125 -124.171875 101.550781 -119.550781 112.21875 -110.3125 C 122.882812 -101.070312 128.21875 -86.910156 128.21875 -67.828125 L 128.21875 0 L 88.328125 0 L 88.328125 -15.78125 C 82.171875 -3.90625 70.15625 2.03125 52.28125 2.03125 C 42.8125 2.03125 34.617188 0.378906 27.703125 -2.921875 C 20.796875 -6.234375 15.578125 -10.703125 12.046875 -16.328125 C 8.523438 -21.960938 6.765625 -28.390625 6.765625 -35.609375 C 6.765625 -47.171875 11.191406 -56.144531 20.046875 -62.53125 C 28.910156 -68.914062 42.582031 -72.109375 61.0625 -72.109375 L 85.40625 -72.109375 C 84.65625 -85.023438 76.015625 -91.484375 59.484375 -91.484375 C 53.628906 -91.484375 47.695312 -90.546875 41.6875 -88.671875 C 35.675781 -86.796875 30.566406 -84.203125 26.359375 -80.890625 L 11.9375 -109.96875 C 18.695312 -114.476562 26.921875 -117.972656 36.609375 -120.453125 C 46.304688 -122.929688 56.035156 -124.171875 65.796875 -124.171875 Z M 64.21875 -25.015625 C 69.175781 -25.015625 73.53125 -26.210938 77.28125 -28.609375 C 81.039062 -31.015625 83.75 -34.546875 85.40625 -39.203125 L 85.40625 -49.796875 L 66.921875 -49.796875 C 54.453125 -49.796875 48.21875 -45.664062 48.21875 -37.40625 C 48.21875 -33.65625 49.644531 -30.648438 52.5 -28.390625 C 55.351562 -26.140625 59.257812 -25.015625 64.21875 -25.015625 Z M 64.21875 -25.015625 "/></g></g></g><g fill="#029ef8" fill-opacity="1"><g transform="translate(1469.354955, 282.783812)"><g><path d="M 143.546875 -167.203125 L 143.546875 0 L 102.75 0 L 102.75 -12.171875 C 94.789062 -2.703125 82.847656 2.03125 66.921875 2.03125 C 55.804688 2.03125 45.664062 -0.554688 36.5 -5.734375 C 27.34375 -10.921875 20.097656 -18.320312 14.765625 -27.9375 C 9.429688 -37.550781 6.765625 -48.671875 6.765625 -61.296875 C 6.765625 -73.910156 9.429688 -84.988281 14.765625 -94.53125 C 20.097656 -104.070312 27.34375 -111.394531 36.5 -116.5 C 45.664062 -121.613281 55.804688 -124.171875 66.921875 -124.171875 C 81.492188 -124.171875 92.765625 -119.960938 100.734375 -111.546875 L 100.734375 -167.203125 Z M 75.9375 -32 C 83.300781 -32 89.382812 -34.585938 94.1875 -39.765625 C 99 -44.953125 101.40625 -52.128906 101.40625 -61.296875 C 101.40625 -70.304688 99.035156 -77.363281 94.296875 -82.46875 C 89.566406 -87.582031 83.445312 -90.140625 75.9375 -90.140625 C 68.425781 -90.140625 62.265625 -87.582031 57.453125 -82.46875 C 52.648438 -77.363281 50.25 -70.304688 50.25 -61.296875 C 50.25 -52.128906 52.648438 -44.953125 57.453125 -39.765625 C 62.265625 -34.585938 68.425781 -32 75.9375 -32 Z M 75.9375 -32 "/></g></g></g><g fill="#029ef8" fill-opacity="1"><g transform="translate(1617.626615, 282.783812)"><g><path d="M 142.1875 -122.140625 L 142.1875 0 L 101.40625 0 L 101.40625 -13.0625 C 96.894531 -8.113281 91.484375 -4.359375 85.171875 -1.796875 C 78.867188 0.753906 72.1875 2.03125 65.125 2.03125 C 49.351562 2.03125 36.769531 -2.625 27.375 -11.9375 C 17.988281 -21.257812 13.296875 -35.234375 13.296875 -53.859375 L 13.296875 -122.140625 L 56.109375 -122.140625 L 56.109375 -60.84375 C 56.109375 -51.675781 57.832031 -44.988281 61.28125 -40.78125 C 64.738281 -36.582031 69.773438 -34.484375 76.390625 -34.484375 C 83.148438 -34.484375 88.671875 -36.847656 92.953125 -41.578125 C 97.234375 -46.304688 99.375 -53.554688 99.375 -63.328125 L 99.375 -122.140625 Z M 142.1875 -122.140625 "/></g></g></g><g fill="#029ef8" fill-opacity="1"><g transform="translate(1764.546408, 282.783812)"><g><path d="M 76.171875 2.03125 C 62.648438 2.03125 50.554688 -0.671875 39.890625 -6.078125 C 29.222656 -11.492188 20.921875 -19.007812 14.984375 -28.625 C 9.046875 -38.238281 6.078125 -49.128906 6.078125 -61.296875 C 6.078125 -73.460938 9.046875 -84.316406 14.984375 -93.859375 C 20.921875 -103.398438 29.222656 -110.835938 39.890625 -116.171875 C 50.554688 -121.503906 62.648438 -124.171875 76.171875 -124.171875 C 89.984375 -124.171875 101.921875 -121.203125 111.984375 -115.265625 C 122.054688 -109.328125 129.195312 -101.101562 133.40625 -90.59375 L 100.28125 -73.6875 C 94.71875 -84.65625 86.601562 -90.140625 75.9375 -90.140625 C 68.28125 -90.140625 61.929688 -87.582031 56.890625 -82.46875 C 51.859375 -77.363281 49.34375 -70.304688 49.34375 -61.296875 C 49.34375 -52.128906 51.859375 -44.953125 56.890625 -39.765625 C 61.929688 -34.585938 68.28125 -32 75.9375 -32 C 86.601562 -32 94.71875 -37.484375 100.28125 -48.453125 L 133.40625 -31.546875 C 129.195312 -21.035156 122.054688 -12.8125 111.984375 -6.875 C 101.921875 -0.9375 89.984375 2.03125 76.171875 2.03125 Z M 76.171875 2.03125 "/></g></g></g><g fill="#029ef8" fill-opacity="1"><g transform="translate(1891.41121, 282.783812)"><g><path d="M 13.75 -122.140625 L 56.5625 -122.140625 L 56.5625 0 L 13.75 0 Z M 35.140625 -135.65625 C 27.328125 -135.65625 21.015625 -137.832031 16.203125 -142.1875 C 11.398438 -146.550781 9 -151.960938 9 -158.421875 C 9 -164.878906 11.398438 -170.285156 16.203125 -174.640625 C 21.015625 -178.992188 27.328125 -181.171875 35.140625 -181.171875 C 42.953125 -181.171875 49.257812 -179.101562 54.0625 -174.96875 C 58.875 -170.84375 61.28125 -165.550781 61.28125 -159.09375 C 61.28125 -152.332031 58.875 -146.734375 54.0625 -142.296875 C 49.257812 -137.867188 42.953125 -135.65625 35.140625 -135.65625 Z M 35.140625 -135.65625 "/></g></g></g><g fill="#029ef8" fill-opacity="1"><g transform="translate(1952.928234, 282.783812)"><g><path d="M 143.546875 -167.203125 L 143.546875 0 L 102.75 0 L 102.75 -12.171875 C 94.789062 -2.703125 82.847656 2.03125 66.921875 2.03125 C 55.804688 2.03125 45.664062 -0.554688 36.5 -5.734375 C 27.34375 -10.921875 20.097656 -18.320312 14.765625 -27.9375 C 9.429688 -37.550781 6.765625 -48.671875 6.765625 -61.296875 C 6.765625 -73.910156 9.429688 -84.988281 14.765625 -94.53125 C 20.097656 -104.070312 27.34375 -111.394531 36.5 -116.5 C 45.664062 -121.613281 55.804688 -124.171875 66.921875 -124.171875 C 81.492188 -124.171875 92.765625 -119.960938 100.734375 -111.546875 L 100.734375 -167.203125 Z M 75.9375 -32 C 83.300781 -32 89.382812 -34.585938 94.1875 -39.765625 C 99 -44.953125 101.40625 -52.128906 101.40625 -61.296875 C 101.40625 -70.304688 99.035156 -77.363281 94.296875 -82.46875 C 89.566406 -87.582031 83.445312 -90.140625 75.9375 -90.140625 C 68.425781 -90.140625 62.265625 -87.582031 57.453125 -82.46875 C 52.648438 -77.363281 50.25 -70.304688 50.25 -61.296875 C 50.25 -52.128906 52.648438 -44.953125 57.453125 -39.765625 C 62.265625 -34.585938 68.425781 -32 75.9375 -32 Z M 75.9375 -32 "/></g></g></g><g fill="#029ef8" fill-opacity="1"><g transform="translate(2101.199895, 282.783812)"><g><path d="M 65.796875 -124.171875 C 86.078125 -124.171875 101.550781 -119.550781 112.21875 -110.3125 C 122.882812 -101.070312 128.21875 -86.910156 128.21875 -67.828125 L 128.21875 0 L 88.328125 0 L 88.328125 -15.78125 C 82.171875 -3.90625 70.15625 2.03125 52.28125 2.03125 C 42.8125 2.03125 34.617188 0.378906 27.703125 -2.921875 C 20.796875 -6.234375 15.578125 -10.703125 12.046875 -16.328125 C 8.523438 -21.960938 6.765625 -28.390625 6.765625 -35.609375 C 6.765625 -47.171875 11.191406 -56.144531 20.046875 -62.53125 C 28.910156 -68.914062 42.582031 -72.109375 61.0625 -72.109375 L 85.40625 -72.109375 C 84.65625 -85.023438 76.015625 -91.484375 59.484375 -91.484375 C 53.628906 -91.484375 47.695312 -90.546875 41.6875 -88.671875 C 35.675781 -86.796875 30.566406 -84.203125 26.359375 -80.890625 L 11.9375 -109.96875 C 18.695312 -114.476562 26.921875 -117.972656 36.609375 -120.453125 C 46.304688 -122.929688 56.035156 -124.171875 65.796875 -124.171875 Z M 64.21875 -25.015625 C 69.175781 -25.015625 73.53125 -26.210938 77.28125 -28.609375 C 81.039062 -31.015625 83.75 -34.546875 85.40625 -39.203125 L 85.40625 -49.796875 L 66.921875 -49.796875 C 54.453125 -49.796875 48.21875 -45.664062 48.21875 -37.40625 C 48.21875 -33.65625 49.644531 -30.648438 52.5 -28.390625 C 55.351562 -26.140625 59.257812 -25.015625 64.21875 -25.015625 Z M 64.21875 -25.015625 "/></g></g></g><g transform="matrix(1, 0, 0, 1, 20, 49)"><g clip-path="url(#0136d6bd63)"><g fill="#029ef8" fill-opacity="1"><g transform="translate(1.299876, 218.821959)"><g><path d="M 153.257812 0.0273438 L 152.804688 -83.574219 L 157.734375 -83.597656 L 161.96875 -81.074219 L 119.976562 -10.617188 L 94.585938 -10.617188 L 52.808594 -78.769531 L 57.011719 -81.347656 L 61.9375 -81.347656 L 61.9375 4.929688 L 10.84375 4.929688 L 10.84375 -162.664062 L 55.273438 -162.664062 L 112.144531 -69.261719 L 107.9375 -66.699219 L 103.699219 -69.214844 L 159.210938 -162.664062 L 203.660156 -162.664062 L 204.140625 4.929688 L 153.28125 4.929688 Z M 163.113281 -0.0273438 L 158.183594 0 L 158.183594 -4.929688 L 199.195312 -4.929688 L 199.195312 0 L 194.265625 0.015625 L 193.816406 -157.71875 L 198.746094 -157.734375 L 198.746094 -152.804688 L 162.015625 -152.804688 L 162.015625 -157.734375 L 166.253906 -155.21875 L 107.988281 -57.136719 L 48.292969 -155.171875 L 52.503906 -157.734375 L 52.503906 -152.804688 L 15.773438 -152.804688 L 15.773438 -157.734375 L 20.703125 -157.734375 L 20.703125 0 L 15.773438 0 L 15.773438 -4.929688 L 57.011719 -4.929688 L 57.011719 0 L 52.082031 0 L 52.082031 -98.820312 L 101.546875 -18.125 L 97.34375 -15.546875 L 97.34375 -20.476562 L 117.175781 -20.476562 L 117.175781 -15.546875 L 112.941406 -18.070312 L 162.570312 -101.335938 Z M 163.113281 -0.0273438 "/></g></g></g><g fill="#029ef8" fill-opacity="1"><g transform="translate(207.255782, 218.821959)"><g><path d="M 143.511719 -60.839844 C 143.511719 -60.429688 143.28125 -56.792969 142.824219 -49.921875 L 142.515625 -45.320312 L 49.125 -45.320312 L 49.125 -50.25 L 53.863281 -51.605469 C 55.328125 -46.472656 58.140625 -42.554688 62.292969 -39.84375 C 66.660156 -37 72.257812 -35.574219 79.09375 -35.574219 C 84.339844 -35.574219 88.816406 -36.289062 92.527344 -37.722656 C 96.277344 -39.171875 100.117188 -41.585938 104.042969 -44.96875 L 107.578125 -48.019531 L 136.519531 -17.917969 L 133.460938 -14.507812 C 120.613281 -0.199219 102.039062 6.957031 77.742188 6.957031 C 62.695312 6.957031 49.414062 4.078125 37.90625 -1.675781 C 26.253906 -7.5 17.214844 -15.617188 10.789062 -26.027344 C 4.367188 -36.4375 1.15625 -48.191406 1.15625 -61.292969 C 1.15625 -74.226562 4.285156 -85.859375 10.542969 -96.183594 C 16.796875 -106.496094 25.433594 -114.570312 36.453125 -120.402344 C 47.386719 -126.195312 59.648438 -129.089844 73.234375 -129.089844 C 86.1875 -129.089844 97.972656 -126.394531 108.589844 -121.007812 C 119.339844 -115.550781 127.851562 -107.648438 134.121094 -97.308594 C 140.378906 -86.984375 143.511719 -74.828125 143.511719 -60.839844 Z M 133.652344 -60.839844 C 133.652344 -72.992188 131 -83.445312 125.691406 -92.199219 C 120.394531 -100.933594 113.207031 -107.609375 104.128906 -112.214844 C 94.914062 -116.890625 84.617188 -119.230469 73.234375 -119.230469 C 61.28125 -119.230469 50.558594 -116.71875 41.0625 -111.691406 C 31.652344 -106.707031 24.289062 -99.835938 18.972656 -91.070312 C 13.667969 -82.316406 11.011719 -72.390625 11.011719 -61.292969 C 11.011719 -50.054688 13.734375 -40.027344 19.179688 -31.207031 C 24.621094 -22.386719 32.332031 -15.484375 42.3125 -10.492188 C 52.4375 -5.433594 64.246094 -2.902344 77.742188 -2.902344 C 99.109375 -2.902344 115.238281 -8.964844 126.125 -21.09375 L 129.792969 -17.800781 L 126.238281 -14.386719 L 103.707031 -37.820312 L 107.257812 -41.238281 L 110.476562 -37.503906 C 105.691406 -33.375 100.890625 -30.382812 96.078125 -28.527344 C 91.226562 -26.652344 85.5625 -25.714844 79.09375 -25.714844 C 70.304688 -25.714844 62.910156 -27.671875 56.910156 -31.585938 C 50.699219 -35.636719 46.523438 -41.40625 44.382812 -48.894531 L 42.589844 -55.179688 L 137.90625 -55.179688 L 137.90625 -50.25 L 132.988281 -50.578125 C 133.429688 -57.226562 133.652344 -60.648438 133.652344 -60.839844 Z M 73.460938 -88.808594 C 68.054688 -88.808594 63.597656 -87.320312 60.085938 -84.34375 C 56.542969 -81.347656 54.28125 -77.191406 53.292969 -71.882812 L 48.445312 -72.785156 L 48.445312 -77.710938 L 98.472656 -77.710938 L 98.472656 -72.785156 L 93.625 -71.882812 C 92.636719 -77.191406 90.375 -81.347656 86.835938 -84.34375 C 83.324219 -87.320312 78.863281 -88.808594 73.460938 -88.808594 Z M 73.460938 -98.667969 C 81.273438 -98.667969 87.855469 -96.402344 93.207031 -91.867188 C 98.53125 -87.355469 101.902344 -81.292969 103.316406 -73.683594 L 104.402344 -67.855469 L 42.515625 -67.855469 L 43.601562 -73.683594 C 45.015625 -81.292969 48.386719 -87.355469 53.710938 -91.867188 C 59.0625 -96.402344 65.644531 -98.667969 73.460938 -98.667969 Z M 73.460938 -98.667969 "/></g></g></g><g fill="#029ef8" fill-opacity="1"><g transform="translate(342.907229, 218.821959)"><g><path d="M 148.46875 -167.199219 L 148.46875 4.929688 L 97.824219 4.929688 L 97.824219 -12.167969 L 102.753906 -12.167969 L 106.523438 -8.996094 C 97.578125 1.640625 84.378906 6.957031 66.925781 6.957031 C 54.941406 6.957031 43.996094 4.152344 34.078125 -1.457031 C 24.109375 -7.09375 16.230469 -15.125 10.449219 -25.550781 C 4.703125 -35.910156 1.832031 -47.820312 1.832031 -61.292969 C 1.832031 -74.765625 4.707031 -86.648438 10.457031 -96.933594 C 16.246094 -107.285156 24.128906 -115.242188 34.105469 -120.804688 C 44.015625 -126.328125 54.953125 -129.089844 66.925781 -129.089844 C 82.910156 -129.089844 95.371094 -124.367188 104.304688 -114.929688 L 100.726562 -111.539062 L 95.796875 -111.539062 L 95.796875 -172.128906 L 148.46875 -172.128906 Z M 138.609375 -167.199219 L 143.539062 -167.199219 L 143.539062 -162.269531 L 100.726562 -162.269531 L 100.726562 -167.199219 L 105.652344 -167.199219 L 105.652344 -99.160156 L 97.144531 -108.152344 C 90.15625 -115.539062 80.082031 -119.230469 66.925781 -119.230469 C 56.660156 -119.230469 47.320312 -116.882812 38.902344 -112.191406 C 30.554688 -107.539062 23.941406 -100.847656 19.0625 -92.121094 C 14.148438 -83.332031 11.6875 -73.054688 11.6875 -61.292969 C 11.6875 -49.523438 14.148438 -39.203125 19.070312 -30.332031 C 23.953125 -21.527344 30.574219 -14.761719 38.929688 -10.035156 C 47.339844 -5.28125 56.671875 -2.902344 66.925781 -2.902344 C 81.320312 -2.902344 92.003906 -7.046875 98.980469 -15.339844 L 107.683594 -25.683594 L 107.683594 0 L 102.753906 0 L 102.753906 -4.929688 L 143.539062 -4.929688 L 143.539062 0 L 138.609375 0 Z M 75.9375 -36.925781 C 81.863281 -36.925781 86.746094 -38.992188 90.574219 -43.125 C 94.507812 -47.359375 96.472656 -53.417969 96.472656 -61.292969 C 96.472656 -69.015625 94.542969 -74.960938 90.6875 -79.121094 C 86.929688 -83.175781 82.015625 -85.203125 75.9375 -85.203125 C 69.847656 -85.203125 64.882812 -83.167969 61.050781 -79.09375 C 57.136719 -74.9375 55.179688 -69 55.179688 -61.292969 C 55.179688 -53.417969 57.144531 -47.359375 61.074219 -43.125 C 64.90625 -38.992188 69.859375 -36.925781 75.9375 -36.925781 Z M 75.9375 -27.066406 C 66.992188 -27.066406 59.628906 -30.183594 53.847656 -36.417969 C 48.164062 -42.546875 45.320312 -50.839844 45.320312 -61.292969 C 45.320312 -71.609375 48.171875 -79.792969 53.871094 -85.851562 C 59.652344 -91.992188 67.007812 -95.0625 75.9375 -95.0625 C 84.882812 -95.0625 92.210938 -91.984375 97.917969 -85.824219 C 103.527344 -79.769531 106.332031 -71.59375 106.332031 -61.292969 C 106.332031 -50.839844 103.488281 -42.546875 97.804688 -36.417969 C 92.023438 -30.183594 84.734375 -27.066406 75.9375 -27.066406 Z M 75.9375 -27.066406 "/></g></g></g><g fill="#029ef8" fill-opacity="1"><g transform="translate(491.177375, 218.821959)"><g><path d="M 13.746094 -127.0625 L 61.488281 -127.0625 L 61.488281 4.929688 L 8.816406 4.929688 L 8.816406 -127.0625 Z M 13.746094 -117.203125 L 13.746094 -122.132812 L 18.675781 -122.132812 L 18.675781 0 L 13.746094 0 L 13.746094 -4.929688 L 56.558594 -4.929688 L 56.558594 0 L 51.628906 0 L 51.628906 -122.132812 L 56.558594 -122.132812 L 56.558594 -117.203125 Z M 35.152344 -130.722656 C 26.074219 -130.722656 18.660156 -133.328125 12.914062 -138.535156 C 7.027344 -143.867188 4.085938 -150.496094 4.085938 -158.410156 C 4.085938 -166.328125 7.027344 -172.953125 12.914062 -178.289062 C 18.660156 -183.496094 26.074219 -186.097656 35.152344 -186.097656 C 44.183594 -186.097656 51.5625 -183.636719 57.292969 -178.710938 C 63.246094 -173.597656 66.21875 -167.054688 66.21875 -159.085938 C 66.21875 -150.886719 63.289062 -144.082031 57.421875 -138.675781 C 51.671875 -133.375 44.246094 -130.722656 35.152344 -130.722656 Z M 35.152344 -140.582031 C 41.679688 -140.582031 46.875 -142.363281 50.738281 -145.921875 C 54.488281 -149.378906 56.363281 -153.765625 56.363281 -159.085938 C 56.363281 -164.039062 54.53125 -168.085938 50.867188 -171.234375 C 46.984375 -174.570312 41.746094 -176.242188 35.152344 -176.242188 C 28.609375 -176.242188 23.402344 -174.488281 19.535156 -170.980469 C 15.804688 -167.605469 13.941406 -163.414062 13.941406 -158.410156 C 13.941406 -153.40625 15.804688 -149.21875 19.535156 -145.839844 C 23.402344 -142.332031 28.609375 -140.582031 35.152344 -140.582031 Z M 35.152344 -140.582031 "/></g></g></g><g fill="#029ef8" fill-opacity="1"><g transform="translate(552.69363, 218.821959)"><g><path d="M 76.164062 6.957031 C 61.859375 6.957031 49.023438 4.074219 37.65625 -1.6875 C 26.164062 -7.515625 17.210938 -15.628906 10.789062 -26.027344 C 4.367188 -36.4375 1.15625 -48.191406 1.15625 -61.292969 C 1.15625 -74.398438 4.371094 -86.121094 10.800781 -96.457031 C 17.222656 -106.785156 26.183594 -114.820312 37.679688 -120.570312 C 49.039062 -126.25 61.867188 -129.089844 76.164062 -129.089844 C 90.878906 -129.089844 103.65625 -125.894531 114.496094 -119.503906 C 125.527344 -113.003906 133.351562 -103.972656 137.976562 -92.414062 L 139.644531 -88.238281 L 98.113281 -67.046875 L 95.878906 -71.457031 C 93.484375 -76.179688 90.609375 -79.671875 87.261719 -81.9375 C 84.039062 -84.117188 80.265625 -85.203125 75.9375 -85.203125 C 69.652344 -85.203125 64.476562 -83.140625 60.410156 -79.011719 C 56.320312 -74.863281 54.277344 -68.957031 54.277344 -61.292969 C 54.277344 -53.460938 56.328125 -47.433594 60.433594 -43.207031 C 64.496094 -39.019531 69.667969 -36.925781 75.9375 -36.925781 C 80.265625 -36.925781 84.039062 -38.015625 87.261719 -40.195312 C 90.609375 -42.457031 93.484375 -45.953125 95.878906 -50.675781 L 98.113281 -55.085938 L 139.644531 -33.894531 L 137.976562 -29.714844 C 133.351562 -18.160156 125.527344 -9.128906 114.496094 -2.625 C 103.65625 3.761719 90.878906 6.957031 76.164062 6.957031 Z M 76.164062 -2.902344 C 89.085938 -2.902344 100.195312 -5.640625 109.488281 -11.117188 C 118.585938 -16.484375 125.03125 -23.902344 128.820312 -33.378906 L 133.398438 -31.546875 L 131.160156 -27.15625 L 98.035156 -44.054688 L 100.273438 -48.445312 L 104.671875 -46.21875 C 101.507812 -39.976562 97.542969 -35.246094 92.78125 -32.027344 C 87.890625 -28.722656 82.277344 -27.066406 75.9375 -27.066406 C 66.886719 -27.066406 59.359375 -30.15625 53.359375 -36.335938 C 47.398438 -42.476562 44.417969 -50.792969 44.417969 -61.292969 C 44.417969 -71.652344 47.40625 -79.867188 53.386719 -85.933594 C 59.382812 -92.019531 66.902344 -95.0625 75.9375 -95.0625 C 82.277344 -95.0625 87.890625 -93.410156 92.78125 -90.105469 C 97.542969 -86.886719 101.507812 -82.15625 104.671875 -75.914062 L 100.273438 -73.683594 L 98.035156 -78.074219 L 131.160156 -94.976562 L 133.398438 -90.585938 L 128.820312 -88.753906 C 125.03125 -98.230469 118.585938 -105.648438 109.488281 -111.011719 C 100.195312 -116.492188 89.085938 -119.230469 76.164062 -119.230469 C 63.417969 -119.230469 52.0625 -116.738281 42.089844 -111.75 C 32.253906 -106.832031 24.613281 -100 19.171875 -91.25 C 13.730469 -82.507812 11.011719 -72.519531 11.011719 -61.292969 C 11.011719 -50.054688 13.734375 -40.027344 19.179688 -31.207031 C 24.628906 -22.378906 32.273438 -15.46875 42.113281 -10.480469 C 52.078125 -5.425781 63.429688 -2.902344 76.164062 -2.902344 Z M 76.164062 -2.902344 "/></g></g></g><g fill="#029ef8" fill-opacity="1"><g transform="translate(679.557023, 218.821959)"><g><path d="M 13.746094 -127.0625 L 61.488281 -127.0625 L 61.488281 4.929688 L 8.816406 4.929688 L 8.816406 -127.0625 Z M 13.746094 -117.203125 L 13.746094 -122.132812 L 18.675781 -122.132812 L 18.675781 0 L 13.746094 0 L 13.746094 -4.929688 L 56.558594 -4.929688 L 56.558594 0 L 51.628906 0 L 51.628906 -122.132812 L 56.558594 -122.132812 L 56.558594 -117.203125 Z M 35.152344 -130.722656 C 26.074219 -130.722656 18.660156 -133.328125 12.914062 -138.535156 C 7.027344 -143.867188 4.085938 -150.496094 4.085938 -158.410156 C 4.085938 -166.328125 7.027344 -172.953125 12.914062 -178.289062 C 18.660156 -183.496094 26.074219 -186.097656 35.152344 -186.097656 C 44.183594 -186.097656 51.5625 -183.636719 57.292969 -178.710938 C 63.246094 -173.597656 66.21875 -167.054688 66.21875 -159.085938 C 66.21875 -150.886719 63.289062 -144.082031 57.421875 -138.675781 C 51.671875 -133.375 44.246094 -130.722656 35.152344 -130.722656 Z M 35.152344 -140.582031 C 41.679688 -140.582031 46.875 -142.363281 50.738281 -145.921875 C 54.488281 -149.378906 56.363281 -153.765625 56.363281 -159.085938 C 56.363281 -164.039062 54.53125 -168.085938 50.867188 -171.234375 C 46.984375 -174.570312 41.746094 -176.242188 35.152344 -176.242188 C 28.609375 -176.242188 23.402344 -174.488281 19.535156 -170.980469 C 15.804688 -167.605469 13.941406 -163.414062 13.941406 -158.410156 C 13.941406 -153.40625 15.804688 -149.21875 19.535156 -145.839844 C 23.402344 -142.332031 28.609375 -140.582031 35.152344 -140.582031 Z M 35.152344 -140.582031 "/></g></g></g><g fill="#029ef8" fill-opacity="1"><g transform="translate(741.073326, 218.821959)"><g><path d="M 93.289062 -129.089844 C 109.800781 -129.089844 123.152344 -124.117188 133.347656 -114.167969 C 143.578125 -104.1875 148.691406 -89.414062 148.691406 -69.855469 L 148.691406 4.929688 L 96.019531 4.929688 L 96.019531 -62.867188 C 96.019531 -70.050781 94.710938 -75.277344 92.089844 -78.542969 C 89.734375 -81.480469 86.003906 -82.953125 80.894531 -82.953125 C 74.972656 -82.953125 70.285156 -81.078125 66.832031 -77.328125 C 63.269531 -73.464844 61.488281 -67.367188 61.488281 -59.039062 L 61.488281 4.929688 L 8.816406 4.929688 L 8.816406 -127.0625 L 59.460938 -127.0625 L 59.460938 -108.835938 L 54.53125 -108.835938 L 50.992188 -112.269531 C 56.289062 -117.730469 62.570312 -121.90625 69.835938 -124.796875 C 77.03125 -127.660156 84.847656 -129.089844 93.289062 -129.089844 Z M 93.289062 -119.230469 C 86.105469 -119.230469 79.503906 -118.03125 73.476562 -115.636719 C 67.523438 -113.265625 62.386719 -109.855469 58.070312 -105.40625 L 49.601562 -96.671875 L 49.601562 -122.132812 L 54.53125 -122.132812 L 54.53125 -117.203125 L 13.746094 -117.203125 L 13.746094 -122.132812 L 18.675781 -122.132812 L 18.675781 0 L 13.746094 0 L 13.746094 -4.929688 L 56.558594 -4.929688 L 56.558594 0 L 51.628906 0 L 51.628906 -59.039062 C 51.628906 -69.9375 54.28125 -78.261719 59.582031 -84.011719 C 64.988281 -89.878906 72.09375 -92.808594 80.894531 -92.808594 C 89.15625 -92.808594 95.453125 -90.109375 99.78125 -84.710938 C 103.847656 -79.640625 105.878906 -72.359375 105.878906 -62.867188 L 105.878906 0 L 100.949219 0 L 100.949219 -4.929688 L 143.765625 -4.929688 L 143.765625 0 L 138.835938 0 L 138.835938 -69.855469 C 138.835938 -86.644531 134.710938 -99.066406 126.464844 -107.109375 C 118.183594 -115.191406 107.125 -119.230469 93.289062 -119.230469 Z M 93.289062 -119.230469 "/></g></g></g><g fill="#029ef8" fill-opacity="1"><g transform="translate(888.892786, 218.821959)"><g><path d="M 65.796875 -129.089844 C 87.304688 -129.089844 103.851562 -124.070312 115.445312 -114.027344 C 127.246094 -103.804688 133.144531 -88.40625 133.144531 -67.824219 L 133.144531 4.929688 L 83.402344 4.929688 L 83.402344 -15.773438 L 88.332031 -15.773438 L 92.707031 -13.503906 C 85.628906 0.136719 72.152344 6.957031 52.277344 6.957031 C 42.066406 6.957031 33.171875 5.144531 25.589844 1.515625 C 17.820312 -2.199219 11.914062 -7.277344 7.878906 -13.71875 C 3.847656 -20.152344 1.832031 -27.449219 1.832031 -35.601562 C 1.832031 -48.851562 6.945312 -59.160156 17.171875 -66.53125 C 26.898438 -73.535156 41.527344 -77.035156 61.066406 -77.035156 L 85.402344 -77.035156 L 85.402344 -72.105469 L 80.480469 -71.820312 C 80.195312 -76.753906 78.503906 -80.378906 75.410156 -82.695312 C 71.964844 -85.269531 66.65625 -86.558594 59.488281 -86.558594 C 54.132812 -86.558594 48.6875 -85.691406 43.15625 -83.964844 C 37.722656 -82.265625 33.140625 -79.953125 29.410156 -77.019531 L 24.644531 -73.273438 L 5.597656 -111.660156 L 9.207031 -114.066406 C 16.433594 -118.882812 25.164062 -122.601562 35.394531 -125.21875 C 45.484375 -127.796875 55.621094 -129.089844 65.796875 -129.089844 Z M 65.796875 -119.230469 C 56.445312 -119.230469 47.128906 -118.042969 37.839844 -115.667969 C 28.691406 -113.328125 20.972656 -110.058594 14.675781 -105.863281 L 11.941406 -109.964844 L 16.359375 -112.15625 L 30.78125 -83.085938 L 26.363281 -80.894531 L 23.320312 -84.769531 C 28 -88.449219 33.632812 -91.316406 40.214844 -93.375 C 46.703125 -95.402344 53.128906 -96.414062 59.488281 -96.414062 C 68.84375 -96.414062 76.117188 -94.472656 81.3125 -90.589844 C 86.855469 -86.445312 89.859375 -80.378906 90.324219 -72.394531 L 90.625 -67.179688 L 61.066406 -67.179688 C 43.648438 -67.179688 30.9375 -64.296875 22.9375 -58.53125 C 15.4375 -53.128906 11.6875 -45.488281 11.6875 -35.601562 C 11.6875 -29.335938 13.203125 -23.789062 16.230469 -18.953125 C 19.257812 -14.128906 23.792969 -10.269531 29.84375 -7.375 C 36.082031 -4.394531 43.558594 -2.902344 52.277344 -2.902344 C 68.15625 -2.902344 78.71875 -7.949219 83.957031 -18.042969 L 93.261719 -15.773438 L 93.261719 0 L 88.332031 0 L 88.332031 -4.929688 L 128.214844 -4.929688 L 128.214844 0 L 123.285156 0 L 123.285156 -67.824219 C 123.285156 -85.402344 118.519531 -98.320312 108.988281 -106.574219 C 99.25 -115.011719 84.851562 -119.230469 65.796875 -119.230469 Z M 64.21875 -29.941406 C 68.214844 -29.941406 71.6875 -30.882812 74.632812 -32.769531 C 77.441406 -34.566406 79.480469 -37.261719 80.757812 -40.855469 L 85.402344 -39.207031 L 80.472656 -39.207031 L 80.472656 -49.800781 L 85.402344 -49.800781 L 85.402344 -44.871094 L 66.925781 -44.871094 C 61.679688 -44.871094 57.914062 -44.109375 55.621094 -42.589844 C 53.972656 -41.5 53.152344 -39.773438 53.152344 -37.40625 C 53.152344 -35.242188 53.953125 -33.527344 55.558594 -32.261719 C 57.515625 -30.714844 60.402344 -29.941406 64.21875 -29.941406 Z M 64.21875 -20.082031 C 58.121094 -20.082031 53.199219 -21.5625 49.449219 -24.523438 C 45.34375 -27.761719 43.292969 -32.058594 43.292969 -37.40625 C 43.292969 -43.300781 45.585938 -47.769531 50.175781 -50.808594 C 54.117188 -53.421875 59.699219 -54.726562 66.925781 -54.726562 L 90.332031 -54.726562 L 90.332031 -38.359375 L 90.046875 -37.558594 C 88.019531 -31.839844 84.652344 -27.476562 79.945312 -24.464844 C 75.382812 -21.542969 70.140625 -20.082031 64.21875 -20.082031 Z M 64.21875 -20.082031 "/></g></g></g><g fill="#029ef8" fill-opacity="1"><g transform="translate(1021.389599, 218.821959)"><g/></g></g><g fill="#029ef8" fill-opacity="1"><g transform="translate(1077.948434, 218.821959)"><g><path d="M 49.347656 -117.429688 L -4.027344 -117.429688 L -4.027344 -162.664062 L 147.117188 -162.664062 L 147.117188 -117.429688 L 93.964844 -117.429688 L 93.964844 -122.355469 L 98.894531 -122.355469 L 98.894531 4.929688 L 44.417969 4.929688 L 44.417969 -122.355469 L 49.347656 -122.355469 Z M 54.277344 -127.285156 L 54.277344 0 L 49.347656 0 L 49.347656 -4.929688 L 93.964844 -4.929688 L 93.964844 0 L 89.035156 0 L 89.035156 -127.285156 L 142.1875 -127.285156 L 142.1875 -122.355469 L 137.257812 -122.355469 L 137.257812 -157.734375 L 142.1875 -157.734375 L 142.1875 -152.804688 L 0.902344 -152.804688 L 0.902344 -157.734375 L 5.832031 -157.734375 L 5.832031 -122.355469 L 0.902344 -122.355469 L 0.902344 -127.285156 Z M 54.277344 -127.285156 "/></g></g></g><g fill="#029ef8" fill-opacity="1"><g transform="translate(1212.022564, 218.821959)"><g><path d="M 50.652344 -110.527344 C 55.554688 -116.78125 61.910156 -121.464844 69.722656 -124.570312 C 77.292969 -127.582031 85.898438 -129.089844 95.542969 -129.089844 L 100.472656 -129.089844 L 100.472656 -80.097656 L 94.976562 -80.730469 C 91.257812 -81.160156 88.21875 -81.375 85.851562 -81.375 C 78.007812 -81.375 71.96875 -79.351562 67.742188 -75.304688 C 63.574219 -71.320312 61.488281 -64.917969 61.488281 -56.109375 L 61.488281 4.929688 L 8.816406 4.929688 L 8.816406 -127.0625 L 59.460938 -127.0625 L 59.460938 -107.484375 L 54.53125 -107.484375 Z M 49.601562 -93.207031 L 49.601562 -122.132812 L 54.53125 -122.132812 L 54.53125 -117.203125 L 13.746094 -117.203125 L 13.746094 -122.132812 L 18.675781 -122.132812 L 18.675781 0 L 13.746094 0 L 13.746094 -4.929688 L 56.558594 -4.929688 L 56.558594 0 L 51.628906 0 L 51.628906 -56.109375 C 51.628906 -67.726562 54.730469 -76.5 60.925781 -82.429688 C 67.0625 -88.296875 75.371094 -91.234375 85.851562 -91.234375 C 88.59375 -91.234375 92.011719 -90.996094 96.105469 -90.523438 L 95.542969 -85.628906 L 90.613281 -85.628906 L 90.613281 -124.160156 L 95.542969 -124.160156 L 95.542969 -119.230469 C 87.160156 -119.230469 79.765625 -117.957031 73.367188 -115.410156 C 67.203125 -112.960938 62.21875 -109.304688 58.410156 -104.445312 Z M 49.601562 -93.207031 "/></g></g></g><g fill="#029ef8" fill-opacity="1"><g transform="translate(1302.83236, 218.821959)"><g><path d="M 65.796875 -129.089844 C 87.304688 -129.089844 103.851562 -124.070312 115.445312 -114.027344 C 127.246094 -103.804688 133.144531 -88.40625 133.144531 -67.824219 L 133.144531 4.929688 L 83.402344 4.929688 L 83.402344 -15.773438 L 88.332031 -15.773438 L 92.707031 -13.503906 C 85.628906 0.136719 72.152344 6.957031 52.277344 6.957031 C 42.066406 6.957031 33.171875 5.144531 25.589844 1.515625 C 17.820312 -2.199219 11.914062 -7.277344 7.878906 -13.71875 C 3.847656 -20.152344 1.832031 -27.449219 1.832031 -35.601562 C 1.832031 -48.851562 6.945312 -59.160156 17.171875 -66.53125 C 26.898438 -73.535156 41.527344 -77.035156 61.066406 -77.035156 L 85.402344 -77.035156 L 85.402344 -72.105469 L 80.480469 -71.820312 C 80.195312 -76.753906 78.503906 -80.378906 75.410156 -82.695312 C 71.964844 -85.269531 66.65625 -86.558594 59.488281 -86.558594 C 54.132812 -86.558594 48.6875 -85.691406 43.15625 -83.964844 C 37.722656 -82.265625 33.140625 -79.953125 29.410156 -77.019531 L 24.644531 -73.273438 L 5.597656 -111.660156 L 9.207031 -114.066406 C 16.433594 -118.882812 25.164062 -122.601562 35.394531 -125.21875 C 45.484375 -127.796875 55.621094 -129.089844 65.796875 -129.089844 Z M 65.796875 -119.230469 C 56.445312 -119.230469 47.128906 -118.042969 37.839844 -115.667969 C 28.691406 -113.328125 20.972656 -110.058594 14.675781 -105.863281 L 11.941406 -109.964844 L 16.359375 -112.15625 L 30.78125 -83.085938 L 26.363281 -80.894531 L 23.320312 -84.769531 C 28 -88.449219 33.632812 -91.316406 40.214844 -93.375 C 46.703125 -95.402344 53.128906 -96.414062 59.488281 -96.414062 C 68.84375 -96.414062 76.117188 -94.472656 81.3125 -90.589844 C 86.855469 -86.445312 89.859375 -80.378906 90.324219 -72.394531 L 90.625 -67.179688 L 61.066406 -67.179688 C 43.648438 -67.179688 30.9375 -64.296875 22.9375 -58.53125 C 15.4375 -53.128906 11.6875 -45.488281 11.6875 -35.601562 C 11.6875 -29.335938 13.203125 -23.789062 16.230469 -18.953125 C 19.257812 -14.128906 23.792969 -10.269531 29.84375 -7.375 C 36.082031 -4.394531 43.558594 -2.902344 52.277344 -2.902344 C 68.15625 -2.902344 78.71875 -7.949219 83.957031 -18.042969 L 93.261719 -15.773438 L 93.261719 0 L 88.332031 0 L 88.332031 -4.929688 L 128.214844 -4.929688 L 128.214844 0 L 123.285156 0 L 123.285156 -67.824219 C 123.285156 -85.402344 118.519531 -98.320312 108.988281 -106.574219 C 99.25 -115.011719 84.851562 -119.230469 65.796875 -119.230469 Z M 64.21875 -29.941406 C 68.214844 -29.941406 71.6875 -30.882812 74.632812 -32.769531 C 77.441406 -34.566406 79.480469 -37.261719 80.757812 -40.855469 L 85.402344 -39.207031 L 80.472656 -39.207031 L 80.472656 -49.800781 L 85.402344 -49.800781 L 85.402344 -44.871094 L 66.925781 -44.871094 C 61.679688 -44.871094 57.914062 -44.109375 55.621094 -42.589844 C 53.972656 -41.5 53.152344 -39.773438 53.152344 -37.40625 C 53.152344 -35.242188 53.953125 -33.527344 55.558594 -32.261719 C 57.515625 -30.714844 60.402344 -29.941406 64.21875 -29.941406 Z M 64.21875 -20.082031 C 58.121094 -20.082031 53.199219 -21.5625 49.449219 -24.523438 C 45.34375 -27.761719 43.292969 -32.058594 43.292969 -37.40625 C 43.292969 -43.300781 45.585938 -47.769531 50.175781 -50.808594 C 54.117188 -53.421875 59.699219 -54.726562 66.925781 -54.726562 L 90.332031 -54.726562 L 90.332031 -38.359375 L 90.046875 -37.558594 C 88.019531 -31.839844 84.652344 -27.476562 79.945312 -24.464844 C 75.382812 -21.542969 70.140625 -20.082031 64.21875 -20.082031 Z M 64.21875 -20.082031 "/></g></g></g><g fill="#029ef8" fill-opacity="1"><g transform="translate(1435.329074, 218.821959)"><g><path d="M 148.46875 -167.199219 L 148.46875 4.929688 L 97.824219 4.929688 L 97.824219 -12.167969 L 102.753906 -12.167969 L 106.523438 -8.996094 C 97.578125 1.640625 84.378906 6.957031 66.925781 6.957031 C 54.941406 6.957031 43.996094 4.152344 34.078125 -1.457031 C 24.109375 -7.09375 16.230469 -15.125 10.449219 -25.550781 C 4.703125 -35.910156 1.832031 -47.820312 1.832031 -61.292969 C 1.832031 -74.765625 4.707031 -86.648438 10.457031 -96.933594 C 16.246094 -107.285156 24.128906 -115.242188 34.105469 -120.804688 C 44.015625 -126.328125 54.953125 -129.089844 66.925781 -129.089844 C 82.910156 -129.089844 95.371094 -124.367188 104.304688 -114.929688 L 100.726562 -111.539062 L 95.796875 -111.539062 L 95.796875 -172.128906 L 148.46875 -172.128906 Z M 138.609375 -167.199219 L 143.539062 -167.199219 L 143.539062 -162.269531 L 100.726562 -162.269531 L 100.726562 -167.199219 L 105.652344 -167.199219 L 105.652344 -99.160156 L 97.144531 -108.152344 C 90.15625 -115.539062 80.082031 -119.230469 66.925781 -119.230469 C 56.660156 -119.230469 47.320312 -116.882812 38.902344 -112.191406 C 30.554688 -107.539062 23.941406 -100.847656 19.0625 -92.121094 C 14.148438 -83.332031 11.6875 -73.054688 11.6875 -61.292969 C 11.6875 -49.523438 14.148438 -39.203125 19.070312 -30.332031 C 23.953125 -21.527344 30.574219 -14.761719 38.929688 -10.035156 C 47.339844 -5.28125 56.671875 -2.902344 66.925781 -2.902344 C 81.320312 -2.902344 92.003906 -7.046875 98.980469 -15.339844 L 107.683594 -25.683594 L 107.683594 0 L 102.753906 0 L 102.753906 -4.929688 L 143.539062 -4.929688 L 143.539062 0 L 138.609375 0 Z M 75.9375 -36.925781 C 81.863281 -36.925781 86.746094 -38.992188 90.574219 -43.125 C 94.507812 -47.359375 96.472656 -53.417969 96.472656 -61.292969 C 96.472656 -69.015625 94.542969 -74.960938 90.6875 -79.121094 C 86.929688 -83.175781 82.015625 -85.203125 75.9375 -85.203125 C 69.847656 -85.203125 64.882812 -83.167969 61.050781 -79.09375 C 57.136719 -74.9375 55.179688 -69 55.179688 -61.292969 C 55.179688 -53.417969 57.144531 -47.359375 61.074219 -43.125 C 64.90625 -38.992188 69.859375 -36.925781 75.9375 -36.925781 Z M 75.9375 -27.066406 C 66.992188 -27.066406 59.628906 -30.183594 53.847656 -36.417969 C 48.164062 -42.546875 45.320312 -50.839844 45.320312 -61.292969 C 45.320312 -71.609375 48.171875 -79.792969 53.871094 -85.851562 C 59.652344 -91.992188 67.007812 -95.0625 75.9375 -95.0625 C 84.882812 -95.0625 92.210938 -91.984375 97.917969 -85.824219 C 103.527344 -79.769531 106.332031 -71.59375 106.332031 -61.292969 C 106.332031 -50.839844 103.488281 -42.546875 97.804688 -36.417969 C 92.023438 -30.183594 84.734375 -27.066406 75.9375 -27.066406 Z M 75.9375 -27.066406 "/></g></g></g><g fill="#029ef8" fill-opacity="1"><g transform="translate(1583.599269, 218.821959)"><g><path d="M 147.117188 -122.132812 L 147.117188 4.929688 L 96.472656 4.929688 L 96.472656 -13.070312 L 101.402344 -13.070312 L 105.046875 -9.753906 C 100.039062 -4.242188 94.03125 -0.0703125 87.027344 2.765625 C 80.125 5.558594 72.820312 6.957031 65.121094 6.957031 C 47.996094 6.957031 34.257812 1.824219 23.90625 -8.441406 C 13.546875 -18.722656 8.367188 -33.859375 8.367188 -53.855469 L 8.367188 -127.0625 L 61.039062 -127.0625 L 61.039062 -60.839844 C 61.039062 -52.855469 62.390625 -47.210938 65.101562 -43.914062 C 67.570312 -40.910156 71.332031 -39.40625 76.386719 -39.40625 C 81.691406 -39.40625 85.992188 -41.230469 89.296875 -44.882812 C 92.726562 -48.675781 94.445312 -54.820312 94.445312 -63.320312 L 94.445312 -127.0625 L 147.117188 -127.0625 Z M 137.257812 -122.132812 L 142.1875 -122.132812 L 142.1875 -117.203125 L 99.371094 -117.203125 L 99.371094 -122.132812 L 104.300781 -122.132812 L 104.300781 -63.320312 C 104.300781 -52.289062 101.738281 -43.9375 96.605469 -38.265625 C 91.347656 -32.453125 84.605469 -29.546875 76.386719 -29.546875 C 68.226562 -29.546875 61.921875 -32.25 57.480469 -37.65625 C 53.28125 -42.773438 51.179688 -50.5 51.179688 -60.839844 L 51.179688 -122.132812 L 56.109375 -122.132812 L 56.109375 -117.203125 L 13.292969 -117.203125 L 13.292969 -122.132812 L 18.222656 -122.132812 L 18.222656 -53.855469 C 18.222656 -36.597656 22.433594 -23.792969 30.851562 -15.441406 C 39.277344 -7.082031 50.703125 -2.902344 65.121094 -2.902344 C 71.542969 -2.902344 77.609375 -4.058594 83.328125 -6.371094 C 88.941406 -8.644531 93.75 -11.980469 97.753906 -16.386719 L 106.332031 -25.820312 L 106.332031 0 L 101.402344 0 L 101.402344 -4.929688 L 142.1875 -4.929688 L 142.1875 0 L 137.257812 0 Z M 137.257812 -122.132812 "/></g></g></g><g fill="#029ef8" fill-opacity="1"><g transform="translate(1730.517461, 218.821959)"><g><path d="M 76.164062 6.957031 C 61.859375 6.957031 49.023438 4.074219 37.65625 -1.6875 C 26.164062 -7.515625 17.210938 -15.628906 10.789062 -26.027344 C 4.367188 -36.4375 1.15625 -48.191406 1.15625 -61.292969 C 1.15625 -74.398438 4.371094 -86.121094 10.800781 -96.457031 C 17.222656 -106.785156 26.183594 -114.820312 37.679688 -120.570312 C 49.039062 -126.25 61.867188 -129.089844 76.164062 -129.089844 C 90.878906 -129.089844 103.65625 -125.894531 114.496094 -119.503906 C 125.527344 -113.003906 133.351562 -103.972656 137.976562 -92.414062 L 139.644531 -88.238281 L 98.113281 -67.046875 L 95.878906 -71.457031 C 93.484375 -76.179688 90.609375 -79.671875 87.261719 -81.9375 C 84.039062 -84.117188 80.265625 -85.203125 75.9375 -85.203125 C 69.652344 -85.203125 64.476562 -83.140625 60.410156 -79.011719 C 56.320312 -74.863281 54.277344 -68.957031 54.277344 -61.292969 C 54.277344 -53.460938 56.328125 -47.433594 60.433594 -43.207031 C 64.496094 -39.019531 69.667969 -36.925781 75.9375 -36.925781 C 80.265625 -36.925781 84.039062 -38.015625 87.261719 -40.195312 C 90.609375 -42.457031 93.484375 -45.953125 95.878906 -50.675781 L 98.113281 -55.085938 L 139.644531 -33.894531 L 137.976562 -29.714844 C 133.351562 -18.160156 125.527344 -9.128906 114.496094 -2.625 C 103.65625 3.761719 90.878906 6.957031 76.164062 6.957031 Z M 76.164062 -2.902344 C 89.085938 -2.902344 100.195312 -5.640625 109.488281 -11.117188 C 118.585938 -16.484375 125.03125 -23.902344 128.820312 -33.378906 L 133.398438 -31.546875 L 131.160156 -27.15625 L 98.035156 -44.054688 L 100.273438 -48.445312 L 104.671875 -46.21875 C 101.507812 -39.976562 97.542969 -35.246094 92.78125 -32.027344 C 87.890625 -28.722656 82.277344 -27.066406 75.9375 -27.066406 C 66.886719 -27.066406 59.359375 -30.15625 53.359375 -36.335938 C 47.398438 -42.476562 44.417969 -50.792969 44.417969 -61.292969 C 44.417969 -71.652344 47.40625 -79.867188 53.386719 -85.933594 C 59.382812 -92.019531 66.902344 -95.0625 75.9375 -95.0625 C 82.277344 -95.0625 87.890625 -93.410156 92.78125 -90.105469 C 97.542969 -86.886719 101.507812 -82.15625 104.671875 -75.914062 L 100.273438 -73.683594 L 98.035156 -78.074219 L 131.160156 -94.976562 L 133.398438 -90.585938 L 128.820312 -88.753906 C 125.03125 -98.230469 118.585938 -105.648438 109.488281 -111.011719 C 100.195312 -116.492188 89.085938 -119.230469 76.164062 -119.230469 C 63.417969 -119.230469 52.0625 -116.738281 42.089844 -111.75 C 32.253906 -106.832031 24.613281 -100 19.171875 -91.25 C 13.730469 -82.507812 11.011719 -72.519531 11.011719 -61.292969 C 11.011719 -50.054688 13.734375 -40.027344 19.179688 -31.207031 C 24.628906 -22.378906 32.273438 -15.46875 42.113281 -10.480469 C 52.078125 -5.425781 63.429688 -2.902344 76.164062 -2.902344 Z M 76.164062 -2.902344 "/></g></g></g><g fill="#029ef8" fill-opacity="1"><g transform="translate(1857.380853, 218.821959)"><g><path d="M 13.746094 -127.0625 L 61.488281 -127.0625 L 61.488281 4.929688 L 8.816406 4.929688 L 8.816406 -127.0625 Z M 13.746094 -117.203125 L 13.746094 -122.132812 L 18.675781 -122.132812 L 18.675781 0 L 13.746094 0 L 13.746094 -4.929688 L 56.558594 -4.929688 L 56.558594 0 L 51.628906 0 L 51.628906 -122.132812 L 56.558594 -122.132812 L 56.558594 -117.203125 Z M 35.152344 -130.722656 C 26.074219 -130.722656 18.660156 -133.328125 12.914062 -138.535156 C 7.027344 -143.867188 4.085938 -150.496094 4.085938 -158.410156 C 4.085938 -166.328125 7.027344 -172.953125 12.914062 -178.289062 C 18.660156 -183.496094 26.074219 -186.097656 35.152344 -186.097656 C 44.183594 -186.097656 51.5625 -183.636719 57.292969 -178.710938 C 63.246094 -173.597656 66.21875 -167.054688 66.21875 -159.085938 C 66.21875 -150.886719 63.289062 -144.082031 57.421875 -138.675781 C 51.671875 -133.375 44.246094 -130.722656 35.152344 -130.722656 Z M 35.152344 -140.582031 C 41.679688 -140.582031 46.875 -142.363281 50.738281 -145.921875 C 54.488281 -149.378906 56.363281 -153.765625 56.363281 -159.085938 C 56.363281 -164.039062 54.53125 -168.085938 50.867188 -171.234375 C 46.984375 -174.570312 41.746094 -176.242188 35.152344 -176.242188 C 28.609375 -176.242188 23.402344 -174.488281 19.535156 -170.980469 C 15.804688 -167.605469 13.941406 -163.414062 13.941406 -158.410156 C 13.941406 -153.40625 15.804688 -149.21875 19.535156 -145.839844 C 23.402344 -142.332031 28.609375 -140.582031 35.152344 -140.582031 Z M 35.152344 -140.582031 "/></g></g></g><g fill="#029ef8" fill-opacity="1"><g transform="translate(1918.897157, 218.821959)"><g><path d="M 148.46875 -167.199219 L 148.46875 4.929688 L 97.824219 4.929688 L 97.824219 -12.167969 L 102.753906 -12.167969 L 106.523438 -8.996094 C 97.578125 1.640625 84.378906 6.957031 66.925781 6.957031 C 54.941406 6.957031 43.996094 4.152344 34.078125 -1.457031 C 24.109375 -7.09375 16.230469 -15.125 10.449219 -25.550781 C 4.703125 -35.910156 1.832031 -47.820312 1.832031 -61.292969 C 1.832031 -74.765625 4.707031 -86.648438 10.457031 -96.933594 C 16.246094 -107.285156 24.128906 -115.242188 34.105469 -120.804688 C 44.015625 -126.328125 54.953125 -129.089844 66.925781 -129.089844 C 82.910156 -129.089844 95.371094 -124.367188 104.304688 -114.929688 L 100.726562 -111.539062 L 95.796875 -111.539062 L 95.796875 -172.128906 L 148.46875 -172.128906 Z M 138.609375 -167.199219 L 143.539062 -167.199219 L 143.539062 -162.269531 L 100.726562 -162.269531 L 100.726562 -167.199219 L 105.652344 -167.199219 L 105.652344 -99.160156 L 97.144531 -108.152344 C 90.15625 -115.539062 80.082031 -119.230469 66.925781 -119.230469 C 56.660156 -119.230469 47.320312 -116.882812 38.902344 -112.191406 C 30.554688 -107.539062 23.941406 -100.847656 19.0625 -92.121094 C 14.148438 -83.332031 11.6875 -73.054688 11.6875 -61.292969 C 11.6875 -49.523438 14.148438 -39.203125 19.070312 -30.332031 C 23.953125 -21.527344 30.574219 -14.761719 38.929688 -10.035156 C 47.339844 -5.28125 56.671875 -2.902344 66.925781 -2.902344 C 81.320312 -2.902344 92.003906 -7.046875 98.980469 -15.339844 L 107.683594 -25.683594 L 107.683594 0 L 102.753906 0 L 102.753906 -4.929688 L 143.539062 -4.929688 L 143.539062 0 L 138.609375 0 Z M 75.9375 -36.925781 C 81.863281 -36.925781 86.746094 -38.992188 90.574219 -43.125 C 94.507812 -47.359375 96.472656 -53.417969 96.472656 -61.292969 C 96.472656 -69.015625 94.542969 -74.960938 90.6875 -79.121094 C 86.929688 -83.175781 82.015625 -85.203125 75.9375 -85.203125 C 69.847656 -85.203125 64.882812 -83.167969 61.050781 -79.09375 C 57.136719 -74.9375 55.179688 -69 55.179688 -61.292969 C 55.179688 -53.417969 57.144531 -47.359375 61.074219 -43.125 C 64.90625 -38.992188 69.859375 -36.925781 75.9375 -36.925781 Z M 75.9375 -27.066406 C 66.992188 -27.066406 59.628906 -30.183594 53.847656 -36.417969 C 48.164062 -42.546875 45.320312 -50.839844 45.320312 -61.292969 C 45.320312 -71.609375 48.171875 -79.792969 53.871094 -85.851562 C 59.652344 -91.992188 67.007812 -95.0625 75.9375 -95.0625 C 84.882812 -95.0625 92.210938 -91.984375 97.917969 -85.824219 C 103.527344 -79.769531 106.332031 -71.59375 106.332031 -61.292969 C 106.332031 -50.839844 103.488281 -42.546875 97.804688 -36.417969 C 92.023438 -30.183594 84.734375 -27.066406 75.9375 -27.066406 Z M 75.9375 -27.066406 "/></g></g></g><g fill="#029ef8" fill-opacity="1"><g transform="translate(2067.167255, 218.821959)"><g><path d="M 65.796875 -129.089844 C 87.304688 -129.089844 103.851562 -124.070312 115.445312 -114.027344 C 127.246094 -103.804688 133.144531 -88.40625 133.144531 -67.824219 L 133.144531 4.929688 L 83.402344 4.929688 L 83.402344 -15.773438 L 88.332031 -15.773438 L 92.707031 -13.503906 C 85.628906 0.136719 72.152344 6.957031 52.277344 6.957031 C 42.066406 6.957031 33.171875 5.144531 25.589844 1.515625 C 17.820312 -2.199219 11.914062 -7.277344 7.878906 -13.71875 C 3.847656 -20.152344 1.832031 -27.449219 1.832031 -35.601562 C 1.832031 -48.851562 6.945312 -59.160156 17.171875 -66.53125 C 26.898438 -73.535156 41.527344 -77.035156 61.066406 -77.035156 L 85.402344 -77.035156 L 85.402344 -72.105469 L 80.480469 -71.820312 C 80.195312 -76.753906 78.503906 -80.378906 75.410156 -82.695312 C 71.964844 -85.269531 66.65625 -86.558594 59.488281 -86.558594 C 54.132812 -86.558594 48.6875 -85.691406 43.15625 -83.964844 C 37.722656 -82.265625 33.140625 -79.953125 29.410156 -77.019531 L 24.644531 -73.273438 L 5.597656 -111.660156 L 9.207031 -114.066406 C 16.433594 -118.882812 25.164062 -122.601562 35.394531 -125.21875 C 45.484375 -127.796875 55.621094 -129.089844 65.796875 -129.089844 Z M 65.796875 -119.230469 C 56.445312 -119.230469 47.128906 -118.042969 37.839844 -115.667969 C 28.691406 -113.328125 20.972656 -110.058594 14.675781 -105.863281 L 11.941406 -109.964844 L 16.359375 -112.15625 L 30.78125 -83.085938 L 26.363281 -80.894531 L 23.320312 -84.769531 C 28 -88.449219 33.632812 -91.316406 40.214844 -93.375 C 46.703125 -95.402344 53.128906 -96.414062 59.488281 -96.414062 C 68.84375 -96.414062 76.117188 -94.472656 81.3125 -90.589844 C 86.855469 -86.445312 89.859375 -80.378906 90.324219 -72.394531 L 90.625 -67.179688 L 61.066406 -67.179688 C 43.648438 -67.179688 30.9375 -64.296875 22.9375 -58.53125 C 15.4375 -53.128906 11.6875 -45.488281 11.6875 -35.601562 C 11.6875 -29.335938 13.203125 -23.789062 16.230469 -18.953125 C 19.257812 -14.128906 23.792969 -10.269531 29.84375 -7.375 C 36.082031 -4.394531 43.558594 -2.902344 52.277344 -2.902344 C 68.15625 -2.902344 78.71875 -7.949219 83.957031 -18.042969 L 93.261719 -15.773438 L 93.261719 0 L 88.332031 0 L 88.332031 -4.929688 L 128.214844 -4.929688 L 128.214844 0 L 123.285156 0 L 123.285156 -67.824219 C 123.285156 -85.402344 118.519531 -98.320312 108.988281 -106.574219 C 99.25 -115.011719 84.851562 -119.230469 65.796875 -119.230469 Z M 64.21875 -29.941406 C 68.214844 -29.941406 71.6875 -30.882812 74.632812 -32.769531 C 77.441406 -34.566406 79.480469 -37.261719 80.757812 -40.855469 L 85.402344 -39.207031 L 80.472656 -39.207031 L 80.472656 -49.800781 L 85.402344 -49.800781 L 85.402344 -44.871094 L 66.925781 -44.871094 C 61.679688 -44.871094 57.914062 -44.109375 55.621094 -42.589844 C 53.972656 -41.5 53.152344 -39.773438 53.152344 -37.40625 C 53.152344 -35.242188 53.953125 -33.527344 55.558594 -32.261719 C 57.515625 -30.714844 60.402344 -29.941406 64.21875 -29.941406 Z M 64.21875 -20.082031 C 58.121094 -20.082031 53.199219 -21.5625 49.449219 -24.523438 C 45.34375 -27.761719 43.292969 -32.058594 43.292969 -37.40625 C 43.292969 -43.300781 45.585938 -47.769531 50.175781 -50.808594 C 54.117188 -53.421875 59.699219 -54.726562 66.925781 -54.726562 L 90.332031 -54.726562 L 90.332031 -38.359375 L 90.046875 -37.558594 C 88.019531 -31.839844 84.652344 -27.476562 79.945312 -24.464844 C 75.382812 -21.542969 70.140625 -20.082031 64.21875 -20.082031 Z M 64.21875 -20.082031 "/></g></g></g><g fill="#ffffff" fill-opacity="1"><g transform="translate(1.299876, 218.821959)"><g><path d="M 158.1875 0 L 157.734375 -83.59375 L 117.171875 -15.546875 L 97.34375 -15.546875 L 57.015625 -81.34375 L 57.015625 0 L 15.765625 0 L 15.765625 -157.734375 L 52.5 -157.734375 L 107.9375 -66.703125 L 162.015625 -157.734375 L 198.734375 -157.734375 L 199.1875 0 Z M 158.1875 0 "/></g></g></g><g fill="#ffffff" fill-opacity="1"><g transform="translate(207.255782, 218.821959)"><g><path d="M 138.578125 -60.84375 C 138.578125 -60.539062 138.351562 -57.007812 137.90625 -50.25 L 49.125 -50.25 C 50.925781 -43.9375 54.414062 -39.085938 59.59375 -35.703125 C 64.78125 -32.328125 71.28125 -30.640625 79.09375 -30.640625 C 84.945312 -30.640625 90.015625 -31.46875 94.296875 -33.125 C 98.578125 -34.78125 102.894531 -37.484375 107.25 -41.234375 L 129.78125 -17.796875 C 117.914062 -4.578125 100.566406 2.03125 77.734375 2.03125 C 63.460938 2.03125 50.921875 -0.671875 40.109375 -6.078125 C 29.296875 -11.492188 20.921875 -19.003906 14.984375 -28.609375 C 9.046875 -38.222656 6.078125 -49.117188 6.078125 -61.296875 C 6.078125 -73.304688 8.96875 -84.082031 14.75 -93.625 C 20.539062 -103.164062 28.539062 -110.640625 38.75 -116.046875 C 48.96875 -121.453125 60.460938 -124.15625 73.234375 -124.15625 C 85.398438 -124.15625 96.441406 -121.640625 106.359375 -116.609375 C 116.273438 -111.578125 124.125 -104.289062 129.90625 -94.75 C 135.6875 -85.207031 138.578125 -73.90625 138.578125 -60.84375 Z M 73.453125 -93.734375 C 66.847656 -93.734375 61.328125 -91.851562 56.890625 -88.09375 C 52.460938 -84.34375 49.648438 -79.238281 48.453125 -72.78125 L 98.46875 -72.78125 C 97.269531 -79.238281 94.453125 -84.34375 90.015625 -88.09375 C 85.585938 -91.851562 80.066406 -93.734375 73.453125 -93.734375 Z M 73.453125 -93.734375 "/></g></g></g><g fill="#ffffff" fill-opacity="1"><g transform="translate(342.907229, 218.821959)"><g><path d="M 143.53125 -167.1875 L 143.53125 0 L 102.75 0 L 102.75 -12.171875 C 94.789062 -2.703125 82.847656 2.03125 66.921875 2.03125 C 55.804688 2.03125 45.664062 -0.554688 36.5 -5.734375 C 27.34375 -10.921875 20.097656 -18.320312 14.765625 -27.9375 C 9.429688 -37.550781 6.765625 -48.671875 6.765625 -61.296875 C 6.765625 -73.910156 9.429688 -84.984375 14.765625 -94.515625 C 20.097656 -104.054688 27.34375 -111.378906 36.5 -116.484375 C 45.664062 -121.597656 55.804688 -124.15625 66.921875 -124.15625 C 81.492188 -124.15625 92.757812 -119.945312 100.71875 -111.53125 L 100.71875 -167.1875 Z M 75.9375 -32 C 83.300781 -32 89.382812 -34.585938 94.1875 -39.765625 C 98.988281 -44.953125 101.390625 -52.128906 101.390625 -61.296875 C 101.390625 -70.304688 99.023438 -77.363281 94.296875 -82.46875 C 89.566406 -87.570312 83.445312 -90.125 75.9375 -90.125 C 68.425781 -90.125 62.265625 -87.570312 57.453125 -82.46875 C 52.648438 -77.363281 50.25 -70.304688 50.25 -61.296875 C 50.25 -52.128906 52.648438 -44.953125 57.453125 -39.765625 C 62.265625 -34.585938 68.425781 -32 75.9375 -32 Z M 75.9375 -32 "/></g></g></g><g fill="#ffffff" fill-opacity="1"><g transform="translate(491.177375, 218.821959)"><g><path d="M 13.75 -122.125 L 56.5625 -122.125 L 56.5625 0 L 13.75 0 Z M 35.15625 -135.640625 C 27.34375 -135.640625 21.03125 -137.816406 16.21875 -142.171875 C 11.414062 -146.535156 9.015625 -151.945312 9.015625 -158.40625 C 9.015625 -164.863281 11.414062 -170.269531 16.21875 -174.625 C 21.03125 -178.976562 27.34375 -181.15625 35.15625 -181.15625 C 42.96875 -181.15625 49.273438 -179.085938 54.078125 -174.953125 C 58.890625 -170.828125 61.296875 -165.535156 61.296875 -159.078125 C 61.296875 -152.316406 58.890625 -146.71875 54.078125 -142.28125 C 49.273438 -137.851562 42.96875 -135.640625 35.15625 -135.640625 Z M 35.15625 -135.640625 "/></g></g></g><g fill="#ffffff" fill-opacity="1"><g transform="translate(552.69363, 218.821959)"><g><path d="M 76.15625 2.03125 C 62.632812 2.03125 50.539062 -0.671875 39.875 -6.078125 C 29.21875 -11.492188 20.921875 -19.003906 14.984375 -28.609375 C 9.046875 -38.222656 6.078125 -49.117188 6.078125 -61.296875 C 6.078125 -73.460938 9.046875 -84.3125 14.984375 -93.84375 C 20.921875 -103.382812 29.21875 -110.820312 39.875 -116.15625 C 50.539062 -121.488281 62.632812 -124.15625 76.15625 -124.15625 C 89.976562 -124.15625 101.921875 -121.1875 111.984375 -115.25 C 122.046875 -109.320312 129.179688 -101.097656 133.390625 -90.578125 L 100.265625 -73.6875 C 94.710938 -84.644531 86.601562 -90.125 75.9375 -90.125 C 68.269531 -90.125 61.921875 -87.570312 56.890625 -82.46875 C 51.859375 -77.363281 49.34375 -70.304688 49.34375 -61.296875 C 49.34375 -52.128906 51.859375 -44.953125 56.890625 -39.765625 C 61.921875 -34.585938 68.269531 -32 75.9375 -32 C 86.601562 -32 94.710938 -37.484375 100.265625 -48.453125 L 133.390625 -31.546875 C 129.179688 -21.023438 122.046875 -12.796875 111.984375 -6.859375 C 101.921875 -0.929688 89.976562 2.03125 76.15625 2.03125 Z M 76.15625 2.03125 "/></g></g></g><g fill="#ffffff" fill-opacity="1"><g transform="translate(679.557023, 218.821959)"><g><path d="M 13.75 -122.125 L 56.5625 -122.125 L 56.5625 0 L 13.75 0 Z M 35.15625 -135.640625 C 27.34375 -135.640625 21.03125 -137.816406 16.21875 -142.171875 C 11.414062 -146.535156 9.015625 -151.945312 9.015625 -158.40625 C 9.015625 -164.863281 11.414062 -170.269531 16.21875 -174.625 C 21.03125 -178.976562 27.34375 -181.15625 35.15625 -181.15625 C 42.96875 -181.15625 49.273438 -179.085938 54.078125 -174.953125 C 58.890625 -170.828125 61.296875 -165.535156 61.296875 -159.078125 C 61.296875 -152.316406 58.890625 -146.71875 54.078125 -142.28125 C 49.273438 -137.851562 42.96875 -135.640625 35.15625 -135.640625 Z M 35.15625 -135.640625 "/></g></g></g><g fill="#ffffff" fill-opacity="1"><g transform="translate(741.073326, 218.821959)"><g><path d="M 93.28125 -124.15625 C 108.457031 -124.15625 120.664062 -119.644531 129.90625 -110.625 C 139.144531 -101.613281 143.765625 -88.023438 143.765625 -69.859375 L 143.765625 0 L 100.953125 0 L 100.953125 -62.859375 C 100.953125 -79.535156 94.265625 -87.875 80.890625 -87.875 C 73.535156 -87.875 67.640625 -85.46875 63.203125 -80.65625 C 58.773438 -75.851562 56.5625 -68.644531 56.5625 -59.03125 L 56.5625 0 L 13.75 0 L 13.75 -122.125 L 54.53125 -122.125 L 54.53125 -108.828125 C 59.332031 -113.785156 65.035156 -117.578125 71.640625 -120.203125 C 78.253906 -122.835938 85.46875 -124.15625 93.28125 -124.15625 Z M 93.28125 -124.15625 "/></g></g></g><g fill="#ffffff" fill-opacity="1"><g transform="translate(888.892786, 218.821959)"><g><path d="M 65.796875 -124.15625 C 86.078125 -124.15625 101.550781 -119.535156 112.21875 -110.296875 C 122.882812 -101.054688 128.21875 -86.898438 128.21875 -67.828125 L 128.21875 0 L 88.328125 0 L 88.328125 -15.765625 C 82.171875 -3.898438 70.15625 2.03125 52.28125 2.03125 C 42.8125 2.03125 34.617188 0.378906 27.703125 -2.921875 C 20.796875 -6.234375 15.578125 -10.703125 12.046875 -16.328125 C 8.523438 -21.960938 6.765625 -28.390625 6.765625 -35.609375 C 6.765625 -47.171875 11.191406 -56.144531 20.046875 -62.53125 C 28.910156 -68.914062 42.582031 -72.109375 61.0625 -72.109375 L 85.40625 -72.109375 C 84.644531 -85.023438 76.003906 -91.484375 59.484375 -91.484375 C 53.628906 -91.484375 47.695312 -90.539062 41.6875 -88.65625 C 35.675781 -86.78125 30.566406 -84.191406 26.359375 -80.890625 L 11.9375 -109.953125 C 18.695312 -114.460938 26.921875 -117.957031 36.609375 -120.4375 C 46.304688 -122.914062 56.035156 -124.15625 65.796875 -124.15625 Z M 64.21875 -25.015625 C 69.175781 -25.015625 73.53125 -26.210938 77.28125 -28.609375 C 81.039062 -31.015625 83.75 -34.546875 85.40625 -39.203125 L 85.40625 -49.796875 L 66.921875 -49.796875 C 54.453125 -49.796875 48.21875 -45.664062 48.21875 -37.40625 C 48.21875 -33.644531 49.644531 -30.640625 52.5 -28.390625 C 55.351562 -26.140625 59.257812 -25.015625 64.21875 -25.015625 Z M 64.21875 -25.015625 "/></g></g></g><g fill="#ffffff" fill-opacity="1"><g transform="translate(1021.389599, 218.821959)"><g/></g></g><g fill="#ffffff" fill-opacity="1"><g transform="translate(1077.948434, 218.821959)"><g><path d="M 49.34375 -122.359375 L 0.90625 -122.359375 L 0.90625 -157.734375 L 142.1875 -157.734375 L 142.1875 -122.359375 L 93.96875 -122.359375 L 93.96875 0 L 49.34375 0 Z M 49.34375 -122.359375 "/></g></g></g><g fill="#ffffff" fill-opacity="1"><g transform="translate(1212.022564, 218.821959)"><g><path d="M 54.53125 -107.484375 C 58.882812 -113.035156 64.550781 -117.203125 71.53125 -119.984375 C 78.519531 -122.765625 86.523438 -124.15625 95.546875 -124.15625 L 95.546875 -85.625 C 91.640625 -86.070312 88.40625 -86.296875 85.84375 -86.296875 C 76.6875 -86.296875 69.515625 -83.816406 64.328125 -78.859375 C 59.148438 -73.898438 56.5625 -66.316406 56.5625 -56.109375 L 56.5625 0 L 13.75 0 L 13.75 -122.125 L 54.53125 -122.125 Z M 54.53125 -107.484375 "/></g></g></g><g fill="#ffffff" fill-opacity="1"><g transform="translate(1302.83236, 218.821959)"><g><path d="M 65.796875 -124.15625 C 86.078125 -124.15625 101.550781 -119.535156 112.21875 -110.296875 C 122.882812 -101.054688 128.21875 -86.898438 128.21875 -67.828125 L 128.21875 0 L 88.328125 0 L 88.328125 -15.765625 C 82.171875 -3.898438 70.15625 2.03125 52.28125 2.03125 C 42.8125 2.03125 34.617188 0.378906 27.703125 -2.921875 C 20.796875 -6.234375 15.578125 -10.703125 12.046875 -16.328125 C 8.523438 -21.960938 6.765625 -28.390625 6.765625 -35.609375 C 6.765625 -47.171875 11.191406 -56.144531 20.046875 -62.53125 C 28.910156 -68.914062 42.582031 -72.109375 61.0625 -72.109375 L 85.40625 -72.109375 C 84.644531 -85.023438 76.003906 -91.484375 59.484375 -91.484375 C 53.628906 -91.484375 47.695312 -90.539062 41.6875 -88.65625 C 35.675781 -86.78125 30.566406 -84.191406 26.359375 -80.890625 L 11.9375 -109.953125 C 18.695312 -114.460938 26.921875 -117.957031 36.609375 -120.4375 C 46.304688 -122.914062 56.035156 -124.15625 65.796875 -124.15625 Z M 64.21875 -25.015625 C 69.175781 -25.015625 73.53125 -26.210938 77.28125 -28.609375 C 81.039062 -31.015625 83.75 -34.546875 85.40625 -39.203125 L 85.40625 -49.796875 L 66.921875 -49.796875 C 54.453125 -49.796875 48.21875 -45.664062 48.21875 -37.40625 C 48.21875 -33.644531 49.644531 -30.640625 52.5 -28.390625 C 55.351562 -26.140625 59.257812 -25.015625 64.21875 -25.015625 Z M 64.21875 -25.015625 "/></g></g></g><g fill="#ffffff" fill-opacity="1"><g transform="translate(1435.329074, 218.821959)"><g><path d="M 143.53125 -167.1875 L 143.53125 0 L 102.75 0 L 102.75 -12.171875 C 94.789062 -2.703125 82.847656 2.03125 66.921875 2.03125 C 55.804688 2.03125 45.664062 -0.554688 36.5 -5.734375 C 27.34375 -10.921875 20.097656 -18.320312 14.765625 -27.9375 C 9.429688 -37.550781 6.765625 -48.671875 6.765625 -61.296875 C 6.765625 -73.910156 9.429688 -84.984375 14.765625 -94.515625 C 20.097656 -104.054688 27.34375 -111.378906 36.5 -116.484375 C 45.664062 -121.597656 55.804688 -124.15625 66.921875 -124.15625 C 81.492188 -124.15625 92.757812 -119.945312 100.71875 -111.53125 L 100.71875 -167.1875 Z M 75.9375 -32 C 83.300781 -32 89.382812 -34.585938 94.1875 -39.765625 C 98.988281 -44.953125 101.390625 -52.128906 101.390625 -61.296875 C 101.390625 -70.304688 99.023438 -77.363281 94.296875 -82.46875 C 89.566406 -87.570312 83.445312 -90.125 75.9375 -90.125 C 68.425781 -90.125 62.265625 -87.570312 57.453125 -82.46875 C 52.648438 -77.363281 50.25 -70.304688 50.25 -61.296875 C 50.25 -52.128906 52.648438 -44.953125 57.453125 -39.765625 C 62.265625 -34.585938 68.425781 -32 75.9375 -32 Z M 75.9375 -32 "/></g></g></g><g fill="#ffffff" fill-opacity="1"><g transform="translate(1583.599269, 218.821959)"><g><path d="M 142.1875 -122.125 L 142.1875 0 L 101.390625 0 L 101.390625 -13.0625 C 96.890625 -8.113281 91.484375 -4.359375 85.171875 -1.796875 C 78.859375 0.753906 72.175781 2.03125 65.125 2.03125 C 49.34375 2.03125 36.757812 -2.625 27.375 -11.9375 C 17.988281 -21.25 13.296875 -35.222656 13.296875 -53.859375 L 13.296875 -122.125 L 56.109375 -122.125 L 56.109375 -60.84375 C 56.109375 -51.675781 57.832031 -44.988281 61.28125 -40.78125 C 64.738281 -36.570312 69.773438 -34.46875 76.390625 -34.46875 C 83.148438 -34.46875 88.671875 -36.832031 92.953125 -41.5625 C 97.234375 -46.300781 99.375 -53.550781 99.375 -63.3125 L 99.375 -122.125 Z M 142.1875 -122.125 "/></g></g></g><g fill="#ffffff" fill-opacity="1"><g transform="translate(1730.517461, 218.821959)"><g><path d="M 76.15625 2.03125 C 62.632812 2.03125 50.539062 -0.671875 39.875 -6.078125 C 29.21875 -11.492188 20.921875 -19.003906 14.984375 -28.609375 C 9.046875 -38.222656 6.078125 -49.117188 6.078125 -61.296875 C 6.078125 -73.460938 9.046875 -84.3125 14.984375 -93.84375 C 20.921875 -103.382812 29.21875 -110.820312 39.875 -116.15625 C 50.539062 -121.488281 62.632812 -124.15625 76.15625 -124.15625 C 89.976562 -124.15625 101.921875 -121.1875 111.984375 -115.25 C 122.046875 -109.320312 129.179688 -101.097656 133.390625 -90.578125 L 100.265625 -73.6875 C 94.710938 -84.644531 86.601562 -90.125 75.9375 -90.125 C 68.269531 -90.125 61.921875 -87.570312 56.890625 -82.46875 C 51.859375 -77.363281 49.34375 -70.304688 49.34375 -61.296875 C 49.34375 -52.128906 51.859375 -44.953125 56.890625 -39.765625 C 61.921875 -34.585938 68.269531 -32 75.9375 -32 C 86.601562 -32 94.710938 -37.484375 100.265625 -48.453125 L 133.390625 -31.546875 C 129.179688 -21.023438 122.046875 -12.796875 111.984375 -6.859375 C 101.921875 -0.929688 89.976562 2.03125 76.15625 2.03125 Z M 76.15625 2.03125 "/></g></g></g><g fill="#ffffff" fill-opacity="1"><g transform="translate(1857.380853, 218.821959)"><g><path d="M 13.75 -122.125 L 56.5625 -122.125 L 56.5625 0 L 13.75 0 Z M 35.15625 -135.640625 C 27.34375 -135.640625 21.03125 -137.816406 16.21875 -142.171875 C 11.414062 -146.535156 9.015625 -151.945312 9.015625 -158.40625 C 9.015625 -164.863281 11.414062 -170.269531 16.21875 -174.625 C 21.03125 -178.976562 27.34375 -181.15625 35.15625 -181.15625 C 42.96875 -181.15625 49.273438 -179.085938 54.078125 -174.953125 C 58.890625 -170.828125 61.296875 -165.535156 61.296875 -159.078125 C 61.296875 -152.316406 58.890625 -146.71875 54.078125 -142.28125 C 49.273438 -137.851562 42.96875 -135.640625 35.15625 -135.640625 Z M 35.15625 -135.640625 "/></g></g></g><g fill="#ffffff" fill-opacity="1"><g transform="translate(1918.897157, 218.821959)"><g><path d="M 143.53125 -167.1875 L 143.53125 0 L 102.75 0 L 102.75 -12.171875 C 94.789062 -2.703125 82.847656 2.03125 66.921875 2.03125 C 55.804688 2.03125 45.664062 -0.554688 36.5 -5.734375 C 27.34375 -10.921875 20.097656 -18.320312 14.765625 -27.9375 C 9.429688 -37.550781 6.765625 -48.671875 6.765625 -61.296875 C 6.765625 -73.910156 9.429688 -84.984375 14.765625 -94.515625 C 20.097656 -104.054688 27.34375 -111.378906 36.5 -116.484375 C 45.664062 -121.597656 55.804688 -124.15625 66.921875 -124.15625 C 81.492188 -124.15625 92.757812 -119.945312 100.71875 -111.53125 L 100.71875 -167.1875 Z M 75.9375 -32 C 83.300781 -32 89.382812 -34.585938 94.1875 -39.765625 C 98.988281 -44.953125 101.390625 -52.128906 101.390625 -61.296875 C 101.390625 -70.304688 99.023438 -77.363281 94.296875 -82.46875 C 89.566406 -87.570312 83.445312 -90.125 75.9375 -90.125 C 68.425781 -90.125 62.265625 -87.570312 57.453125 -82.46875 C 52.648438 -77.363281 50.25 -70.304688 50.25 -61.296875 C 50.25 -52.128906 52.648438 -44.953125 57.453125 -39.765625 C 62.265625 -34.585938 68.425781 -32 75.9375 -32 Z M 75.9375 -32 "/></g></g></g><g fill="#ffffff" fill-opacity="1"><g transform="translate(2067.167255, 218.821959)"><g><path d="M 65.796875 -124.15625 C 86.078125 -124.15625 101.550781 -119.535156 112.21875 -110.296875 C 122.882812 -101.054688 128.21875 -86.898438 128.21875 -67.828125 L 128.21875 0 L 88.328125 0 L 88.328125 -15.765625 C 82.171875 -3.898438 70.15625 2.03125 52.28125 2.03125 C 42.8125 2.03125 34.617188 0.378906 27.703125 -2.921875 C 20.796875 -6.234375 15.578125 -10.703125 12.046875 -16.328125 C 8.523438 -21.960938 6.765625 -28.390625 6.765625 -35.609375 C 6.765625 -47.171875 11.191406 -56.144531 20.046875 -62.53125 C 28.910156 -68.914062 42.582031 -72.109375 61.0625 -72.109375 L 85.40625 -72.109375 C 84.644531 -85.023438 76.003906 -91.484375 59.484375 -91.484375 C 53.628906 -91.484375 47.695312 -90.539062 41.6875 -88.65625 C 35.675781 -86.78125 30.566406 -84.191406 26.359375 -80.890625 L 11.9375 -109.953125 C 18.695312 -114.460938 26.921875 -117.957031 36.609375 -120.4375 C 46.304688 -122.914062 56.035156 -124.15625 65.796875 -124.15625 Z M 64.21875 -25.015625 C 69.175781 -25.015625 73.53125 -26.210938 77.28125 -28.609375 C 81.039062 -31.015625 83.75 -34.546875 85.40625 -39.203125 L 85.40625 -49.796875 L 66.921875 -49.796875 C 54.453125 -49.796875 48.21875 -45.664062 48.21875 -37.40625 C 48.21875 -33.644531 49.644531 -30.640625 52.5 -28.390625 C 55.351562 -26.140625 59.257812 -25.015625 64.21875 -25.015625 Z M 64.21875 -25.015625 "/></g></g></g></g></g></svg>