<svg xmlns="http://www.w3.org/2000/svg" xmlns:xlink="http://www.w3.org/1999/xlink" width="3000" zoomAndPan="magnify" viewBox="0 0 2250 374.999991" height="500" preserveAspectRatio="xMidYMid meet" version="1.0"><defs><g/><clipPath id="f3960a683f"><rect x="0" width="2207" y="0" height="276"/></clipPath></defs><g transform="matrix(1, 0, 0, 1, 20, 49)"><g clip-path="url(#f3960a683f)"><g fill="#029ef8" fill-opacity="1"><g transform="translate(1.299876, 218.821959)"><g><path d="M 149.734375 0.046875 L 149.285156 -83.554688 L 157.734375 -83.597656 L 164.992188 -79.273438 L 121.976562 -7.097656 L 92.613281 -7.097656 L 49.804688 -76.929688 L 57.011719 -81.347656 L 65.460938 -81.347656 L 65.460938 8.449219 L 7.324219 8.449219 L 7.324219 -166.183594 L 57.25 -166.183594 L 115.152344 -71.09375 L 107.9375 -66.699219 L 100.671875 -71.015625 L 157.207031 -166.183594 L 207.171875 -166.183594 L 207.671875 8.449219 L 149.78125 8.449219 Z M 166.636719 -0.046875 L 158.183594 0 L 158.183594 -8.449219 L 199.195312 -8.449219 L 199.195312 0 L 190.746094 0.0234375 L 190.296875 -157.710938 L 198.746094 -157.734375 L 198.746094 -149.285156 L 162.015625 -149.285156 L 162.015625 -157.734375 L 169.28125 -153.417969 L 108.023438 -50.304688 L 45.285156 -153.339844 L 52.503906 -157.734375 L 52.503906 -149.285156 L 15.773438 -149.285156 L 15.773438 -157.734375 L 24.222656 -157.734375 L 24.222656 0 L 15.773438 0 L 15.773438 -8.449219 L 57.011719 -8.449219 L 57.011719 0 L 48.558594 0 L 48.558594 -111.300781 L 104.550781 -19.964844 L 97.34375 -15.546875 L 97.34375 -24 L 117.175781 -24 L 117.175781 -15.546875 L 109.914062 -19.875 L 166.019531 -114.007812 Z M 166.636719 -0.046875 "/></g></g></g><g fill="#029ef8" fill-opacity="1"><g transform="translate(207.255782, 218.821959)"><g><path d="M 147.03125 -60.839844 C 147.03125 -60.351562 146.800781 -56.636719 146.335938 -49.6875 L 145.8125 -41.800781 L 49.125 -41.800781 L 49.125 -50.25 L 57.25 -52.570312 C 58.472656 -48.285156 60.796875 -45.023438 64.21875 -42.792969 C 67.996094 -40.328125 72.957031 -39.097656 79.09375 -39.097656 C 83.902344 -39.097656 87.957031 -39.734375 91.261719 -41.007812 C 94.632812 -42.308594 98.125 -44.519531 101.742188 -47.636719 L 107.804688 -52.863281 L 141.324219 -18 L 136.082031 -12.15625 C 122.535156 2.933594 103.085938 10.476562 77.742188 10.476562 C 62.140625 10.476562 48.335938 7.476562 36.332031 1.472656 C 24.082031 -4.652344 14.570312 -13.203125 7.792969 -24.179688 C 1.019531 -35.152344 -2.367188 -47.523438 -2.367188 -61.292969 C -2.367188 -74.882812 0.933594 -87.121094 7.535156 -98.007812 C 14.125 -108.878906 23.214844 -117.378906 34.804688 -123.515625 C 46.253906 -129.578125 59.066406 -132.609375 73.234375 -132.609375 C 86.75 -132.609375 99.066406 -129.789062 110.183594 -124.144531 C 121.53125 -118.386719 130.515625 -110.046875 137.132812 -99.132812 C 143.730469 -88.25 147.03125 -75.484375 147.03125 -60.839844 Z M 130.132812 -60.839844 C 130.132812 -72.335938 127.648438 -82.179688 122.679688 -90.371094 C 117.730469 -98.535156 111.015625 -104.769531 102.535156 -109.074219 C 93.820312 -113.5 84.054688 -115.710938 73.234375 -115.710938 C 61.863281 -115.710938 51.691406 -113.332031 42.710938 -108.578125 C 33.871094 -103.898438 26.960938 -97.453125 21.984375 -89.246094 C 17.019531 -81.054688 14.535156 -71.734375 14.535156 -61.292969 C 14.535156 -50.722656 17.082031 -41.308594 22.175781 -33.054688 C 27.269531 -24.804688 34.503906 -18.332031 43.890625 -13.640625 C 53.515625 -8.828125 64.800781 -6.421875 77.742188 -6.421875 C 98.0625 -6.421875 113.316406 -12.097656 123.503906 -23.445312 L 129.792969 -17.800781 L 123.703125 -11.945312 L 101.167969 -35.378906 L 107.257812 -41.238281 L 112.777344 -34.835938 C 107.679688 -30.441406 102.539062 -27.246094 97.34375 -25.242188 C 92.085938 -23.210938 86 -22.195312 79.09375 -22.195312 C 69.605469 -22.195312 61.570312 -24.34375 54.984375 -28.636719 C 48.039062 -33.167969 43.378906 -39.597656 40.996094 -47.929688 L 37.921875 -58.699219 L 137.90625 -58.699219 L 137.90625 -50.25 L 129.472656 -50.8125 C 129.910156 -57.382812 130.132812 -60.726562 130.132812 -60.839844 Z M 73.460938 -85.289062 C 68.914062 -85.289062 65.214844 -84.078125 62.359375 -81.660156 C 59.457031 -79.199219 57.589844 -75.726562 56.753906 -71.238281 L 48.445312 -72.785156 L 48.445312 -81.234375 L 98.472656 -81.234375 L 98.472656 -72.785156 L 90.164062 -71.238281 C 89.328125 -75.726562 87.460938 -79.199219 84.558594 -81.660156 C 81.703125 -84.078125 78.003906 -85.289062 73.460938 -85.289062 Z M 73.460938 -102.191406 C 82.136719 -102.191406 89.476562 -99.644531 95.484375 -94.550781 C 101.445312 -89.5 105.210938 -82.757812 106.777344 -74.328125 L 108.640625 -64.332031 L 38.28125 -64.332031 L 40.140625 -74.328125 C 41.707031 -82.757812 45.472656 -89.5 51.433594 -94.550781 C 57.441406 -99.644531 64.785156 -102.191406 73.460938 -102.191406 Z M 73.460938 -102.191406 "/></g></g></g><g fill="#029ef8" fill-opacity="1"><g transform="translate(342.907229, 218.821959)"><g><path d="M 151.988281 -167.199219 L 151.988281 8.449219 L 94.300781 8.449219 L 94.300781 -12.167969 L 102.753906 -12.167969 L 109.21875 -6.726562 C 99.570312 4.742188 85.472656 10.476562 66.925781 10.476562 C 54.324219 10.476562 42.796875 7.523438 32.34375 1.609375 C 21.796875 -4.355469 13.472656 -12.839844 7.371094 -23.84375 C 1.328125 -34.730469 -1.691406 -47.214844 -1.691406 -61.292969 C -1.691406 -75.378906 1.335938 -87.832031 7.382812 -98.652344 C 13.496094 -109.585938 21.832031 -117.996094 32.390625 -123.878906 C 42.832031 -129.699219 54.34375 -132.609375 66.925781 -132.609375 C 83.921875 -132.609375 97.234375 -127.523438 106.863281 -117.347656 L 100.726562 -111.539062 L 92.273438 -111.539062 L 92.273438 -175.648438 L 151.988281 -175.648438 Z M 135.089844 -167.199219 L 143.539062 -167.199219 L 143.539062 -158.75 L 100.726562 -158.75 L 100.726562 -167.199219 L 109.175781 -167.199219 L 109.175781 -90.320312 L 94.585938 -105.730469 C 88.292969 -112.382812 79.070312 -115.710938 66.925781 -115.710938 C 57.273438 -115.710938 48.503906 -113.511719 40.617188 -109.117188 C 32.851562 -104.789062 26.6875 -98.550781 22.136719 -90.40625 C 17.519531 -82.148438 15.210938 -72.441406 15.210938 -61.292969 C 15.210938 -50.128906 17.523438 -40.378906 22.148438 -32.039062 C 26.710938 -23.816406 32.882812 -17.503906 40.664062 -13.101562 C 48.539062 -8.648438 57.289062 -6.421875 66.925781 -6.421875 C 80.226562 -6.421875 90.011719 -10.152344 96.285156 -17.609375 L 111.203125 -35.339844 L 111.203125 0 L 102.753906 0 L 102.753906 -8.449219 L 143.539062 -8.449219 L 143.539062 0 L 135.089844 0 Z M 75.9375 -40.449219 C 80.839844 -40.449219 84.859375 -42.136719 87.996094 -45.519531 C 91.296875 -49.082031 92.949219 -54.339844 92.949219 -61.292969 C 92.949219 -68.097656 91.335938 -73.242188 88.105469 -76.730469 C 85.042969 -80.03125 80.988281 -81.683594 75.9375 -81.683594 C 70.859375 -81.683594 66.753906 -80.015625 63.613281 -76.679688 C 60.339844 -73.199219 58.699219 -68.070312 58.699219 -61.292969 C 58.699219 -54.339844 60.351562 -49.082031 63.65625 -45.519531 C 66.792969 -42.136719 70.886719 -40.449219 75.9375 -40.449219 Z M 75.9375 -23.546875 C 65.96875 -23.546875 57.742188 -27.039062 51.265625 -34.023438 C 44.953125 -40.828125 41.800781 -49.917969 41.800781 -61.292969 C 41.800781 -72.539062 44.96875 -81.53125 51.308594 -88.265625 C 57.78125 -95.144531 65.992188 -98.585938 75.9375 -98.585938 C 85.910156 -98.585938 94.097656 -95.128906 100.5 -88.214844 C 106.734375 -81.488281 109.851562 -72.511719 109.851562 -61.292969 C 109.851562 -49.917969 106.695312 -40.828125 100.386719 -34.023438 C 93.90625 -27.039062 85.757812 -23.546875 75.9375 -23.546875 Z M 75.9375 -23.546875 "/></g></g></g><g fill="#029ef8" fill-opacity="1"><g transform="translate(491.177375, 218.821959)"><g><path d="M 13.746094 -130.582031 L 65.007812 -130.582031 L 65.007812 8.449219 L 5.296875 8.449219 L 5.296875 -130.582031 Z M 13.746094 -113.679688 L 13.746094 -122.132812 L 22.195312 -122.132812 L 22.195312 0 L 13.746094 0 L 13.746094 -8.449219 L 56.558594 -8.449219 L 56.558594 0 L 48.109375 0 L 48.109375 -122.132812 L 56.558594 -122.132812 L 56.558594 -113.679688 Z M 35.152344 -127.203125 C 25.167969 -127.203125 16.96875 -130.109375 10.550781 -135.925781 C 3.890625 -141.957031 0.5625 -149.453125 0.5625 -158.410156 C 0.5625 -167.367188 3.890625 -174.863281 10.550781 -180.894531 C 16.96875 -186.710938 25.167969 -189.621094 35.152344 -189.621094 C 45.050781 -189.621094 53.195312 -186.875 59.589844 -181.382812 C 66.355469 -175.566406 69.742188 -168.132812 69.742188 -159.085938 C 69.742188 -149.859375 66.429688 -142.191406 59.808594 -136.085938 C 53.382812 -130.164062 45.164062 -127.203125 35.152344 -127.203125 Z M 35.152344 -144.101562 C 40.761719 -144.101562 45.164062 -145.570312 48.351562 -148.511719 C 51.34375 -151.269531 52.839844 -154.796875 52.839844 -159.085938 C 52.839844 -162.960938 51.417969 -166.117188 48.574219 -168.5625 C 45.347656 -171.335938 40.875 -172.71875 35.152344 -172.71875 C 29.511719 -172.71875 25.09375 -171.269531 21.898438 -168.375 C 18.941406 -165.695312 17.464844 -162.371094 17.464844 -158.410156 C 17.464844 -154.449219 18.941406 -151.128906 21.898438 -148.449219 C 25.09375 -145.550781 29.511719 -144.101562 35.152344 -144.101562 Z M 35.152344 -144.101562 "/></g></g></g><g fill="#029ef8" fill-opacity="1"><g transform="translate(552.69363, 218.821959)"><g><path d="M 76.164062 10.476562 C 61.296875 10.476562 47.929688 7.46875 36.0625 1.453125 C 23.984375 -4.671875 14.558594 -13.214844 7.792969 -24.179688 C 1.019531 -35.152344 -2.367188 -47.523438 -2.367188 -61.292969 C -2.367188 -75.070312 1.027344 -87.410156 7.808594 -98.316406 C 14.585938 -109.207031 24.015625 -117.671875 36.105469 -123.71875 C 47.960938 -129.644531 61.3125 -132.609375 76.164062 -132.609375 C 91.519531 -132.609375 104.894531 -129.253906 116.28125 -122.539062 C 128.003906 -115.628906 136.324219 -106.023438 141.246094 -93.722656 L 144.109375 -86.5625 L 96.566406 -62.308594 L 92.738281 -69.863281 C 90.617188 -74.042969 88.136719 -77.097656 85.289062 -79.019531 C 82.664062 -80.796875 79.546875 -81.683594 75.9375 -81.683594 C 70.632812 -81.683594 66.292969 -79.96875 62.917969 -76.542969 C 59.503906 -73.078125 57.796875 -67.996094 57.796875 -61.292969 C 57.796875 -54.414062 59.519531 -49.203125 62.960938 -45.660156 C 66.332031 -42.183594 70.660156 -40.449219 75.9375 -40.449219 C 79.546875 -40.449219 82.664062 -41.335938 85.289062 -43.109375 C 88.136719 -45.035156 90.617188 -48.085938 92.738281 -52.265625 L 96.566406 -59.824219 L 144.109375 -35.570312 L 141.246094 -28.410156 C 136.324219 -16.109375 128.003906 -6.503906 116.28125 0.40625 C 104.894531 7.121094 91.519531 10.476562 76.164062 10.476562 Z M 76.164062 -6.421875 C 88.445312 -6.421875 98.960938 -9 107.699219 -14.152344 C 116.109375 -19.109375 122.058594 -25.953125 125.550781 -34.683594 L 133.398438 -31.546875 L 129.558594 -24.019531 L 96.433594 -40.921875 L 100.273438 -48.445312 L 107.8125 -44.625 C 104.371094 -37.839844 100.019531 -32.667969 94.753906 -29.109375 C 89.269531 -25.402344 82.996094 -23.546875 75.9375 -23.546875 C 65.894531 -23.546875 57.527344 -26.992188 50.835938 -33.886719 C 44.210938 -40.707031 40.898438 -49.84375 40.898438 -61.292969 C 40.898438 -72.613281 44.226562 -81.652344 50.878906 -88.402344 C 57.566406 -95.191406 65.917969 -98.585938 75.9375 -98.585938 C 82.996094 -98.585938 89.269531 -96.730469 94.753906 -93.023438 C 100.019531 -89.464844 104.371094 -84.289062 107.8125 -77.503906 L 100.273438 -73.683594 L 96.433594 -81.210938 L 129.558594 -98.113281 L 133.398438 -90.585938 L 125.550781 -87.445312 C 122.058594 -96.175781 116.109375 -103.023438 107.699219 -107.980469 C 98.960938 -113.132812 88.445312 -115.710938 76.164062 -115.710938 C 63.972656 -115.710938 53.140625 -113.339844 43.664062 -108.601562 C 34.421875 -103.980469 27.253906 -97.578125 22.160156 -89.390625 C 17.078125 -81.214844 14.535156 -71.851562 14.535156 -61.292969 C 14.535156 -50.722656 17.082031 -41.308594 22.175781 -33.054688 C 27.277344 -24.789062 34.453125 -18.3125 43.707031 -13.621094 C 53.171875 -8.820312 63.988281 -6.421875 76.164062 -6.421875 Z M 76.164062 -6.421875 "/></g></g></g><g fill="#029ef8" fill-opacity="1"><g transform="translate(679.557023, 218.821959)"><g><path d="M 13.746094 -130.582031 L 65.007812 -130.582031 L 65.007812 8.449219 L 5.296875 8.449219 L 5.296875 -130.582031 Z M 13.746094 -113.679688 L 13.746094 -122.132812 L 22.195312 -122.132812 L 22.195312 0 L 13.746094 0 L 13.746094 -8.449219 L 56.558594 -8.449219 L 56.558594 0 L 48.109375 0 L 48.109375 -122.132812 L 56.558594 -122.132812 L 56.558594 -113.679688 Z M 35.152344 -127.203125 C 25.167969 -127.203125 16.96875 -130.109375 10.550781 -135.925781 C 3.890625 -141.957031 0.5625 -149.453125 0.5625 -158.410156 C 0.5625 -167.367188 3.890625 -174.863281 10.550781 -180.894531 C 16.96875 -186.710938 25.167969 -189.621094 35.152344 -189.621094 C 45.050781 -189.621094 53.195312 -186.875 59.589844 -181.382812 C 66.355469 -175.566406 69.742188 -168.132812 69.742188 -159.085938 C 69.742188 -149.859375 66.429688 -142.191406 59.808594 -136.085938 C 53.382812 -130.164062 45.164062 -127.203125 35.152344 -127.203125 Z M 35.152344 -144.101562 C 40.761719 -144.101562 45.164062 -145.570312 48.351562 -148.511719 C 51.34375 -151.269531 52.839844 -154.796875 52.839844 -159.085938 C 52.839844 -162.960938 51.417969 -166.117188 48.574219 -168.5625 C 45.347656 -171.335938 40.875 -172.71875 35.152344 -172.71875 C 29.511719 -172.71875 25.09375 -171.269531 21.898438 -168.375 C 18.941406 -165.695312 17.464844 -162.371094 17.464844 -158.410156 C 17.464844 -154.449219 18.941406 -151.128906 21.898438 -148.449219 C 25.09375 -145.550781 29.511719 -144.101562 35.152344 -144.101562 Z M 35.152344 -144.101562 "/></g></g></g><g fill="#029ef8" fill-opacity="1"><g transform="translate(741.073326, 218.821959)"><g><path d="M 93.289062 -132.609375 C 110.753906 -132.609375 124.925781 -127.300781 135.808594 -116.6875 C 146.746094 -106.015625 152.214844 -90.40625 152.214844 -69.855469 L 152.214844 8.449219 L 92.5 8.449219 L 92.5 -62.867188 C 92.5 -69.226562 91.449219 -73.71875 89.34375 -76.339844 C 87.691406 -78.402344 84.875 -79.429688 80.894531 -79.429688 C 76.003906 -79.429688 72.179688 -77.933594 69.417969 -74.941406 C 66.480469 -71.753906 65.007812 -66.453125 65.007812 -59.039062 L 65.007812 8.449219 L 5.296875 8.449219 L 5.296875 -130.582031 L 62.980469 -130.582031 L 62.980469 -108.835938 L 54.53125 -108.835938 L 48.464844 -114.71875 C 54.113281 -120.542969 60.800781 -124.992188 68.535156 -128.066406 C 76.144531 -131.097656 84.398438 -132.609375 93.289062 -132.609375 Z M 93.289062 -115.710938 C 86.554688 -115.710938 80.386719 -114.59375 74.78125 -112.363281 C 69.292969 -110.183594 64.5625 -107.046875 60.597656 -102.953125 L 46.082031 -87.984375 L 46.082031 -122.132812 L 54.53125 -122.132812 L 54.53125 -113.679688 L 13.746094 -113.679688 L 13.746094 -122.132812 L 22.195312 -122.132812 L 22.195312 0 L 13.746094 0 L 13.746094 -8.449219 L 56.558594 -8.449219 L 56.558594 0 L 48.109375 0 L 48.109375 -59.039062 C 48.109375 -70.851562 51.070312 -79.972656 56.992188 -86.398438 C 63.097656 -93.019531 71.066406 -96.332031 80.894531 -96.332031 C 90.285156 -96.332031 97.496094 -93.191406 102.527344 -86.914062 C 107.109375 -81.199219 109.398438 -73.183594 109.398438 -62.867188 L 109.398438 0 L 100.949219 0 L 100.949219 -8.449219 L 143.765625 -8.449219 L 143.765625 0 L 135.3125 0 L 135.3125 -69.855469 C 135.3125 -85.65625 131.542969 -97.234375 124.003906 -104.589844 C 116.40625 -112.003906 106.167969 -115.710938 93.289062 -115.710938 Z M 93.289062 -115.710938 "/></g></g></g><g fill="#029ef8" fill-opacity="1"><g transform="translate(888.892786, 218.821959)"><g><path d="M 65.796875 -132.609375 C 88.179688 -132.609375 105.496094 -127.304688 117.75 -116.6875 C 130.359375 -105.765625 136.664062 -89.476562 136.664062 -67.824219 L 136.664062 8.449219 L 79.882812 8.449219 L 79.882812 -15.773438 L 88.332031 -15.773438 L 95.832031 -11.882812 C 91.902344 -4.308594 86.105469 1.371094 78.441406 5.15625 C 71.25 8.703125 62.53125 10.476562 52.277344 10.476562 C 41.535156 10.476562 32.132812 8.550781 24.070312 4.695312 C 15.683594 0.683594 9.292969 -4.832031 4.894531 -11.851562 C 0.503906 -18.855469 -1.691406 -26.773438 -1.691406 -35.601562 C -1.691406 -42.703125 -0.292969 -49.085938 2.507812 -54.75 C 5.34375 -60.496094 9.546875 -65.375 15.117188 -69.386719 C 25.453125 -76.835938 40.769531 -80.558594 61.066406 -80.558594 L 85.402344 -80.558594 L 85.402344 -72.105469 L 76.964844 -71.617188 C 76.742188 -75.460938 75.519531 -78.214844 73.300781 -79.875 C 70.480469 -81.980469 65.878906 -83.035156 59.488281 -83.035156 C 54.488281 -83.035156 49.394531 -82.226562 44.207031 -80.605469 C 39.1875 -79.035156 34.976562 -76.917969 31.585938 -74.25 L 23.414062 -67.832031 L 1.066406 -112.871094 L 7.253906 -116.996094 C 14.8125 -122.035156 23.902344 -125.910156 34.523438 -128.628906 C 44.898438 -131.28125 55.324219 -132.609375 65.796875 -132.609375 Z M 65.796875 -115.710938 C 56.742188 -115.710938 47.714844 -114.558594 38.710938 -112.253906 C 29.953125 -110.015625 22.589844 -106.90625 16.628906 -102.933594 L 11.941406 -109.964844 L 19.511719 -113.71875 L 33.933594 -84.652344 L 26.363281 -80.894531 L 21.144531 -87.539062 C 26.164062 -91.484375 32.171875 -94.546875 39.167969 -96.734375 C 45.996094 -98.871094 52.769531 -99.9375 59.488281 -99.9375 C 69.625 -99.9375 77.601562 -97.761719 83.421875 -93.410156 C 89.839844 -88.609375 93.308594 -81.671875 93.839844 -72.597656 L 94.359375 -63.65625 L 61.066406 -63.65625 C 44.40625 -63.65625 32.382812 -60.996094 24.992188 -55.675781 C 21.699219 -53.300781 19.253906 -50.5 17.660156 -47.269531 C 16.027344 -43.960938 15.210938 -40.070312 15.210938 -35.601562 C 15.210938 -30.011719 16.546875 -25.085938 19.214844 -20.824219 C 21.878906 -16.574219 25.925781 -13.152344 31.363281 -10.550781 C 37.121094 -7.800781 44.089844 -6.421875 52.277344 -6.421875 C 59.902344 -6.421875 66.128906 -7.613281 70.957031 -10 C 75.3125 -12.148438 78.601562 -15.371094 80.832031 -19.664062 L 96.78125 -15.773438 L 96.78125 0 L 88.332031 0 L 88.332031 -8.449219 L 128.214844 -8.449219 L 128.214844 0 L 119.765625 0 L 119.765625 -67.824219 C 119.765625 -84.332031 115.40625 -96.359375 106.683594 -103.914062 C 97.605469 -111.777344 83.976562 -115.710938 65.796875 -115.710938 Z M 64.21875 -33.460938 C 67.53125 -33.460938 70.367188 -34.21875 72.734375 -35.734375 C 74.863281 -37.097656 76.433594 -39.195312 77.4375 -42.035156 L 85.402344 -39.207031 L 76.953125 -39.207031 L 76.953125 -49.800781 L 85.402344 -49.800781 L 85.402344 -41.347656 L 66.925781 -41.347656 C 62.386719 -41.347656 59.269531 -40.785156 57.566406 -39.65625 C 57.253906 -39.449219 57.046875 -39.242188 56.941406 -39.03125 C 56.761719 -38.675781 56.671875 -38.132812 56.671875 -37.40625 C 56.671875 -36.378906 57.027344 -35.585938 57.738281 -35.023438 C 59.058594 -33.984375 61.21875 -33.460938 64.21875 -33.460938 Z M 64.21875 -16.5625 C 57.308594 -16.5625 51.65625 -18.292969 47.265625 -21.761719 C 42.269531 -25.703125 39.773438 -30.921875 39.773438 -37.40625 C 39.773438 -40.808594 40.460938 -43.882812 41.839844 -46.625 C 43.292969 -49.511719 45.421875 -51.886719 48.230469 -53.746094 C 52.761719 -56.746094 58.992188 -58.25 66.925781 -58.25 L 93.851562 -58.25 L 93.851562 -37.753906 L 93.367188 -36.382812 C 91.066406 -29.90625 87.226562 -24.945312 81.84375 -21.5 C 76.699219 -18.207031 70.828125 -16.5625 64.21875 -16.5625 Z M 64.21875 -16.5625 "/></g></g></g><g fill="#029ef8" fill-opacity="1"><g transform="translate(1021.389599, 218.821959)"><g/></g></g><g fill="#029ef8" fill-opacity="1"><g transform="translate(1077.948434, 218.821959)"><g><path d="M 49.347656 -113.90625 L -7.550781 -113.90625 L -7.550781 -166.183594 L 150.636719 -166.183594 L 150.636719 -113.90625 L 93.964844 -113.90625 L 93.964844 -122.355469 L 102.414062 -122.355469 L 102.414062 8.449219 L 40.898438 8.449219 L 40.898438 -122.355469 L 49.347656 -122.355469 Z M 57.796875 -130.808594 L 57.796875 0 L 49.347656 0 L 49.347656 -8.449219 L 93.964844 -8.449219 L 93.964844 0 L 85.515625 0 L 85.515625 -130.808594 L 142.1875 -130.808594 L 142.1875 -122.355469 L 133.738281 -122.355469 L 133.738281 -157.734375 L 142.1875 -157.734375 L 142.1875 -149.285156 L 0.902344 -149.285156 L 0.902344 -157.734375 L 9.351562 -157.734375 L 9.351562 -122.355469 L 0.902344 -122.355469 L 0.902344 -130.808594 Z M 57.796875 -130.808594 "/></g></g></g><g fill="#029ef8" fill-opacity="1"><g transform="translate(1212.022564, 218.821959)"><g><path d="M 47.878906 -112.699219 C 53.175781 -119.453125 60.023438 -124.5 68.421875 -127.84375 C 76.410156 -131.019531 85.449219 -132.609375 95.542969 -132.609375 L 103.992188 -132.609375 L 103.992188 -76.144531 L 94.574219 -77.234375 C 90.988281 -77.644531 88.082031 -77.851562 85.851562 -77.851562 C 78.949219 -77.851562 73.722656 -76.15625 70.175781 -72.761719 C 66.730469 -69.46875 65.007812 -63.917969 65.007812 -56.109375 L 65.007812 8.449219 L 5.296875 8.449219 L 5.296875 -130.582031 L 62.980469 -130.582031 L 62.980469 -107.484375 L 54.53125 -107.484375 Z M 46.082031 -83.003906 L 46.082031 -122.132812 L 54.53125 -122.132812 L 54.53125 -113.679688 L 13.746094 -113.679688 L 13.746094 -122.132812 L 22.195312 -122.132812 L 22.195312 0 L 13.746094 0 L 13.746094 -8.449219 L 56.558594 -8.449219 L 56.558594 0 L 48.109375 0 L 48.109375 -56.109375 C 48.109375 -68.730469 51.570312 -78.351562 58.492188 -84.972656 C 65.308594 -91.492188 74.429688 -94.753906 85.851562 -94.753906 C 88.730469 -94.753906 92.28125 -94.507812 96.511719 -94.023438 L 95.542969 -85.628906 L 87.09375 -85.628906 L 87.09375 -124.160156 L 95.542969 -124.160156 L 95.542969 -115.710938 C 87.609375 -115.710938 80.648438 -114.519531 74.667969 -112.140625 C 69.09375 -109.921875 64.601562 -106.632812 61.183594 -102.273438 Z M 46.082031 -83.003906 "/></g></g></g><g fill="#029ef8" fill-opacity="1"><g transform="translate(1302.83236, 218.821959)"><g><path d="M 65.796875 -132.609375 C 88.179688 -132.609375 105.496094 -127.304688 117.75 -116.6875 C 130.359375 -105.765625 136.664062 -89.476562 136.664062 -67.824219 L 136.664062 8.449219 L 79.882812 8.449219 L 79.882812 -15.773438 L 88.332031 -15.773438 L 95.832031 -11.882812 C 91.902344 -4.308594 86.105469 1.371094 78.441406 5.15625 C 71.25 8.703125 62.53125 10.476562 52.277344 10.476562 C 41.535156 10.476562 32.132812 8.550781 24.070312 4.695312 C 15.683594 0.683594 9.292969 -4.832031 4.894531 -11.851562 C 0.503906 -18.855469 -1.691406 -26.773438 -1.691406 -35.601562 C -1.691406 -42.703125 -0.292969 -49.085938 2.507812 -54.75 C 5.34375 -60.496094 9.546875 -65.375 15.117188 -69.386719 C 25.453125 -76.835938 40.769531 -80.558594 61.066406 -80.558594 L 85.402344 -80.558594 L 85.402344 -72.105469 L 76.964844 -71.617188 C 76.742188 -75.460938 75.519531 -78.214844 73.300781 -79.875 C 70.480469 -81.980469 65.878906 -83.035156 59.488281 -83.035156 C 54.488281 -83.035156 49.394531 -82.226562 44.207031 -80.605469 C 39.1875 -79.035156 34.976562 -76.917969 31.585938 -74.25 L 23.414062 -67.832031 L 1.066406 -112.871094 L 7.253906 -116.996094 C 14.8125 -122.035156 23.902344 -125.910156 34.523438 -128.628906 C 44.898438 -131.28125 55.324219 -132.609375 65.796875 -132.609375 Z M 65.796875 -115.710938 C 56.742188 -115.710938 47.714844 -114.558594 38.710938 -112.253906 C 29.953125 -110.015625 22.589844 -106.90625 16.628906 -102.933594 L 11.941406 -109.964844 L 19.511719 -113.71875 L 33.933594 -84.652344 L 26.363281 -80.894531 L 21.144531 -87.539062 C 26.164062 -91.484375 32.171875 -94.546875 39.167969 -96.734375 C 45.996094 -98.871094 52.769531 -99.9375 59.488281 -99.9375 C 69.625 -99.9375 77.601562 -97.761719 83.421875 -93.410156 C 89.839844 -88.609375 93.308594 -81.671875 93.839844 -72.597656 L 94.359375 -63.65625 L 61.066406 -63.65625 C 44.40625 -63.65625 32.382812 -60.996094 24.992188 -55.675781 C 21.699219 -53.300781 19.253906 -50.5 17.660156 -47.269531 C 16.027344 -43.960938 15.210938 -40.070312 15.210938 -35.601562 C 15.210938 -30.011719 16.546875 -25.085938 19.214844 -20.824219 C 21.878906 -16.574219 25.925781 -13.152344 31.363281 -10.550781 C 37.121094 -7.800781 44.089844 -6.421875 52.277344 -6.421875 C 59.902344 -6.421875 66.128906 -7.613281 70.957031 -10 C 75.3125 -12.148438 78.601562 -15.371094 80.832031 -19.664062 L 96.78125 -15.773438 L 96.78125 0 L 88.332031 0 L 88.332031 -8.449219 L 128.214844 -8.449219 L 128.214844 0 L 119.765625 0 L 119.765625 -67.824219 C 119.765625 -84.332031 115.40625 -96.359375 106.683594 -103.914062 C 97.605469 -111.777344 83.976562 -115.710938 65.796875 -115.710938 Z M 64.21875 -33.460938 C 67.53125 -33.460938 70.367188 -34.21875 72.734375 -35.734375 C 74.863281 -37.097656 76.433594 -39.195312 77.4375 -42.035156 L 85.402344 -39.207031 L 76.953125 -39.207031 L 76.953125 -49.800781 L 85.402344 -49.800781 L 85.402344 -41.347656 L 66.925781 -41.347656 C 62.386719 -41.347656 59.269531 -40.785156 57.566406 -39.65625 C 57.253906 -39.449219 57.046875 -39.242188 56.941406 -39.03125 C 56.761719 -38.675781 56.671875 -38.132812 56.671875 -37.40625 C 56.671875 -36.378906 57.027344 -35.585938 57.738281 -35.023438 C 59.058594 -33.984375 61.21875 -33.460938 64.21875 -33.460938 Z M 64.21875 -16.5625 C 57.308594 -16.5625 51.65625 -18.292969 47.265625 -21.761719 C 42.269531 -25.703125 39.773438 -30.921875 39.773438 -37.40625 C 39.773438 -40.808594 40.460938 -43.882812 41.839844 -46.625 C 43.292969 -49.511719 45.421875 -51.886719 48.230469 -53.746094 C 52.761719 -56.746094 58.992188 -58.25 66.925781 -58.25 L 93.851562 -58.25 L 93.851562 -37.753906 L 93.367188 -36.382812 C 91.066406 -29.90625 87.226562 -24.945312 81.84375 -21.5 C 76.699219 -18.207031 70.828125 -16.5625 64.21875 -16.5625 Z M 64.21875 -16.5625 "/></g></g></g><g fill="#029ef8" fill-opacity="1"><g transform="translate(1435.329074, 218.821959)"><g><path d="M 151.988281 -167.199219 L 151.988281 8.449219 L 94.300781 8.449219 L 94.300781 -12.167969 L 102.753906 -12.167969 L 109.21875 -6.726562 C 99.570312 4.742188 85.472656 10.476562 66.925781 10.476562 C 54.324219 10.476562 42.796875 7.523438 32.34375 1.609375 C 21.796875 -4.355469 13.472656 -12.839844 7.371094 -23.84375 C 1.328125 -34.730469 -1.691406 -47.214844 -1.691406 -61.292969 C -1.691406 -75.378906 1.335938 -87.832031 7.382812 -98.652344 C 13.496094 -109.585938 21.832031 -117.996094 32.390625 -123.878906 C 42.832031 -129.699219 54.34375 -132.609375 66.925781 -132.609375 C 83.921875 -132.609375 97.234375 -127.523438 106.863281 -117.347656 L 100.726562 -111.539062 L 92.273438 -111.539062 L 92.273438 -175.648438 L 151.988281 -175.648438 Z M 135.089844 -167.199219 L 143.539062 -167.199219 L 143.539062 -158.75 L 100.726562 -158.75 L 100.726562 -167.199219 L 109.175781 -167.199219 L 109.175781 -90.320312 L 94.585938 -105.730469 C 88.292969 -112.382812 79.070312 -115.710938 66.925781 -115.710938 C 57.273438 -115.710938 48.503906 -113.511719 40.617188 -109.117188 C 32.851562 -104.789062 26.6875 -98.550781 22.136719 -90.40625 C 17.519531 -82.148438 15.210938 -72.441406 15.210938 -61.292969 C 15.210938 -50.128906 17.523438 -40.378906 22.148438 -32.039062 C 26.710938 -23.816406 32.882812 -17.503906 40.664062 -13.101562 C 48.539062 -8.648438 57.289062 -6.421875 66.925781 -6.421875 C 80.226562 -6.421875 90.011719 -10.152344 96.285156 -17.609375 L 111.203125 -35.339844 L 111.203125 0 L 102.753906 0 L 102.753906 -8.449219 L 143.539062 -8.449219 L 143.539062 0 L 135.089844 0 Z M 75.9375 -40.449219 C 80.839844 -40.449219 84.859375 -42.136719 87.996094 -45.519531 C 91.296875 -49.082031 92.949219 -54.339844 92.949219 -61.292969 C 92.949219 -68.097656 91.335938 -73.242188 88.105469 -76.730469 C 85.042969 -80.03125 80.988281 -81.683594 75.9375 -81.683594 C 70.859375 -81.683594 66.753906 -80.015625 63.613281 -76.679688 C 60.339844 -73.199219 58.699219 -68.070312 58.699219 -61.292969 C 58.699219 -54.339844 60.351562 -49.082031 63.65625 -45.519531 C 66.792969 -42.136719 70.886719 -40.449219 75.9375 -40.449219 Z M 75.9375 -23.546875 C 65.96875 -23.546875 57.742188 -27.039062 51.265625 -34.023438 C 44.953125 -40.828125 41.800781 -49.917969 41.800781 -61.292969 C 41.800781 -72.539062 44.96875 -81.53125 51.308594 -88.265625 C 57.78125 -95.144531 65.992188 -98.585938 75.9375 -98.585938 C 85.910156 -98.585938 94.097656 -95.128906 100.5 -88.214844 C 106.734375 -81.488281 109.851562 -72.511719 109.851562 -61.292969 C 109.851562 -49.917969 106.695312 -40.828125 100.386719 -34.023438 C 93.90625 -27.039062 85.757812 -23.546875 75.9375 -23.546875 Z M 75.9375 -23.546875 "/></g></g></g><g fill="#029ef8" fill-opacity="1"><g transform="translate(1583.599269, 218.821959)"><g><path d="M 150.636719 -122.132812 L 150.636719 8.449219 L 92.949219 8.449219 L 92.949219 -13.070312 L 101.402344 -13.070312 L 107.652344 -7.386719 C 102.28125 -1.476562 95.847656 2.996094 88.347656 6.03125 C 81.019531 8.996094 73.277344 10.476562 65.121094 10.476562 C 47.027344 10.476562 32.464844 5.003906 21.425781 -5.945312 C 10.371094 -16.910156 4.84375 -32.878906 4.84375 -53.855469 L 4.84375 -130.582031 L 64.558594 -130.582031 L 64.558594 -60.839844 C 64.558594 -53.695312 65.644531 -48.796875 67.820312 -46.148438 C 69.585938 -44 72.441406 -42.925781 76.386719 -42.925781 C 80.648438 -42.925781 84.082031 -44.367188 86.683594 -47.242188 C 89.511719 -50.367188 90.921875 -55.726562 90.921875 -63.320312 L 90.921875 -130.582031 L 150.636719 -130.582031 Z M 133.738281 -122.132812 L 142.1875 -122.132812 L 142.1875 -113.679688 L 99.371094 -113.679688 L 99.371094 -122.132812 L 107.824219 -122.132812 L 107.824219 -63.320312 C 107.824219 -51.382812 104.953125 -42.246094 99.21875 -35.90625 C 93.257812 -29.320312 85.648438 -26.027344 76.386719 -26.027344 C 67.117188 -26.027344 59.90625 -29.15625 54.761719 -35.421875 C 50.027344 -41.1875 47.660156 -49.660156 47.660156 -60.839844 L 47.660156 -122.132812 L 56.109375 -122.132812 L 56.109375 -113.679688 L 13.292969 -113.679688 L 13.292969 -122.132812 L 21.746094 -122.132812 L 21.746094 -53.855469 C 21.746094 -37.574219 25.605469 -25.601562 33.328125 -17.941406 C 41.070312 -10.261719 51.667969 -6.421875 65.121094 -6.421875 C 71.085938 -6.421875 76.714844 -7.492188 82.007812 -9.636719 C 87.125 -11.707031 91.503906 -14.746094 95.148438 -18.753906 L 109.851562 -34.925781 L 109.851562 0 L 101.402344 0 L 101.402344 -8.449219 L 142.1875 -8.449219 L 142.1875 0 L 133.738281 0 Z M 133.738281 -122.132812 "/></g></g></g><g fill="#029ef8" fill-opacity="1"><g transform="translate(1730.517461, 218.821959)"><g><path d="M 76.164062 10.476562 C 61.296875 10.476562 47.929688 7.46875 36.0625 1.453125 C 23.984375 -4.671875 14.558594 -13.214844 7.792969 -24.179688 C 1.019531 -35.152344 -2.367188 -47.523438 -2.367188 -61.292969 C -2.367188 -75.070312 1.027344 -87.410156 7.808594 -98.316406 C 14.585938 -109.207031 24.015625 -117.671875 36.105469 -123.71875 C 47.960938 -129.644531 61.3125 -132.609375 76.164062 -132.609375 C 91.519531 -132.609375 104.894531 -129.253906 116.28125 -122.539062 C 128.003906 -115.628906 136.324219 -106.023438 141.246094 -93.722656 L 144.109375 -86.5625 L 96.566406 -62.308594 L 92.738281 -69.863281 C 90.617188 -74.042969 88.136719 -77.097656 85.289062 -79.019531 C 82.664062 -80.796875 79.546875 -81.683594 75.9375 -81.683594 C 70.632812 -81.683594 66.292969 -79.96875 62.917969 -76.542969 C 59.503906 -73.078125 57.796875 -67.996094 57.796875 -61.292969 C 57.796875 -54.414062 59.519531 -49.203125 62.960938 -45.660156 C 66.332031 -42.183594 70.660156 -40.449219 75.9375 -40.449219 C 79.546875 -40.449219 82.664062 -41.335938 85.289062 -43.109375 C 88.136719 -45.035156 90.617188 -48.085938 92.738281 -52.265625 L 96.566406 -59.824219 L 144.109375 -35.570312 L 141.246094 -28.410156 C 136.324219 -16.109375 128.003906 -6.503906 116.28125 0.40625 C 104.894531 7.121094 91.519531 10.476562 76.164062 10.476562 Z M 76.164062 -6.421875 C 88.445312 -6.421875 98.960938 -9 107.699219 -14.152344 C 116.109375 -19.109375 122.058594 -25.953125 125.550781 -34.683594 L 133.398438 -31.546875 L 129.558594 -24.019531 L 96.433594 -40.921875 L 100.273438 -48.445312 L 107.8125 -44.625 C 104.371094 -37.839844 100.019531 -32.667969 94.753906 -29.109375 C 89.269531 -25.402344 82.996094 -23.546875 75.9375 -23.546875 C 65.894531 -23.546875 57.527344 -26.992188 50.835938 -33.886719 C 44.210938 -40.707031 40.898438 -49.84375 40.898438 -61.292969 C 40.898438 -72.613281 44.226562 -81.652344 50.878906 -88.402344 C 57.566406 -95.191406 65.917969 -98.585938 75.9375 -98.585938 C 82.996094 -98.585938 89.269531 -96.730469 94.753906 -93.023438 C 100.019531 -89.464844 104.371094 -84.289062 107.8125 -77.503906 L 100.273438 -73.683594 L 96.433594 -81.210938 L 129.558594 -98.113281 L 133.398438 -90.585938 L 125.550781 -87.445312 C 122.058594 -96.175781 116.109375 -103.023438 107.699219 -107.980469 C 98.960938 -113.132812 88.445312 -115.710938 76.164062 -115.710938 C 63.972656 -115.710938 53.140625 -113.339844 43.664062 -108.601562 C 34.421875 -103.980469 27.253906 -97.578125 22.160156 -89.390625 C 17.078125 -81.214844 14.535156 -71.851562 14.535156 -61.292969 C 14.535156 -50.722656 17.082031 -41.308594 22.175781 -33.054688 C 27.277344 -24.789062 34.453125 -18.3125 43.707031 -13.621094 C 53.171875 -8.820312 63.988281 -6.421875 76.164062 -6.421875 Z M 76.164062 -6.421875 "/></g></g></g><g fill="#029ef8" fill-opacity="1"><g transform="translate(1857.380853, 218.821959)"><g><path d="M 13.746094 -130.582031 L 65.007812 -130.582031 L 65.007812 8.449219 L 5.296875 8.449219 L 5.296875 -130.582031 Z M 13.746094 -113.679688 L 13.746094 -122.132812 L 22.195312 -122.132812 L 22.195312 0 L 13.746094 0 L 13.746094 -8.449219 L 56.558594 -8.449219 L 56.558594 0 L 48.109375 0 L 48.109375 -122.132812 L 56.558594 -122.132812 L 56.558594 -113.679688 Z M 35.152344 -127.203125 C 25.167969 -127.203125 16.96875 -130.109375 10.550781 -135.925781 C 3.890625 -141.957031 0.5625 -149.453125 0.5625 -158.410156 C 0.5625 -167.367188 3.890625 -174.863281 10.550781 -180.894531 C 16.96875 -186.710938 25.167969 -189.621094 35.152344 -189.621094 C 45.050781 -189.621094 53.195312 -186.875 59.589844 -181.382812 C 66.355469 -175.566406 69.742188 -168.132812 69.742188 -159.085938 C 69.742188 -149.859375 66.429688 -142.191406 59.808594 -136.085938 C 53.382812 -130.164062 45.164062 -127.203125 35.152344 -127.203125 Z M 35.152344 -144.101562 C 40.761719 -144.101562 45.164062 -145.570312 48.351562 -148.511719 C 51.34375 -151.269531 52.839844 -154.796875 52.839844 -159.085938 C 52.839844 -162.960938 51.417969 -166.117188 48.574219 -168.5625 C 45.347656 -171.335938 40.875 -172.71875 35.152344 -172.71875 C 29.511719 -172.71875 25.09375 -171.269531 21.898438 -168.375 C 18.941406 -165.695312 17.464844 -162.371094 17.464844 -158.410156 C 17.464844 -154.449219 18.941406 -151.128906 21.898438 -148.449219 C 25.09375 -145.550781 29.511719 -144.101562 35.152344 -144.101562 Z M 35.152344 -144.101562 "/></g></g></g><g fill="#029ef8" fill-opacity="1"><g transform="translate(1918.897157, 218.821959)"><g><path d="M 151.988281 -167.199219 L 151.988281 8.449219 L 94.300781 8.449219 L 94.300781 -12.167969 L 102.753906 -12.167969 L 109.21875 -6.726562 C 99.570312 4.742188 85.472656 10.476562 66.925781 10.476562 C 54.324219 10.476562 42.796875 7.523438 32.34375 1.609375 C 21.796875 -4.355469 13.472656 -12.839844 7.371094 -23.84375 C 1.328125 -34.730469 -1.691406 -47.214844 -1.691406 -61.292969 C -1.691406 -75.378906 1.335938 -87.832031 7.382812 -98.652344 C 13.496094 -109.585938 21.832031 -117.996094 32.390625 -123.878906 C 42.832031 -129.699219 54.34375 -132.609375 66.925781 -132.609375 C 83.921875 -132.609375 97.234375 -127.523438 106.863281 -117.347656 L 100.726562 -111.539062 L 92.273438 -111.539062 L 92.273438 -175.648438 L 151.988281 -175.648438 Z M 135.089844 -167.199219 L 143.539062 -167.199219 L 143.539062 -158.75 L 100.726562 -158.75 L 100.726562 -167.199219 L 109.175781 -167.199219 L 109.175781 -90.320312 L 94.585938 -105.730469 C 88.292969 -112.382812 79.070312 -115.710938 66.925781 -115.710938 C 57.273438 -115.710938 48.503906 -113.511719 40.617188 -109.117188 C 32.851562 -104.789062 26.6875 -98.550781 22.136719 -90.40625 C 17.519531 -82.148438 15.210938 -72.441406 15.210938 -61.292969 C 15.210938 -50.128906 17.523438 -40.378906 22.148438 -32.039062 C 26.710938 -23.816406 32.882812 -17.503906 40.664062 -13.101562 C 48.539062 -8.648438 57.289062 -6.421875 66.925781 -6.421875 C 80.226562 -6.421875 90.011719 -10.152344 96.285156 -17.609375 L 111.203125 -35.339844 L 111.203125 0 L 102.753906 0 L 102.753906 -8.449219 L 143.539062 -8.449219 L 143.539062 0 L 135.089844 0 Z M 75.9375 -40.449219 C 80.839844 -40.449219 84.859375 -42.136719 87.996094 -45.519531 C 91.296875 -49.082031 92.949219 -54.339844 92.949219 -61.292969 C 92.949219 -68.097656 91.335938 -73.242188 88.105469 -76.730469 C 85.042969 -80.03125 80.988281 -81.683594 75.9375 -81.683594 C 70.859375 -81.683594 66.753906 -80.015625 63.613281 -76.679688 C 60.339844 -73.199219 58.699219 -68.070312 58.699219 -61.292969 C 58.699219 -54.339844 60.351562 -49.082031 63.65625 -45.519531 C 66.792969 -42.136719 70.886719 -40.449219 75.9375 -40.449219 Z M 75.9375 -23.546875 C 65.96875 -23.546875 57.742188 -27.039062 51.265625 -34.023438 C 44.953125 -40.828125 41.800781 -49.917969 41.800781 -61.292969 C 41.800781 -72.539062 44.96875 -81.53125 51.308594 -88.265625 C 57.78125 -95.144531 65.992188 -98.585938 75.9375 -98.585938 C 85.910156 -98.585938 94.097656 -95.128906 100.5 -88.214844 C 106.734375 -81.488281 109.851562 -72.511719 109.851562 -61.292969 C 109.851562 -49.917969 106.695312 -40.828125 100.386719 -34.023438 C 93.90625 -27.039062 85.757812 -23.546875 75.9375 -23.546875 Z M 75.9375 -23.546875 "/></g></g></g><g fill="#029ef8" fill-opacity="1"><g transform="translate(2067.167255, 218.821959)"><g><path d="M 65.796875 -132.609375 C 88.179688 -132.609375 105.496094 -127.304688 117.75 -116.6875 C 130.359375 -105.765625 136.664062 -89.476562 136.664062 -67.824219 L 136.664062 8.449219 L 79.882812 8.449219 L 79.882812 -15.773438 L 88.332031 -15.773438 L 95.832031 -11.882812 C 91.902344 -4.308594 86.105469 1.371094 78.441406 5.15625 C 71.25 8.703125 62.53125 10.476562 52.277344 10.476562 C 41.535156 10.476562 32.132812 8.550781 24.070312 4.695312 C 15.683594 0.683594 9.292969 -4.832031 4.894531 -11.851562 C 0.503906 -18.855469 -1.691406 -26.773438 -1.691406 -35.601562 C -1.691406 -42.703125 -0.292969 -49.085938 2.507812 -54.75 C 5.34375 -60.496094 9.546875 -65.375 15.117188 -69.386719 C 25.453125 -76.835938 40.769531 -80.558594 61.066406 -80.558594 L 85.402344 -80.558594 L 85.402344 -72.105469 L 76.964844 -71.617188 C 76.742188 -75.460938 75.519531 -78.214844 73.300781 -79.875 C 70.480469 -81.980469 65.878906 -83.035156 59.488281 -83.035156 C 54.488281 -83.035156 49.394531 -82.226562 44.207031 -80.605469 C 39.1875 -79.035156 34.976562 -76.917969 31.585938 -74.25 L 23.414062 -67.832031 L 1.066406 -112.871094 L 7.253906 -116.996094 C 14.8125 -122.035156 23.902344 -125.910156 34.523438 -128.628906 C 44.898438 -131.28125 55.324219 -132.609375 65.796875 -132.609375 Z M 65.796875 -115.710938 C 56.742188 -115.710938 47.714844 -114.558594 38.710938 -112.253906 C 29.953125 -110.015625 22.589844 -106.90625 16.628906 -102.933594 L 11.941406 -109.964844 L 19.511719 -113.71875 L 33.933594 -84.652344 L 26.363281 -80.894531 L 21.144531 -87.539062 C 26.164062 -91.484375 32.171875 -94.546875 39.167969 -96.734375 C 45.996094 -98.871094 52.769531 -99.9375 59.488281 -99.9375 C 69.625 -99.9375 77.601562 -97.761719 83.421875 -93.410156 C 89.839844 -88.609375 93.308594 -81.671875 93.839844 -72.597656 L 94.359375 -63.65625 L 61.066406 -63.65625 C 44.40625 -63.65625 32.382812 -60.996094 24.992188 -55.675781 C 21.699219 -53.300781 19.253906 -50.5 17.660156 -47.269531 C 16.027344 -43.960938 15.210938 -40.070312 15.210938 -35.601562 C 15.210938 -30.011719 16.546875 -25.085938 19.214844 -20.824219 C 21.878906 -16.574219 25.925781 -13.152344 31.363281 -10.550781 C 37.121094 -7.800781 44.089844 -6.421875 52.277344 -6.421875 C 59.902344 -6.421875 66.128906 -7.613281 70.957031 -10 C 75.3125 -12.148438 78.601562 -15.371094 80.832031 -19.664062 L 96.78125 -15.773438 L 96.78125 0 L 88.332031 0 L 88.332031 -8.449219 L 128.214844 -8.449219 L 128.214844 0 L 119.765625 0 L 119.765625 -67.824219 C 119.765625 -84.332031 115.40625 -96.359375 106.683594 -103.914062 C 97.605469 -111.777344 83.976562 -115.710938 65.796875 -115.710938 Z M 64.21875 -33.460938 C 67.53125 -33.460938 70.367188 -34.21875 72.734375 -35.734375 C 74.863281 -37.097656 76.433594 -39.195312 77.4375 -42.035156 L 85.402344 -39.207031 L 76.953125 -39.207031 L 76.953125 -49.800781 L 85.402344 -49.800781 L 85.402344 -41.347656 L 66.925781 -41.347656 C 62.386719 -41.347656 59.269531 -40.785156 57.566406 -39.65625 C 57.253906 -39.449219 57.046875 -39.242188 56.941406 -39.03125 C 56.761719 -38.675781 56.671875 -38.132812 56.671875 -37.40625 C 56.671875 -36.378906 57.027344 -35.585938 57.738281 -35.023438 C 59.058594 -33.984375 61.21875 -33.460938 64.21875 -33.460938 Z M 64.21875 -16.5625 C 57.308594 -16.5625 51.65625 -18.292969 47.265625 -21.761719 C 42.269531 -25.703125 39.773438 -30.921875 39.773438 -37.40625 C 39.773438 -40.808594 40.460938 -43.882812 41.839844 -46.625 C 43.292969 -49.511719 45.421875 -51.886719 48.230469 -53.746094 C 52.761719 -56.746094 58.992188 -58.25 66.925781 -58.25 L 93.851562 -58.25 L 93.851562 -37.753906 L 93.367188 -36.382812 C 91.066406 -29.90625 87.226562 -24.945312 81.84375 -21.5 C 76.699219 -18.207031 70.828125 -16.5625 64.21875 -16.5625 Z M 64.21875 -16.5625 "/></g></g></g><g fill="#ffffff" fill-opacity="1"><g transform="translate(1.299876, 218.821959)"><g><path d="M 158.1875 0 L 157.734375 -83.59375 L 117.171875 -15.546875 L 97.34375 -15.546875 L 57.015625 -81.34375 L 57.015625 0 L 15.765625 0 L 15.765625 -157.734375 L 52.5 -157.734375 L 107.9375 -66.703125 L 162.015625 -157.734375 L 198.734375 -157.734375 L 199.1875 0 Z M 158.1875 0 "/></g></g></g><g fill="#ffffff" fill-opacity="1"><g transform="translate(207.255782, 218.821959)"><g><path d="M 138.578125 -60.84375 C 138.578125 -60.539062 138.351562 -57.007812 137.90625 -50.25 L 49.125 -50.25 C 50.925781 -43.9375 54.414062 -39.085938 59.59375 -35.703125 C 64.78125 -32.328125 71.28125 -30.640625 79.09375 -30.640625 C 84.945312 -30.640625 90.015625 -31.46875 94.296875 -33.125 C 98.578125 -34.78125 102.894531 -37.484375 107.25 -41.234375 L 129.78125 -17.796875 C 117.914062 -4.578125 100.566406 2.03125 77.734375 2.03125 C 63.460938 2.03125 50.921875 -0.671875 40.109375 -6.078125 C 29.296875 -11.492188 20.921875 -19.003906 14.984375 -28.609375 C 9.046875 -38.222656 6.078125 -49.117188 6.078125 -61.296875 C 6.078125 -73.304688 8.96875 -84.082031 14.75 -93.625 C 20.539062 -103.164062 28.539062 -110.640625 38.75 -116.046875 C 48.96875 -121.453125 60.460938 -124.15625 73.234375 -124.15625 C 85.398438 -124.15625 96.441406 -121.640625 106.359375 -116.609375 C 116.273438 -111.578125 124.125 -104.289062 129.90625 -94.75 C 135.6875 -85.207031 138.578125 -73.90625 138.578125 -60.84375 Z M 73.453125 -93.734375 C 66.847656 -93.734375 61.328125 -91.851562 56.890625 -88.09375 C 52.460938 -84.34375 49.648438 -79.238281 48.453125 -72.78125 L 98.46875 -72.78125 C 97.269531 -79.238281 94.453125 -84.34375 90.015625 -88.09375 C 85.585938 -91.851562 80.066406 -93.734375 73.453125 -93.734375 Z M 73.453125 -93.734375 "/></g></g></g><g fill="#ffffff" fill-opacity="1"><g transform="translate(342.907229, 218.821959)"><g><path d="M 143.53125 -167.1875 L 143.53125 0 L 102.75 0 L 102.75 -12.171875 C 94.789062 -2.703125 82.847656 2.03125 66.921875 2.03125 C 55.804688 2.03125 45.664062 -0.554688 36.5 -5.734375 C 27.34375 -10.921875 20.097656 -18.320312 14.765625 -27.9375 C 9.429688 -37.550781 6.765625 -48.671875 6.765625 -61.296875 C 6.765625 -73.910156 9.429688 -84.984375 14.765625 -94.515625 C 20.097656 -104.054688 27.34375 -111.378906 36.5 -116.484375 C 45.664062 -121.597656 55.804688 -124.15625 66.921875 -124.15625 C 81.492188 -124.15625 92.757812 -119.945312 100.71875 -111.53125 L 100.71875 -167.1875 Z M 75.9375 -32 C 83.300781 -32 89.382812 -34.585938 94.1875 -39.765625 C 98.988281 -44.953125 101.390625 -52.128906 101.390625 -61.296875 C 101.390625 -70.304688 99.023438 -77.363281 94.296875 -82.46875 C 89.566406 -87.570312 83.445312 -90.125 75.9375 -90.125 C 68.425781 -90.125 62.265625 -87.570312 57.453125 -82.46875 C 52.648438 -77.363281 50.25 -70.304688 50.25 -61.296875 C 50.25 -52.128906 52.648438 -44.953125 57.453125 -39.765625 C 62.265625 -34.585938 68.425781 -32 75.9375 -32 Z M 75.9375 -32 "/></g></g></g><g fill="#ffffff" fill-opacity="1"><g transform="translate(491.177375, 218.821959)"><g><path d="M 13.75 -122.125 L 56.5625 -122.125 L 56.5625 0 L 13.75 0 Z M 35.15625 -135.640625 C 27.34375 -135.640625 21.03125 -137.816406 16.21875 -142.171875 C 11.414062 -146.535156 9.015625 -151.945312 9.015625 -158.40625 C 9.015625 -164.863281 11.414062 -170.269531 16.21875 -174.625 C 21.03125 -178.976562 27.34375 -181.15625 35.15625 -181.15625 C 42.96875 -181.15625 49.273438 -179.085938 54.078125 -174.953125 C 58.890625 -170.828125 61.296875 -165.535156 61.296875 -159.078125 C 61.296875 -152.316406 58.890625 -146.71875 54.078125 -142.28125 C 49.273438 -137.851562 42.96875 -135.640625 35.15625 -135.640625 Z M 35.15625 -135.640625 "/></g></g></g><g fill="#ffffff" fill-opacity="1"><g transform="translate(552.69363, 218.821959)"><g><path d="M 76.15625 2.03125 C 62.632812 2.03125 50.539062 -0.671875 39.875 -6.078125 C 29.21875 -11.492188 20.921875 -19.003906 14.984375 -28.609375 C 9.046875 -38.222656 6.078125 -49.117188 6.078125 -61.296875 C 6.078125 -73.460938 9.046875 -84.3125 14.984375 -93.84375 C 20.921875 -103.382812 29.21875 -110.820312 39.875 -116.15625 C 50.539062 -121.488281 62.632812 -124.15625 76.15625 -124.15625 C 89.976562 -124.15625 101.921875 -121.1875 111.984375 -115.25 C 122.046875 -109.320312 129.179688 -101.097656 133.390625 -90.578125 L 100.265625 -73.6875 C 94.710938 -84.644531 86.601562 -90.125 75.9375 -90.125 C 68.269531 -90.125 61.921875 -87.570312 56.890625 -82.46875 C 51.859375 -77.363281 49.34375 -70.304688 49.34375 -61.296875 C 49.34375 -52.128906 51.859375 -44.953125 56.890625 -39.765625 C 61.921875 -34.585938 68.269531 -32 75.9375 -32 C 86.601562 -32 94.710938 -37.484375 100.265625 -48.453125 L 133.390625 -31.546875 C 129.179688 -21.023438 122.046875 -12.796875 111.984375 -6.859375 C 101.921875 -0.929688 89.976562 2.03125 76.15625 2.03125 Z M 76.15625 2.03125 "/></g></g></g><g fill="#ffffff" fill-opacity="1"><g transform="translate(679.557023, 218.821959)"><g><path d="M 13.75 -122.125 L 56.5625 -122.125 L 56.5625 0 L 13.75 0 Z M 35.15625 -135.640625 C 27.34375 -135.640625 21.03125 -137.816406 16.21875 -142.171875 C 11.414062 -146.535156 9.015625 -151.945312 9.015625 -158.40625 C 9.015625 -164.863281 11.414062 -170.269531 16.21875 -174.625 C 21.03125 -178.976562 27.34375 -181.15625 35.15625 -181.15625 C 42.96875 -181.15625 49.273438 -179.085938 54.078125 -174.953125 C 58.890625 -170.828125 61.296875 -165.535156 61.296875 -159.078125 C 61.296875 -152.316406 58.890625 -146.71875 54.078125 -142.28125 C 49.273438 -137.851562 42.96875 -135.640625 35.15625 -135.640625 Z M 35.15625 -135.640625 "/></g></g></g><g fill="#ffffff" fill-opacity="1"><g transform="translate(741.073326, 218.821959)"><g><path d="M 93.28125 -124.15625 C 108.457031 -124.15625 120.664062 -119.644531 129.90625 -110.625 C 139.144531 -101.613281 143.765625 -88.023438 143.765625 -69.859375 L 143.765625 0 L 100.953125 0 L 100.953125 -62.859375 C 100.953125 -79.535156 94.265625 -87.875 80.890625 -87.875 C 73.535156 -87.875 67.640625 -85.46875 63.203125 -80.65625 C 58.773438 -75.851562 56.5625 -68.644531 56.5625 -59.03125 L 56.5625 0 L 13.75 0 L 13.75 -122.125 L 54.53125 -122.125 L 54.53125 -108.828125 C 59.332031 -113.785156 65.035156 -117.578125 71.640625 -120.203125 C 78.253906 -122.835938 85.46875 -124.15625 93.28125 -124.15625 Z M 93.28125 -124.15625 "/></g></g></g><g fill="#ffffff" fill-opacity="1"><g transform="translate(888.892786, 218.821959)"><g><path d="M 65.796875 -124.15625 C 86.078125 -124.15625 101.550781 -119.535156 112.21875 -110.296875 C 122.882812 -101.054688 128.21875 -86.898438 128.21875 -67.828125 L 128.21875 0 L 88.328125 0 L 88.328125 -15.765625 C 82.171875 -3.898438 70.15625 2.03125 52.28125 2.03125 C 42.8125 2.03125 34.617188 0.378906 27.703125 -2.921875 C 20.796875 -6.234375 15.578125 -10.703125 12.046875 -16.328125 C 8.523438 -21.960938 6.765625 -28.390625 6.765625 -35.609375 C 6.765625 -47.171875 11.191406 -56.144531 20.046875 -62.53125 C 28.910156 -68.914062 42.582031 -72.109375 61.0625 -72.109375 L 85.40625 -72.109375 C 84.644531 -85.023438 76.003906 -91.484375 59.484375 -91.484375 C 53.628906 -91.484375 47.695312 -90.539062 41.6875 -88.65625 C 35.675781 -86.78125 30.566406 -84.191406 26.359375 -80.890625 L 11.9375 -109.953125 C 18.695312 -114.460938 26.921875 -117.957031 36.609375 -120.4375 C 46.304688 -122.914062 56.035156 -124.15625 65.796875 -124.15625 Z M 64.21875 -25.015625 C 69.175781 -25.015625 73.53125 -26.210938 77.28125 -28.609375 C 81.039062 -31.015625 83.75 -34.546875 85.40625 -39.203125 L 85.40625 -49.796875 L 66.921875 -49.796875 C 54.453125 -49.796875 48.21875 -45.664062 48.21875 -37.40625 C 48.21875 -33.644531 49.644531 -30.640625 52.5 -28.390625 C 55.351562 -26.140625 59.257812 -25.015625 64.21875 -25.015625 Z M 64.21875 -25.015625 "/></g></g></g><g fill="#ffffff" fill-opacity="1"><g transform="translate(1021.389599, 218.821959)"><g/></g></g><g fill="#ffffff" fill-opacity="1"><g transform="translate(1077.948434, 218.821959)"><g><path d="M 49.34375 -122.359375 L 0.90625 -122.359375 L 0.90625 -157.734375 L 142.1875 -157.734375 L 142.1875 -122.359375 L 93.96875 -122.359375 L 93.96875 0 L 49.34375 0 Z M 49.34375 -122.359375 "/></g></g></g><g fill="#ffffff" fill-opacity="1"><g transform="translate(1212.022564, 218.821959)"><g><path d="M 54.53125 -107.484375 C 58.882812 -113.035156 64.550781 -117.203125 71.53125 -119.984375 C 78.519531 -122.765625 86.523438 -124.15625 95.546875 -124.15625 L 95.546875 -85.625 C 91.640625 -86.070312 88.40625 -86.296875 85.84375 -86.296875 C 76.6875 -86.296875 69.515625 -83.816406 64.328125 -78.859375 C 59.148438 -73.898438 56.5625 -66.316406 56.5625 -56.109375 L 56.5625 0 L 13.75 0 L 13.75 -122.125 L 54.53125 -122.125 Z M 54.53125 -107.484375 "/></g></g></g><g fill="#ffffff" fill-opacity="1"><g transform="translate(1302.83236, 218.821959)"><g><path d="M 65.796875 -124.15625 C 86.078125 -124.15625 101.550781 -119.535156 112.21875 -110.296875 C 122.882812 -101.054688 128.21875 -86.898438 128.21875 -67.828125 L 128.21875 0 L 88.328125 0 L 88.328125 -15.765625 C 82.171875 -3.898438 70.15625 2.03125 52.28125 2.03125 C 42.8125 2.03125 34.617188 0.378906 27.703125 -2.921875 C 20.796875 -6.234375 15.578125 -10.703125 12.046875 -16.328125 C 8.523438 -21.960938 6.765625 -28.390625 6.765625 -35.609375 C 6.765625 -47.171875 11.191406 -56.144531 20.046875 -62.53125 C 28.910156 -68.914062 42.582031 -72.109375 61.0625 -72.109375 L 85.40625 -72.109375 C 84.644531 -85.023438 76.003906 -91.484375 59.484375 -91.484375 C 53.628906 -91.484375 47.695312 -90.539062 41.6875 -88.65625 C 35.675781 -86.78125 30.566406 -84.191406 26.359375 -80.890625 L 11.9375 -109.953125 C 18.695312 -114.460938 26.921875 -117.957031 36.609375 -120.4375 C 46.304688 -122.914062 56.035156 -124.15625 65.796875 -124.15625 Z M 64.21875 -25.015625 C 69.175781 -25.015625 73.53125 -26.210938 77.28125 -28.609375 C 81.039062 -31.015625 83.75 -34.546875 85.40625 -39.203125 L 85.40625 -49.796875 L 66.921875 -49.796875 C 54.453125 -49.796875 48.21875 -45.664062 48.21875 -37.40625 C 48.21875 -33.644531 49.644531 -30.640625 52.5 -28.390625 C 55.351562 -26.140625 59.257812 -25.015625 64.21875 -25.015625 Z M 64.21875 -25.015625 "/></g></g></g><g fill="#ffffff" fill-opacity="1"><g transform="translate(1435.329074, 218.821959)"><g><path d="M 143.53125 -167.1875 L 143.53125 0 L 102.75 0 L 102.75 -12.171875 C 94.789062 -2.703125 82.847656 2.03125 66.921875 2.03125 C 55.804688 2.03125 45.664062 -0.554688 36.5 -5.734375 C 27.34375 -10.921875 20.097656 -18.320312 14.765625 -27.9375 C 9.429688 -37.550781 6.765625 -48.671875 6.765625 -61.296875 C 6.765625 -73.910156 9.429688 -84.984375 14.765625 -94.515625 C 20.097656 -104.054688 27.34375 -111.378906 36.5 -116.484375 C 45.664062 -121.597656 55.804688 -124.15625 66.921875 -124.15625 C 81.492188 -124.15625 92.757812 -119.945312 100.71875 -111.53125 L 100.71875 -167.1875 Z M 75.9375 -32 C 83.300781 -32 89.382812 -34.585938 94.1875 -39.765625 C 98.988281 -44.953125 101.390625 -52.128906 101.390625 -61.296875 C 101.390625 -70.304688 99.023438 -77.363281 94.296875 -82.46875 C 89.566406 -87.570312 83.445312 -90.125 75.9375 -90.125 C 68.425781 -90.125 62.265625 -87.570312 57.453125 -82.46875 C 52.648438 -77.363281 50.25 -70.304688 50.25 -61.296875 C 50.25 -52.128906 52.648438 -44.953125 57.453125 -39.765625 C 62.265625 -34.585938 68.425781 -32 75.9375 -32 Z M 75.9375 -32 "/></g></g></g><g fill="#ffffff" fill-opacity="1"><g transform="translate(1583.599269, 218.821959)"><g><path d="M 142.1875 -122.125 L 142.1875 0 L 101.390625 0 L 101.390625 -13.0625 C 96.890625 -8.113281 91.484375 -4.359375 85.171875 -1.796875 C 78.859375 0.753906 72.175781 2.03125 65.125 2.03125 C 49.34375 2.03125 36.757812 -2.625 27.375 -11.9375 C 17.988281 -21.25 13.296875 -35.222656 13.296875 -53.859375 L 13.296875 -122.125 L 56.109375 -122.125 L 56.109375 -60.84375 C 56.109375 -51.675781 57.832031 -44.988281 61.28125 -40.78125 C 64.738281 -36.570312 69.773438 -34.46875 76.390625 -34.46875 C 83.148438 -34.46875 88.671875 -36.832031 92.953125 -41.5625 C 97.234375 -46.300781 99.375 -53.550781 99.375 -63.3125 L 99.375 -122.125 Z M 142.1875 -122.125 "/></g></g></g><g fill="#ffffff" fill-opacity="1"><g transform="translate(1730.517461, 218.821959)"><g><path d="M 76.15625 2.03125 C 62.632812 2.03125 50.539062 -0.671875 39.875 -6.078125 C 29.21875 -11.492188 20.921875 -19.003906 14.984375 -28.609375 C 9.046875 -38.222656 6.078125 -49.117188 6.078125 -61.296875 C 6.078125 -73.460938 9.046875 -84.3125 14.984375 -93.84375 C 20.921875 -103.382812 29.21875 -110.820312 39.875 -116.15625 C 50.539062 -121.488281 62.632812 -124.15625 76.15625 -124.15625 C 89.976562 -124.15625 101.921875 -121.1875 111.984375 -115.25 C 122.046875 -109.320312 129.179688 -101.097656 133.390625 -90.578125 L 100.265625 -73.6875 C 94.710938 -84.644531 86.601562 -90.125 75.9375 -90.125 C 68.269531 -90.125 61.921875 -87.570312 56.890625 -82.46875 C 51.859375 -77.363281 49.34375 -70.304688 49.34375 -61.296875 C 49.34375 -52.128906 51.859375 -44.953125 56.890625 -39.765625 C 61.921875 -34.585938 68.269531 -32 75.9375 -32 C 86.601562 -32 94.710938 -37.484375 100.265625 -48.453125 L 133.390625 -31.546875 C 129.179688 -21.023438 122.046875 -12.796875 111.984375 -6.859375 C 101.921875 -0.929688 89.976562 2.03125 76.15625 2.03125 Z M 76.15625 2.03125 "/></g></g></g><g fill="#ffffff" fill-opacity="1"><g transform="translate(1857.380853, 218.821959)"><g><path d="M 13.75 -122.125 L 56.5625 -122.125 L 56.5625 0 L 13.75 0 Z M 35.15625 -135.640625 C 27.34375 -135.640625 21.03125 -137.816406 16.21875 -142.171875 C 11.414062 -146.535156 9.015625 -151.945312 9.015625 -158.40625 C 9.015625 -164.863281 11.414062 -170.269531 16.21875 -174.625 C 21.03125 -178.976562 27.34375 -181.15625 35.15625 -181.15625 C 42.96875 -181.15625 49.273438 -179.085938 54.078125 -174.953125 C 58.890625 -170.828125 61.296875 -165.535156 61.296875 -159.078125 C 61.296875 -152.316406 58.890625 -146.71875 54.078125 -142.28125 C 49.273438 -137.851562 42.96875 -135.640625 35.15625 -135.640625 Z M 35.15625 -135.640625 "/></g></g></g><g fill="#ffffff" fill-opacity="1"><g transform="translate(1918.897157, 218.821959)"><g><path d="M 143.53125 -167.1875 L 143.53125 0 L 102.75 0 L 102.75 -12.171875 C 94.789062 -2.703125 82.847656 2.03125 66.921875 2.03125 C 55.804688 2.03125 45.664062 -0.554688 36.5 -5.734375 C 27.34375 -10.921875 20.097656 -18.320312 14.765625 -27.9375 C 9.429688 -37.550781 6.765625 -48.671875 6.765625 -61.296875 C 6.765625 -73.910156 9.429688 -84.984375 14.765625 -94.515625 C 20.097656 -104.054688 27.34375 -111.378906 36.5 -116.484375 C 45.664062 -121.597656 55.804688 -124.15625 66.921875 -124.15625 C 81.492188 -124.15625 92.757812 -119.945312 100.71875 -111.53125 L 100.71875 -167.1875 Z M 75.9375 -32 C 83.300781 -32 89.382812 -34.585938 94.1875 -39.765625 C 98.988281 -44.953125 101.390625 -52.128906 101.390625 -61.296875 C 101.390625 -70.304688 99.023438 -77.363281 94.296875 -82.46875 C 89.566406 -87.570312 83.445312 -90.125 75.9375 -90.125 C 68.425781 -90.125 62.265625 -87.570312 57.453125 -82.46875 C 52.648438 -77.363281 50.25 -70.304688 50.25 -61.296875 C 50.25 -52.128906 52.648438 -44.953125 57.453125 -39.765625 C 62.265625 -34.585938 68.425781 -32 75.9375 -32 Z M 75.9375 -32 "/></g></g></g><g fill="#ffffff" fill-opacity="1"><g transform="translate(2067.167255, 218.821959)"><g><path d="M 65.796875 -124.15625 C 86.078125 -124.15625 101.550781 -119.535156 112.21875 -110.296875 C 122.882812 -101.054688 128.21875 -86.898438 128.21875 -67.828125 L 128.21875 0 L 88.328125 0 L 88.328125 -15.765625 C 82.171875 -3.898438 70.15625 2.03125 52.28125 2.03125 C 42.8125 2.03125 34.617188 0.378906 27.703125 -2.921875 C 20.796875 -6.234375 15.578125 -10.703125 12.046875 -16.328125 C 8.523438 -21.960938 6.765625 -28.390625 6.765625 -35.609375 C 6.765625 -47.171875 11.191406 -56.144531 20.046875 -62.53125 C 28.910156 -68.914062 42.582031 -72.109375 61.0625 -72.109375 L 85.40625 -72.109375 C 84.644531 -85.023438 76.003906 -91.484375 59.484375 -91.484375 C 53.628906 -91.484375 47.695312 -90.539062 41.6875 -88.65625 C 35.675781 -86.78125 30.566406 -84.191406 26.359375 -80.890625 L 11.9375 -109.953125 C 18.695312 -114.460938 26.921875 -117.957031 36.609375 -120.4375 C 46.304688 -122.914062 56.035156 -124.15625 65.796875 -124.15625 Z M 64.21875 -25.015625 C 69.175781 -25.015625 73.53125 -26.210938 77.28125 -28.609375 C 81.039062 -31.015625 83.75 -34.546875 85.40625 -39.203125 L 85.40625 -49.796875 L 66.921875 -49.796875 C 54.453125 -49.796875 48.21875 -45.664062 48.21875 -37.40625 C 48.21875 -33.644531 49.644531 -30.640625 52.5 -28.390625 C 55.351562 -26.140625 59.257812 -25.015625 64.21875 -25.015625 Z M 64.21875 -25.015625 "/></g></g></g></g></g></svg>