<svg xmlns="http://www.w3.org/2000/svg" xmlns:xlink="http://www.w3.org/1999/xlink" width="1500" zoomAndPan="magnify" viewBox="0 0 1125 562.499983" height="750" preserveAspectRatio="xMidYMid meet" version="1.0"><defs><g/></defs><g fill="#029ef8" fill-opacity="1"><g transform="translate(78.786555, 248.029512)"><g><path d="M 153.109375 0 L 152.671875 -80.921875 L 113.421875 -15.046875 L 94.21875 -15.046875 L 55.1875 -78.734375 L 55.1875 0 L 15.265625 0 L 15.265625 -152.671875 L 50.8125 -152.671875 L 104.46875 -64.5625 L 156.828125 -152.671875 L 192.375 -152.671875 L 192.8125 0 Z M 153.109375 0 "/></g></g></g><g fill="#029ef8" fill-opacity="1"><g transform="translate(278.137398, 248.029512)"><g><path d="M 134.140625 -58.890625 C 134.140625 -58.597656 133.921875 -55.179688 133.484375 -48.640625 L 47.546875 -48.640625 C 49.296875 -42.535156 52.675781 -37.84375 57.6875 -34.5625 C 62.707031 -31.289062 69 -29.65625 76.5625 -29.65625 C 82.226562 -29.65625 87.132812 -30.457031 91.28125 -32.0625 C 95.425781 -33.664062 99.601562 -36.28125 103.8125 -39.90625 L 125.625 -17.234375 C 114.144531 -4.429688 97.351562 1.96875 75.25 1.96875 C 61.4375 1.96875 49.296875 -0.644531 38.828125 -5.875 C 28.359375 -11.113281 20.25 -18.382812 14.5 -27.6875 C 8.757812 -37 5.890625 -47.546875 5.890625 -59.328125 C 5.890625 -70.960938 8.6875 -81.394531 14.28125 -90.625 C 19.882812 -99.851562 27.628906 -107.082031 37.515625 -112.3125 C 47.398438 -117.550781 58.523438 -120.171875 70.890625 -120.171875 C 82.660156 -120.171875 93.34375 -117.734375 102.9375 -112.859375 C 112.539062 -107.992188 120.140625 -100.941406 125.734375 -91.703125 C 131.335938 -82.472656 134.140625 -71.535156 134.140625 -58.890625 Z M 71.109375 -90.734375 C 64.703125 -90.734375 59.351562 -88.914062 55.0625 -85.28125 C 50.78125 -81.644531 48.054688 -76.703125 46.890625 -70.453125 L 95.3125 -70.453125 C 94.144531 -76.703125 91.414062 -81.644531 87.125 -85.28125 C 82.84375 -88.914062 77.503906 -90.734375 71.109375 -90.734375 Z M 71.109375 -90.734375 "/></g></g></g><g fill="#029ef8" fill-opacity="1"><g transform="translate(409.438541, 248.029512)"><g><path d="M 138.9375 -161.84375 L 138.9375 0 L 99.453125 0 L 99.453125 -11.78125 C 91.742188 -2.613281 80.1875 1.96875 64.78125 1.96875 C 54.019531 1.96875 44.203125 -0.539062 35.328125 -5.5625 C 26.460938 -10.582031 19.445312 -17.742188 14.28125 -27.046875 C 9.125 -36.347656 6.546875 -47.109375 6.546875 -59.328125 C 6.546875 -71.535156 9.125 -82.253906 14.28125 -91.484375 C 19.445312 -100.722656 26.460938 -107.8125 35.328125 -112.75 C 44.203125 -117.695312 54.019531 -120.171875 64.78125 -120.171875 C 78.882812 -120.171875 89.789062 -116.101562 97.5 -107.96875 L 97.5 -161.84375 Z M 73.5 -30.96875 C 80.625 -30.96875 86.515625 -33.472656 91.171875 -38.484375 C 95.828125 -43.503906 98.15625 -50.453125 98.15625 -59.328125 C 98.15625 -68.046875 95.863281 -74.878906 91.28125 -79.828125 C 86.695312 -84.773438 80.769531 -87.25 73.5 -87.25 C 66.226562 -87.25 60.265625 -84.773438 55.609375 -79.828125 C 50.960938 -74.878906 48.640625 -68.046875 48.640625 -59.328125 C 48.640625 -50.453125 50.960938 -43.503906 55.609375 -38.484375 C 60.265625 -33.472656 66.226562 -30.96875 73.5 -30.96875 Z M 73.5 -30.96875 "/></g></g></g><g fill="#029ef8" fill-opacity="1"><g transform="translate(552.953677, 248.029512)"><g><path d="M 13.296875 -118.21875 L 54.75 -118.21875 L 54.75 0 L 13.296875 0 Z M 34.015625 -131.296875 C 26.453125 -131.296875 20.34375 -133.40625 15.6875 -137.625 C 11.039062 -141.84375 8.71875 -147.078125 8.71875 -153.328125 C 8.71875 -159.578125 11.039062 -164.8125 15.6875 -169.03125 C 20.34375 -173.25 26.453125 -175.359375 34.015625 -175.359375 C 41.578125 -175.359375 47.6875 -173.359375 52.34375 -169.359375 C 57 -165.359375 59.328125 -160.234375 59.328125 -153.984375 C 59.328125 -147.441406 57 -142.023438 52.34375 -137.734375 C 47.6875 -133.441406 41.578125 -131.296875 34.015625 -131.296875 Z M 34.015625 -131.296875 "/></g></g></g><g fill="#029ef8" fill-opacity="1"><g transform="translate(612.497135, 248.029512)"><g><path d="M 73.71875 1.96875 C 60.632812 1.96875 48.929688 -0.644531 38.609375 -5.875 C 28.285156 -11.113281 20.25 -18.382812 14.5 -27.6875 C 8.757812 -37 5.890625 -47.546875 5.890625 -59.328125 C 5.890625 -71.109375 8.757812 -81.613281 14.5 -90.84375 C 20.25 -100.070312 28.285156 -107.265625 38.609375 -112.421875 C 48.929688 -117.585938 60.632812 -120.171875 73.71875 -120.171875 C 87.09375 -120.171875 98.648438 -117.300781 108.390625 -111.5625 C 118.140625 -105.820312 125.050781 -97.863281 129.125 -87.6875 L 97.0625 -71.328125 C 91.675781 -81.941406 83.820312 -87.25 73.5 -87.25 C 66.082031 -87.25 59.9375 -84.773438 55.0625 -79.828125 C 50.195312 -74.878906 47.765625 -68.046875 47.765625 -59.328125 C 47.765625 -50.453125 50.195312 -43.503906 55.0625 -38.484375 C 59.9375 -33.472656 66.082031 -30.96875 73.5 -30.96875 C 83.820312 -30.96875 91.675781 -36.273438 97.0625 -46.890625 L 129.125 -30.53125 C 125.050781 -20.351562 118.140625 -12.390625 108.390625 -6.640625 C 98.648438 -0.898438 87.09375 1.96875 73.71875 1.96875 Z M 73.71875 1.96875 "/></g></g></g><g fill="#029ef8" fill-opacity="1"><g transform="translate(735.292028, 248.029512)"><g><path d="M 13.296875 -118.21875 L 54.75 -118.21875 L 54.75 0 L 13.296875 0 Z M 34.015625 -131.296875 C 26.453125 -131.296875 20.34375 -133.40625 15.6875 -137.625 C 11.039062 -141.84375 8.71875 -147.078125 8.71875 -153.328125 C 8.71875 -159.578125 11.039062 -164.8125 15.6875 -169.03125 C 20.34375 -173.25 26.453125 -175.359375 34.015625 -175.359375 C 41.578125 -175.359375 47.6875 -173.359375 52.34375 -169.359375 C 57 -165.359375 59.328125 -160.234375 59.328125 -153.984375 C 59.328125 -147.441406 57 -142.023438 52.34375 -137.734375 C 47.6875 -133.441406 41.578125 -131.296875 34.015625 -131.296875 Z M 34.015625 -131.296875 "/></g></g></g><g fill="#029ef8" fill-opacity="1"><g transform="translate(794.835531, 248.029512)"><g><path d="M 90.296875 -120.171875 C 104.984375 -120.171875 116.796875 -115.804688 125.734375 -107.078125 C 134.679688 -98.359375 139.15625 -85.203125 139.15625 -67.609375 L 139.15625 0 L 97.71875 0 L 97.71875 -60.859375 C 97.71875 -76.992188 91.242188 -85.0625 78.296875 -85.0625 C 71.171875 -85.0625 65.460938 -82.734375 61.171875 -78.078125 C 56.890625 -73.429688 54.75 -66.453125 54.75 -57.140625 L 54.75 0 L 13.296875 0 L 13.296875 -118.21875 L 52.78125 -118.21875 L 52.78125 -105.34375 C 57.4375 -110.144531 62.960938 -113.816406 69.359375 -116.359375 C 75.753906 -118.898438 82.734375 -120.171875 90.296875 -120.171875 Z M 90.296875 -120.171875 "/></g></g></g><g fill="#029ef8" fill-opacity="1"><g transform="translate(937.914487, 248.029512)"><g><path d="M 63.6875 -120.171875 C 83.3125 -120.171875 98.285156 -115.695312 108.609375 -106.75 C 118.941406 -97.8125 124.109375 -84.113281 124.109375 -65.65625 L 124.109375 0 L 85.5 0 L 85.5 -15.265625 C 79.539062 -3.773438 67.90625 1.96875 50.59375 1.96875 C 41.4375 1.96875 33.515625 0.367188 26.828125 -2.828125 C 20.140625 -6.035156 15.085938 -10.363281 11.671875 -15.8125 C 8.253906 -21.257812 6.546875 -27.476562 6.546875 -34.46875 C 6.546875 -45.65625 10.832031 -54.335938 19.40625 -60.515625 C 27.988281 -66.703125 41.222656 -69.796875 59.109375 -69.796875 L 82.65625 -69.796875 C 81.9375 -82.296875 73.578125 -88.546875 57.578125 -88.546875 C 51.910156 -88.546875 46.164062 -87.632812 40.34375 -85.8125 C 34.53125 -84 29.585938 -81.492188 25.515625 -78.296875 L 11.5625 -106.4375 C 18.101562 -110.800781 26.0625 -114.179688 35.4375 -116.578125 C 44.820312 -118.972656 54.238281 -120.171875 63.6875 -120.171875 Z M 62.15625 -24.203125 C 66.957031 -24.203125 71.175781 -25.363281 74.8125 -27.6875 C 78.445312 -30.019531 81.0625 -33.441406 82.65625 -37.953125 L 82.65625 -48.203125 L 64.78125 -48.203125 C 52.707031 -48.203125 46.671875 -44.203125 46.671875 -36.203125 C 46.671875 -32.566406 48.050781 -29.65625 50.8125 -27.46875 C 53.582031 -25.289062 57.363281 -24.203125 62.15625 -24.203125 Z M 62.15625 -24.203125 "/></g></g></g><g fill="#029ef8" fill-opacity="1"><g transform="translate(30.583312, 466.085668)"><g><path d="M 47.765625 -118.4375 L 0.875 -118.4375 L 0.875 -152.671875 L 137.625 -152.671875 L 137.625 -118.4375 L 90.953125 -118.4375 L 90.953125 0 L 47.765625 0 Z M 47.765625 -118.4375 "/></g></g></g><g fill="#029ef8" fill-opacity="1"><g transform="translate(157.958486, 466.085668)"><g><path d="M 52.78125 -104.03125 C 57 -109.414062 62.488281 -113.453125 69.25 -116.140625 C 76.007812 -118.828125 83.753906 -120.171875 92.484375 -120.171875 L 92.484375 -82.875 C 88.703125 -83.3125 85.570312 -83.53125 83.09375 -83.53125 C 74.226562 -83.53125 67.285156 -81.128906 62.265625 -76.328125 C 57.253906 -71.535156 54.75 -64.195312 54.75 -54.3125 L 54.75 0 L 13.296875 0 L 13.296875 -118.21875 L 52.78125 -118.21875 Z M 52.78125 -104.03125 "/></g></g></g><g fill="#029ef8" fill-opacity="1"><g transform="translate(244.547424, 466.085668)"><g><path d="M 63.6875 -120.171875 C 83.3125 -120.171875 98.285156 -115.695312 108.609375 -106.75 C 118.941406 -97.8125 124.109375 -84.113281 124.109375 -65.65625 L 124.109375 0 L 85.5 0 L 85.5 -15.265625 C 79.539062 -3.773438 67.90625 1.96875 50.59375 1.96875 C 41.4375 1.96875 33.515625 0.367188 26.828125 -2.828125 C 20.140625 -6.035156 15.085938 -10.363281 11.671875 -15.8125 C 8.253906 -21.257812 6.546875 -27.476562 6.546875 -34.46875 C 6.546875 -45.65625 10.832031 -54.335938 19.40625 -60.515625 C 27.988281 -66.703125 41.222656 -69.796875 59.109375 -69.796875 L 82.65625 -69.796875 C 81.9375 -82.296875 73.578125 -88.546875 57.578125 -88.546875 C 51.910156 -88.546875 46.164062 -87.632812 40.34375 -85.8125 C 34.53125 -84 29.585938 -81.492188 25.515625 -78.296875 L 11.5625 -106.4375 C 18.101562 -110.800781 26.0625 -114.179688 35.4375 -116.578125 C 44.820312 -118.972656 54.238281 -120.171875 63.6875 -120.171875 Z M 62.15625 -24.203125 C 66.957031 -24.203125 71.175781 -25.363281 74.8125 -27.6875 C 78.445312 -30.019531 81.0625 -33.441406 82.65625 -37.953125 L 82.65625 -48.203125 L 64.78125 -48.203125 C 52.707031 -48.203125 46.671875 -44.203125 46.671875 -36.203125 C 46.671875 -32.566406 48.050781 -29.65625 50.8125 -27.46875 C 53.582031 -25.289062 57.363281 -24.203125 62.15625 -24.203125 Z M 62.15625 -24.203125 "/></g></g></g><g fill="#029ef8" fill-opacity="1"><g transform="translate(374.539864, 466.085668)"><g><path d="M 138.9375 -161.84375 L 138.9375 0 L 99.453125 0 L 99.453125 -11.78125 C 91.742188 -2.613281 80.1875 1.96875 64.78125 1.96875 C 54.019531 1.96875 44.203125 -0.539062 35.328125 -5.5625 C 26.460938 -10.582031 19.445312 -17.742188 14.28125 -27.046875 C 9.125 -36.347656 6.546875 -47.109375 6.546875 -59.328125 C 6.546875 -71.535156 9.125 -82.253906 14.28125 -91.484375 C 19.445312 -100.722656 26.460938 -107.8125 35.328125 -112.75 C 44.203125 -117.695312 54.019531 -120.171875 64.78125 -120.171875 C 78.882812 -120.171875 89.789062 -116.101562 97.5 -107.96875 L 97.5 -161.84375 Z M 73.5 -30.96875 C 80.625 -30.96875 86.515625 -33.472656 91.171875 -38.484375 C 95.828125 -43.503906 98.15625 -50.453125 98.15625 -59.328125 C 98.15625 -68.046875 95.863281 -74.878906 91.28125 -79.828125 C 86.695312 -84.773438 80.769531 -87.25 73.5 -87.25 C 66.226562 -87.25 60.265625 -84.773438 55.609375 -79.828125 C 50.960938 -74.878906 48.640625 -68.046875 48.640625 -59.328125 C 48.640625 -50.453125 50.960938 -43.503906 55.609375 -38.484375 C 60.265625 -33.472656 66.226562 -30.96875 73.5 -30.96875 Z M 73.5 -30.96875 "/></g></g></g><g fill="#029ef8" fill-opacity="1"><g transform="translate(518.054999, 466.085668)"><g><path d="M 137.625 -118.21875 L 137.625 0 L 98.15625 0 L 98.15625 -12.65625 C 93.789062 -7.851562 88.550781 -4.210938 82.4375 -1.734375 C 76.332031 0.734375 69.863281 1.96875 63.03125 1.96875 C 47.757812 1.96875 35.582031 -2.535156 26.5 -11.546875 C 17.414062 -20.566406 12.875 -34.09375 12.875 -52.125 L 12.875 -118.21875 L 54.3125 -118.21875 L 54.3125 -58.890625 C 54.3125 -50.015625 55.984375 -43.539062 59.328125 -39.46875 C 62.671875 -35.40625 67.539062 -33.375 73.9375 -33.375 C 80.476562 -33.375 85.820312 -35.660156 89.96875 -40.234375 C 94.113281 -44.816406 96.1875 -51.832031 96.1875 -61.28125 L 96.1875 -118.21875 Z M 137.625 -118.21875 "/></g></g></g><g fill="#029ef8" fill-opacity="1"><g transform="translate(660.261498, 466.085668)"><g><path d="M 73.71875 1.96875 C 60.632812 1.96875 48.929688 -0.644531 38.609375 -5.875 C 28.285156 -11.113281 20.25 -18.382812 14.5 -27.6875 C 8.757812 -37 5.890625 -47.546875 5.890625 -59.328125 C 5.890625 -71.109375 8.757812 -81.613281 14.5 -90.84375 C 20.25 -100.070312 28.285156 -107.265625 38.609375 -112.421875 C 48.929688 -117.585938 60.632812 -120.171875 73.71875 -120.171875 C 87.09375 -120.171875 98.648438 -117.300781 108.390625 -111.5625 C 118.140625 -105.820312 125.050781 -97.863281 129.125 -87.6875 L 97.0625 -71.328125 C 91.675781 -81.941406 83.820312 -87.25 73.5 -87.25 C 66.082031 -87.25 59.9375 -84.773438 55.0625 -79.828125 C 50.195312 -74.878906 47.765625 -68.046875 47.765625 -59.328125 C 47.765625 -50.453125 50.195312 -43.503906 55.0625 -38.484375 C 59.9375 -33.472656 66.082031 -30.96875 73.5 -30.96875 C 83.820312 -30.96875 91.675781 -36.273438 97.0625 -46.890625 L 129.125 -30.53125 C 125.050781 -20.351562 118.140625 -12.390625 108.390625 -6.640625 C 98.648438 -0.898438 87.09375 1.96875 73.71875 1.96875 Z M 73.71875 1.96875 "/></g></g></g><g fill="#029ef8" fill-opacity="1"><g transform="translate(783.056391, 466.085668)"><g><path d="M 13.296875 -118.21875 L 54.75 -118.21875 L 54.75 0 L 13.296875 0 Z M 34.015625 -131.296875 C 26.453125 -131.296875 20.34375 -133.40625 15.6875 -137.625 C 11.039062 -141.84375 8.71875 -147.078125 8.71875 -153.328125 C 8.71875 -159.578125 11.039062 -164.8125 15.6875 -169.03125 C 20.34375 -173.25 26.453125 -175.359375 34.015625 -175.359375 C 41.578125 -175.359375 47.6875 -173.359375 52.34375 -169.359375 C 57 -165.359375 59.328125 -160.234375 59.328125 -153.984375 C 59.328125 -147.441406 57 -142.023438 52.34375 -137.734375 C 47.6875 -133.441406 41.578125 -131.296875 34.015625 -131.296875 Z M 34.015625 -131.296875 "/></g></g></g><g fill="#029ef8" fill-opacity="1"><g transform="translate(842.599803, 466.085668)"><g><path d="M 138.9375 -161.84375 L 138.9375 0 L 99.453125 0 L 99.453125 -11.78125 C 91.742188 -2.613281 80.1875 1.96875 64.78125 1.96875 C 54.019531 1.96875 44.203125 -0.539062 35.328125 -5.5625 C 26.460938 -10.582031 19.445312 -17.742188 14.28125 -27.046875 C 9.125 -36.347656 6.546875 -47.109375 6.546875 -59.328125 C 6.546875 -71.535156 9.125 -82.253906 14.28125 -91.484375 C 19.445312 -100.722656 26.460938 -107.8125 35.328125 -112.75 C 44.203125 -117.695312 54.019531 -120.171875 64.78125 -120.171875 C 78.882812 -120.171875 89.789062 -116.101562 97.5 -107.96875 L 97.5 -161.84375 Z M 73.5 -30.96875 C 80.625 -30.96875 86.515625 -33.472656 91.171875 -38.484375 C 95.828125 -43.503906 98.15625 -50.453125 98.15625 -59.328125 C 98.15625 -68.046875 95.863281 -74.878906 91.28125 -79.828125 C 86.695312 -84.773438 80.769531 -87.25 73.5 -87.25 C 66.226562 -87.25 60.265625 -84.773438 55.609375 -79.828125 C 50.960938 -74.878906 48.640625 -68.046875 48.640625 -59.328125 C 48.640625 -50.453125 50.960938 -43.503906 55.609375 -38.484375 C 60.265625 -33.472656 66.226562 -30.96875 73.5 -30.96875 Z M 73.5 -30.96875 "/></g></g></g><g fill="#029ef8" fill-opacity="1"><g transform="translate(986.114984, 466.085668)"><g><path d="M 63.6875 -120.171875 C 83.3125 -120.171875 98.285156 -115.695312 108.609375 -106.75 C 118.941406 -97.8125 124.109375 -84.113281 124.109375 -65.65625 L 124.109375 0 L 85.5 0 L 85.5 -15.265625 C 79.539062 -3.773438 67.90625 1.96875 50.59375 1.96875 C 41.4375 1.96875 33.515625 0.367188 26.828125 -2.828125 C 20.140625 -6.035156 15.085938 -10.363281 11.671875 -15.8125 C 8.253906 -21.257812 6.546875 -27.476562 6.546875 -34.46875 C 6.546875 -45.65625 10.832031 -54.335938 19.40625 -60.515625 C 27.988281 -66.703125 41.222656 -69.796875 59.109375 -69.796875 L 82.65625 -69.796875 C 81.9375 -82.296875 73.578125 -88.546875 57.578125 -88.546875 C 51.910156 -88.546875 46.164062 -87.632812 40.34375 -85.8125 C 34.53125 -84 29.585938 -81.492188 25.515625 -78.296875 L 11.5625 -106.4375 C 18.101562 -110.800781 26.0625 -114.179688 35.4375 -116.578125 C 44.820312 -118.972656 54.238281 -120.171875 63.6875 -120.171875 Z M 62.15625 -24.203125 C 66.957031 -24.203125 71.175781 -25.363281 74.8125 -27.6875 C 78.445312 -30.019531 81.0625 -33.441406 82.65625 -37.953125 L 82.65625 -48.203125 L 64.78125 -48.203125 C 52.707031 -48.203125 46.671875 -44.203125 46.671875 -36.203125 C 46.671875 -32.566406 48.050781 -29.65625 50.8125 -27.46875 C 53.582031 -25.289062 57.363281 -24.203125 62.15625 -24.203125 Z M 62.15625 -24.203125 "/></g></g></g><g fill="#029ef8" fill-opacity="1"><g transform="translate(64.439914, 234.461171)"><g><path d="M 148.339844 0.0273438 L 147.90625 -80.894531 L 152.675781 -80.917969 L 156.773438 -78.476562 L 116.128906 -10.277344 L 91.550781 -10.277344 L 51.113281 -76.242188 L 55.179688 -78.738281 L 59.953125 -78.738281 L 59.953125 4.769531 L 10.496094 4.769531 L 10.496094 -157.445312 L 53.5 -157.445312 L 108.550781 -67.042969 L 104.472656 -64.558594 L 100.371094 -66.996094 L 154.105469 -157.445312 L 197.128906 -157.445312 L 197.59375 4.769531 L 148.367188 4.769531 Z M 157.882812 -0.0273438 L 153.113281 0 L 153.113281 -4.769531 L 192.808594 -4.769531 L 192.808594 0 L 188.035156 0.0117188 L 187.601562 -152.664062 L 192.371094 -152.675781 L 192.371094 -147.90625 L 156.820312 -147.90625 L 156.820312 -152.675781 L 160.921875 -150.238281 L 104.523438 -55.304688 L 46.746094 -150.195312 L 50.820312 -152.675781 L 50.820312 -147.90625 L 15.269531 -147.90625 L 15.269531 -152.675781 L 20.039062 -152.675781 L 20.039062 0 L 15.269531 0 L 15.269531 -4.769531 L 55.179688 -4.769531 L 55.179688 0 L 50.410156 0 L 50.410156 -95.648438 L 98.289062 -17.542969 L 94.222656 -15.050781 L 94.222656 -19.820312 L 113.417969 -19.820312 L 113.417969 -15.050781 L 109.316406 -17.492188 L 157.355469 -98.085938 Z M 157.882812 -0.0273438 "/></g></g></g><g fill="#029ef8" fill-opacity="1"><g transform="translate(263.790756, 234.461171)"><g><path d="M 138.90625 -58.890625 C 138.90625 -58.492188 138.6875 -54.96875 138.242188 -48.320312 L 137.945312 -43.867188 L 47.546875 -43.867188 L 47.546875 -48.636719 L 52.136719 -49.949219 C 53.554688 -44.984375 56.273438 -41.191406 60.296875 -38.566406 C 64.519531 -35.8125 69.941406 -34.433594 76.554688 -34.433594 C 81.632812 -34.433594 85.96875 -35.128906 89.558594 -36.511719 C 93.191406 -37.914062 96.90625 -40.253906 100.703125 -43.527344 L 104.128906 -46.476562 L 132.140625 -17.34375 L 129.179688 -14.042969 C 116.746094 -0.191406 98.769531 6.734375 75.246094 6.734375 C 60.683594 6.734375 47.832031 3.949219 36.691406 -1.621094 C 25.410156 -7.261719 16.664062 -15.117188 10.445312 -25.195312 C 4.226562 -35.269531 1.117188 -46.644531 1.117188 -59.324219 C 1.117188 -71.847656 4.148438 -83.105469 10.207031 -93.097656 C 16.261719 -103.082031 24.617188 -110.898438 35.28125 -116.542969 C 45.867188 -122.148438 57.734375 -124.949219 70.886719 -124.949219 C 83.425781 -124.949219 94.832031 -122.339844 105.105469 -117.125 C 115.511719 -111.84375 123.75 -104.199219 129.820312 -94.1875 C 135.878906 -84.195312 138.90625 -72.429688 138.90625 -58.890625 Z M 129.367188 -58.890625 C 129.367188 -70.652344 126.796875 -80.769531 121.660156 -89.242188 C 116.53125 -97.699219 109.574219 -104.15625 100.789062 -108.617188 C 91.871094 -113.144531 81.902344 -115.40625 70.886719 -115.40625 C 59.316406 -115.40625 48.9375 -112.972656 39.746094 -108.109375 C 30.636719 -103.285156 23.507812 -96.632812 18.367188 -88.152344 C 13.230469 -79.675781 10.660156 -70.070312 10.660156 -59.324219 C 10.660156 -48.449219 13.292969 -38.742188 18.5625 -30.207031 C 23.832031 -21.667969 31.296875 -14.988281 40.957031 -10.15625 C 50.753906 -5.257812 62.183594 -2.808594 75.246094 -2.808594 C 95.929688 -2.808594 111.542969 -8.679688 122.082031 -20.417969 L 125.628906 -17.230469 L 122.191406 -13.921875 L 100.378906 -36.605469 L 103.820312 -39.914062 L 106.933594 -36.300781 C 102.300781 -32.304688 97.65625 -29.410156 92.996094 -27.609375 C 88.300781 -25.796875 82.820312 -24.890625 76.554688 -24.890625 C 68.050781 -24.890625 60.890625 -26.785156 55.082031 -30.574219 C 49.074219 -34.492188 45.03125 -40.078125 42.960938 -47.328125 L 41.222656 -53.410156 L 133.484375 -53.410156 L 133.484375 -48.636719 L 128.722656 -48.957031 C 129.152344 -55.394531 129.367188 -58.703125 129.367188 -58.890625 Z M 71.101562 -85.960938 C 65.871094 -85.960938 61.554688 -84.523438 58.15625 -81.640625 C 54.730469 -78.738281 52.539062 -74.714844 51.585938 -69.578125 L 46.894531 -70.449219 L 46.894531 -75.21875 L 95.3125 -75.21875 L 95.3125 -70.449219 L 90.621094 -69.578125 C 89.667969 -74.714844 87.476562 -78.738281 84.050781 -81.640625 C 80.648438 -84.523438 76.335938 -85.960938 71.101562 -85.960938 Z M 71.101562 -95.503906 C 78.667969 -95.503906 85.039062 -93.308594 90.21875 -88.921875 C 95.371094 -84.554688 98.632812 -78.6875 100.003906 -71.320312 L 101.054688 -65.679688 L 41.152344 -65.679688 L 42.203125 -71.320312 C 43.574219 -78.6875 46.835938 -84.554688 51.988281 -88.921875 C 57.167969 -93.308594 63.539062 -95.503906 71.101562 -95.503906 Z M 71.101562 -95.503906 "/></g></g></g><g fill="#029ef8" fill-opacity="1"><g transform="translate(395.0919, 234.461171)"><g><path d="M 143.707031 -161.835938 L 143.707031 4.769531 L 94.6875 4.769531 L 94.6875 -11.777344 L 99.457031 -11.777344 L 103.109375 -8.707031 C 94.449219 1.585938 81.671875 6.734375 64.777344 6.734375 C 53.179688 6.734375 42.582031 4.019531 32.984375 -1.410156 C 23.335938 -6.867188 15.710938 -14.640625 10.113281 -24.730469 C 4.550781 -34.757812 1.773438 -46.289062 1.773438 -59.324219 C 1.773438 -72.367188 4.554688 -83.867188 10.121094 -93.824219 C 15.722656 -103.84375 23.351562 -111.546875 33.011719 -116.929688 C 42.601562 -122.277344 53.191406 -124.949219 64.777344 -124.949219 C 80.25 -124.949219 92.3125 -120.378906 100.960938 -111.242188 L 97.496094 -107.964844 L 92.722656 -107.964844 L 92.722656 -166.609375 L 143.707031 -166.609375 Z M 134.164062 -161.835938 L 138.933594 -161.835938 L 138.933594 -157.066406 L 97.496094 -157.066406 L 97.496094 -161.835938 L 102.265625 -161.835938 L 102.265625 -95.980469 L 94.027344 -104.683594 C 87.265625 -111.832031 77.511719 -115.40625 64.777344 -115.40625 C 54.84375 -115.40625 45.804688 -113.136719 37.65625 -108.59375 C 29.574219 -104.089844 23.171875 -97.613281 18.449219 -89.167969 C 13.691406 -80.660156 11.3125 -70.710938 11.3125 -59.324219 C 11.3125 -47.933594 13.695312 -37.945312 18.457031 -29.359375 C 23.183594 -20.839844 29.59375 -14.289062 37.683594 -9.714844 C 45.824219 -5.109375 54.855469 -2.808594 64.777344 -2.808594 C 78.710938 -2.808594 89.054688 -6.820312 95.804688 -14.847656 L 104.230469 -24.859375 L 104.230469 0 L 99.457031 0 L 99.457031 -4.769531 L 138.933594 -4.769531 L 138.933594 0 L 134.164062 0 Z M 73.503906 -35.742188 C 79.238281 -35.742188 83.960938 -37.742188 87.671875 -41.742188 C 91.476562 -45.84375 93.378906 -51.703125 93.378906 -59.324219 C 93.378906 -66.804688 91.511719 -72.554688 87.777344 -76.585938 C 84.140625 -80.511719 79.382812 -82.472656 73.503906 -82.472656 C 67.605469 -82.472656 62.804688 -80.5 59.09375 -76.558594 C 55.304688 -72.53125 53.410156 -66.789062 53.410156 -59.324219 C 53.410156 -51.703125 55.3125 -45.84375 59.117188 -41.742188 C 62.824219 -37.742188 67.621094 -35.742188 73.503906 -35.742188 Z M 73.503906 -26.199219 C 64.84375 -26.199219 57.714844 -29.21875 52.121094 -35.25 C 46.617188 -41.183594 43.867188 -49.207031 43.867188 -59.324219 C 43.867188 -69.3125 46.625 -77.234375 52.144531 -83.097656 C 57.738281 -89.042969 64.859375 -92.015625 73.503906 -92.015625 C 82.160156 -92.015625 89.253906 -89.03125 94.777344 -83.070312 C 100.207031 -77.210938 102.921875 -69.296875 102.921875 -59.324219 C 102.921875 -49.207031 100.167969 -41.183594 94.667969 -35.25 C 89.070312 -29.21875 82.015625 -26.199219 73.503906 -26.199219 Z M 73.503906 -26.199219 "/></g></g></g><g fill="#029ef8" fill-opacity="1"><g transform="translate(538.607035, 234.461171)"><g><path d="M 13.304688 -122.984375 L 59.515625 -122.984375 L 59.515625 4.769531 L 8.535156 4.769531 L 8.535156 -122.984375 Z M 13.304688 -113.445312 L 13.304688 -118.214844 L 18.074219 -118.214844 L 18.074219 0 L 13.304688 0 L 13.304688 -4.769531 L 54.746094 -4.769531 L 54.746094 0 L 49.972656 0 L 49.972656 -118.214844 L 54.746094 -118.214844 L 54.746094 -113.445312 Z M 34.023438 -126.53125 C 25.238281 -126.53125 18.0625 -129.050781 12.5 -134.089844 C 6.800781 -139.253906 3.953125 -145.667969 3.953125 -153.332031 C 3.953125 -160.992188 6.800781 -167.40625 12.5 -172.570312 C 18.0625 -177.609375 25.238281 -180.128906 34.023438 -180.128906 C 42.765625 -180.128906 49.910156 -177.746094 55.457031 -172.980469 C 61.214844 -168.03125 64.097656 -161.699219 64.097656 -153.984375 C 64.097656 -146.046875 61.257812 -139.460938 55.578125 -134.226562 C 50.011719 -129.097656 42.828125 -126.53125 34.023438 -126.53125 Z M 34.023438 -136.074219 C 40.34375 -136.074219 45.371094 -137.796875 49.113281 -141.242188 C 52.742188 -144.589844 54.554688 -148.835938 54.554688 -153.984375 C 54.554688 -158.777344 52.78125 -162.695312 49.238281 -165.742188 C 45.476562 -168.972656 40.40625 -170.589844 34.023438 -170.589844 C 27.691406 -170.589844 22.652344 -168.890625 18.90625 -165.5 C 15.300781 -162.230469 13.496094 -158.171875 13.496094 -153.332031 C 13.496094 -148.488281 15.300781 -144.433594 18.90625 -141.160156 C 22.652344 -137.769531 27.691406 -136.074219 34.023438 -136.074219 Z M 34.023438 -136.074219 "/></g></g></g><g fill="#029ef8" fill-opacity="1"><g transform="translate(598.150493, 234.461171)"><g><path d="M 73.722656 6.734375 C 59.875 6.734375 47.449219 3.945312 36.449219 -1.632812 C 25.324219 -7.273438 16.65625 -15.125 10.445312 -25.195312 C 4.226562 -35.269531 1.117188 -46.644531 1.117188 -59.324219 C 1.117188 -72.011719 4.230469 -83.359375 10.453125 -93.363281 C 16.671875 -103.359375 25.34375 -111.140625 36.472656 -116.703125 C 47.46875 -122.199219 59.882812 -124.949219 73.722656 -124.949219 C 87.964844 -124.949219 100.332031 -121.855469 110.824219 -115.671875 C 121.5 -109.378906 129.074219 -100.636719 133.550781 -89.453125 L 135.167969 -85.410156 L 94.964844 -64.898438 L 92.800781 -69.164062 C 90.484375 -73.734375 87.707031 -77.117188 84.460938 -79.308594 C 81.34375 -81.417969 77.691406 -82.472656 73.503906 -82.472656 C 67.417969 -82.472656 62.40625 -80.472656 58.472656 -76.480469 C 54.515625 -72.464844 52.535156 -66.746094 52.535156 -59.324219 C 52.535156 -51.746094 54.523438 -45.910156 58.496094 -41.820312 C 62.429688 -37.769531 67.433594 -35.742188 73.503906 -35.742188 C 77.691406 -35.742188 81.34375 -36.796875 84.460938 -38.90625 C 87.707031 -41.097656 90.484375 -44.480469 92.800781 -49.050781 L 94.964844 -53.316406 L 135.167969 -32.804688 L 133.550781 -28.761719 C 129.074219 -17.578125 121.5 -8.835938 110.824219 -2.542969 C 100.332031 3.640625 87.964844 6.734375 73.722656 6.734375 Z M 73.722656 -2.808594 C 86.230469 -2.808594 96.980469 -5.460938 105.976562 -10.761719 C 114.785156 -15.953125 121.023438 -23.136719 124.691406 -32.308594 L 129.121094 -30.535156 L 126.953125 -26.285156 L 94.890625 -42.644531 L 97.058594 -46.894531 L 101.3125 -44.738281 C 98.25 -38.695312 94.414062 -34.113281 89.804688 -31 C 85.074219 -27.800781 79.636719 -26.199219 73.503906 -26.199219 C 64.742188 -26.199219 57.457031 -29.191406 51.648438 -35.171875 C 45.878906 -41.113281 42.996094 -49.164062 42.996094 -59.324219 C 42.996094 -69.355469 45.886719 -77.304688 51.671875 -83.175781 C 57.480469 -89.070312 64.753906 -92.015625 73.503906 -92.015625 C 79.636719 -92.015625 85.074219 -90.414062 89.804688 -87.214844 C 94.414062 -84.101562 98.25 -79.519531 101.3125 -73.480469 L 97.058594 -71.320312 L 94.890625 -75.570312 L 126.953125 -91.929688 L 129.121094 -87.679688 L 124.691406 -85.90625 C 121.023438 -95.078125 114.785156 -102.261719 105.976562 -107.453125 C 96.980469 -112.753906 86.230469 -115.40625 73.722656 -115.40625 C 61.386719 -115.40625 50.390625 -112.992188 40.738281 -108.167969 C 31.21875 -103.40625 23.824219 -96.792969 18.554688 -88.320312 C 13.292969 -79.859375 10.660156 -70.195312 10.660156 -59.324219 C 10.660156 -48.449219 13.292969 -38.742188 18.5625 -30.207031 C 23.835938 -21.660156 31.238281 -14.972656 40.761719 -10.144531 C 50.410156 -5.253906 61.394531 -2.808594 73.722656 -2.808594 Z M 73.722656 -2.808594 "/></g></g></g><g fill="#029ef8" fill-opacity="1"><g transform="translate(720.945386, 234.461171)"><g><path d="M 13.304688 -122.984375 L 59.515625 -122.984375 L 59.515625 4.769531 L 8.535156 4.769531 L 8.535156 -122.984375 Z M 13.304688 -113.445312 L 13.304688 -118.214844 L 18.074219 -118.214844 L 18.074219 0 L 13.304688 0 L 13.304688 -4.769531 L 54.746094 -4.769531 L 54.746094 0 L 49.972656 0 L 49.972656 -118.214844 L 54.746094 -118.214844 L 54.746094 -113.445312 Z M 34.023438 -126.53125 C 25.238281 -126.53125 18.0625 -129.050781 12.5 -134.089844 C 6.800781 -139.253906 3.953125 -145.667969 3.953125 -153.332031 C 3.953125 -160.992188 6.800781 -167.40625 12.5 -172.570312 C 18.0625 -177.609375 25.238281 -180.128906 34.023438 -180.128906 C 42.765625 -180.128906 49.910156 -177.746094 55.457031 -172.980469 C 61.214844 -168.03125 64.097656 -161.699219 64.097656 -153.984375 C 64.097656 -146.046875 61.257812 -139.460938 55.578125 -134.226562 C 50.011719 -129.097656 42.828125 -126.53125 34.023438 -126.53125 Z M 34.023438 -136.074219 C 40.34375 -136.074219 45.371094 -137.796875 49.113281 -141.242188 C 52.742188 -144.589844 54.554688 -148.835938 54.554688 -153.984375 C 54.554688 -158.777344 52.78125 -162.695312 49.238281 -165.742188 C 45.476562 -168.972656 40.40625 -170.589844 34.023438 -170.589844 C 27.691406 -170.589844 22.652344 -168.890625 18.90625 -165.5 C 15.300781 -162.230469 13.496094 -158.171875 13.496094 -153.332031 C 13.496094 -148.488281 15.300781 -144.433594 18.90625 -141.160156 C 22.652344 -137.769531 27.691406 -136.074219 34.023438 -136.074219 Z M 34.023438 -136.074219 "/></g></g></g><g fill="#029ef8" fill-opacity="1"><g transform="translate(780.48889, 234.461171)"><g><path d="M 90.296875 -124.949219 C 106.277344 -124.949219 119.203125 -120.136719 129.070312 -110.507812 C 138.972656 -100.847656 143.925781 -86.546875 143.925781 -67.613281 L 143.925781 4.769531 L 92.941406 4.769531 L 92.941406 -60.851562 C 92.941406 -67.804688 91.671875 -72.863281 89.136719 -76.023438 C 86.855469 -78.871094 83.246094 -80.292969 78.300781 -80.292969 C 72.570312 -80.292969 68.03125 -78.476562 64.6875 -74.847656 C 61.238281 -71.109375 59.515625 -65.207031 59.515625 -57.144531 L 59.515625 4.769531 L 8.535156 4.769531 L 8.535156 -122.984375 L 57.554688 -122.984375 L 57.554688 -105.347656 L 52.78125 -105.347656 L 49.355469 -108.667969 C 54.484375 -113.957031 60.5625 -117.996094 67.59375 -120.792969 C 74.558594 -123.5625 82.125 -124.949219 90.296875 -124.949219 Z M 90.296875 -115.40625 C 83.34375 -115.40625 76.953125 -114.246094 71.121094 -111.925781 C 65.355469 -109.636719 60.386719 -106.335938 56.207031 -102.023438 L 48.011719 -93.574219 L 48.011719 -118.214844 L 52.78125 -118.214844 L 52.78125 -113.445312 L 13.304688 -113.445312 L 13.304688 -118.214844 L 18.074219 -118.214844 L 18.074219 0 L 13.304688 0 L 13.304688 -4.769531 L 54.746094 -4.769531 L 54.746094 0 L 49.972656 0 L 49.972656 -57.144531 C 49.972656 -67.691406 52.539062 -75.75 57.671875 -81.316406 C 62.90625 -86.996094 69.78125 -89.832031 78.300781 -89.832031 C 86.296875 -89.832031 92.390625 -87.21875 96.582031 -81.996094 C 100.515625 -77.085938 102.484375 -70.039062 102.484375 -60.851562 L 102.484375 0 L 97.710938 0 L 97.710938 -4.769531 L 139.152344 -4.769531 L 139.152344 0 L 134.382812 0 L 134.382812 -67.613281 C 134.382812 -83.867188 130.390625 -95.886719 122.40625 -103.675781 C 114.390625 -111.496094 103.6875 -115.40625 90.296875 -115.40625 Z M 90.296875 -115.40625 "/></g></g></g><g fill="#029ef8" fill-opacity="1"><g transform="translate(923.567846, 234.461171)"><g><path d="M 63.6875 -124.949219 C 84.503906 -124.949219 100.523438 -120.089844 111.742188 -110.371094 C 123.164062 -100.476562 128.875 -85.570312 128.875 -65.652344 L 128.875 4.769531 L 80.726562 4.769531 L 80.726562 -15.269531 L 85.5 -15.269531 L 89.734375 -13.070312 C 82.882812 0.132812 69.835938 6.734375 50.601562 6.734375 C 40.71875 6.734375 32.109375 4.980469 24.769531 1.46875 C 17.246094 -2.128906 11.53125 -7.042969 7.625 -13.28125 C 3.722656 -19.507812 1.773438 -26.566406 1.773438 -34.460938 C 1.773438 -47.285156 6.722656 -57.265625 16.621094 -64.394531 C 26.035156 -71.175781 40.195312 -74.566406 59.109375 -74.566406 L 82.664062 -74.566406 L 82.664062 -69.792969 L 77.898438 -69.519531 C 77.621094 -74.292969 75.984375 -77.800781 72.988281 -80.042969 C 69.65625 -82.535156 64.519531 -83.78125 57.582031 -83.78125 C 52.394531 -83.78125 47.125 -82.945312 41.773438 -81.273438 C 36.515625 -79.628906 32.078125 -77.386719 28.464844 -74.550781 L 23.851562 -70.925781 L 5.417969 -108.078125 L 8.914062 -110.40625 C 15.90625 -115.070312 24.355469 -118.667969 34.261719 -121.203125 C 44.027344 -123.699219 53.835938 -124.949219 63.6875 -124.949219 Z M 63.6875 -115.40625 C 54.636719 -115.40625 45.617188 -114.257812 36.625 -111.957031 C 27.773438 -109.691406 20.296875 -106.527344 14.207031 -102.46875 L 11.558594 -106.4375 L 15.832031 -108.558594 L 29.792969 -80.421875 L 25.519531 -78.300781 L 22.570312 -82.050781 C 27.101562 -85.613281 32.554688 -88.386719 38.925781 -90.378906 C 45.207031 -92.34375 51.425781 -93.324219 57.582031 -93.324219 C 66.636719 -93.324219 73.675781 -91.445312 78.703125 -87.683594 C 84.070312 -83.671875 86.976562 -77.800781 87.425781 -70.070312 L 87.71875 -65.023438 L 59.109375 -65.023438 C 42.25 -65.023438 29.945312 -62.234375 22.199219 -56.652344 C 14.941406 -51.425781 11.3125 -44.027344 11.3125 -34.460938 C 11.3125 -28.394531 12.78125 -23.023438 15.710938 -18.347656 C 18.636719 -13.675781 23.03125 -9.941406 28.886719 -7.140625 C 34.921875 -4.253906 42.164062 -2.808594 50.601562 -2.808594 C 65.972656 -2.808594 76.191406 -7.695312 81.265625 -17.464844 L 90.269531 -15.269531 L 90.269531 0 L 85.5 0 L 85.5 -4.769531 L 124.105469 -4.769531 L 124.105469 0 L 119.332031 0 L 119.332031 -65.652344 C 119.332031 -82.664062 114.71875 -95.167969 105.496094 -103.15625 C 96.066406 -111.324219 82.132812 -115.40625 63.6875 -115.40625 Z M 62.160156 -28.980469 C 66.027344 -28.980469 69.386719 -29.894531 72.238281 -31.71875 C 74.957031 -33.457031 76.933594 -36.066406 78.167969 -39.546875 L 82.664062 -37.949219 L 77.890625 -37.949219 L 77.890625 -48.203125 L 82.664062 -48.203125 L 82.664062 -43.429688 L 64.777344 -43.429688 C 59.703125 -43.429688 56.054688 -42.695312 53.835938 -41.226562 C 52.242188 -40.171875 51.445312 -38.496094 51.445312 -36.207031 C 51.445312 -34.113281 52.222656 -32.453125 53.777344 -31.226562 C 55.671875 -29.730469 58.46875 -28.980469 62.160156 -28.980469 Z M 62.160156 -19.4375 C 56.257812 -19.4375 51.492188 -20.871094 47.863281 -23.738281 C 43.890625 -26.875 41.902344 -31.03125 41.902344 -36.207031 C 41.902344 -41.914062 44.125 -46.238281 48.566406 -49.179688 C 52.382812 -51.707031 57.785156 -52.972656 64.777344 -52.972656 L 87.433594 -52.972656 L 87.433594 -37.128906 L 87.160156 -36.355469 C 85.195312 -30.820312 81.9375 -26.59375 77.382812 -23.679688 C 72.964844 -20.851562 67.890625 -19.4375 62.160156 -19.4375 Z M 62.160156 -19.4375 "/></g></g></g><g fill="#029ef8" fill-opacity="1"><g transform="translate(15.25317, 452.517328)"><g><path d="M 47.765625 -113.660156 L -3.898438 -113.660156 L -3.898438 -157.445312 L 142.398438 -157.445312 L 142.398438 -113.660156 L 90.953125 -113.660156 L 90.953125 -118.433594 L 95.722656 -118.433594 L 95.722656 4.769531 L 42.996094 4.769531 L 42.996094 -118.433594 L 47.765625 -118.433594 Z M 52.535156 -123.203125 L 52.535156 0 L 47.765625 0 L 47.765625 -4.769531 L 90.953125 -4.769531 L 90.953125 0 L 86.179688 0 L 86.179688 -123.203125 L 137.625 -123.203125 L 137.625 -118.433594 L 132.855469 -118.433594 L 132.855469 -152.675781 L 137.625 -152.675781 L 137.625 -147.90625 L 0.871094 -147.90625 L 0.871094 -152.675781 L 5.644531 -152.675781 L 5.644531 -118.433594 L 0.871094 -118.433594 L 0.871094 -123.203125 Z M 52.535156 -123.203125 "/></g></g></g><g fill="#029ef8" fill-opacity="1"><g transform="translate(145.027538, 452.517328)"><g><path d="M 49.027344 -106.980469 C 53.773438 -113.035156 59.925781 -117.570312 67.484375 -120.574219 C 74.8125 -123.492188 83.144531 -124.949219 92.476562 -124.949219 L 97.25 -124.949219 L 97.25 -77.527344 L 91.929688 -78.140625 C 88.332031 -78.558594 85.386719 -78.765625 83.097656 -78.765625 C 75.507812 -78.765625 69.664062 -76.804688 65.566406 -72.890625 C 61.535156 -69.03125 59.515625 -62.835938 59.515625 -54.308594 L 59.515625 4.769531 L 8.535156 4.769531 L 8.535156 -122.984375 L 57.554688 -122.984375 L 57.554688 -104.039062 L 52.78125 -104.039062 Z M 48.011719 -90.214844 L 48.011719 -118.214844 L 52.78125 -118.214844 L 52.78125 -113.445312 L 13.304688 -113.445312 L 13.304688 -118.214844 L 18.074219 -118.214844 L 18.074219 0 L 13.304688 0 L 13.304688 -4.769531 L 54.746094 -4.769531 L 54.746094 0 L 49.972656 0 L 49.972656 -54.308594 C 49.972656 -65.554688 52.972656 -74.046875 58.972656 -79.785156 C 64.910156 -85.464844 72.953125 -88.308594 83.097656 -88.308594 C 85.753906 -88.308594 89.0625 -88.078125 93.023438 -87.621094 L 92.476562 -82.882812 L 87.707031 -82.882812 L 87.707031 -120.179688 L 92.476562 -120.179688 L 92.476562 -115.40625 C 84.363281 -115.40625 77.207031 -114.175781 71.011719 -111.710938 C 65.050781 -109.335938 60.222656 -105.796875 56.539062 -101.09375 Z M 48.011719 -90.214844 "/></g></g></g><g fill="#029ef8" fill-opacity="1"><g transform="translate(232.925124, 452.517328)"><g><path d="M 63.6875 -124.949219 C 84.503906 -124.949219 100.523438 -120.089844 111.742188 -110.371094 C 123.164062 -100.476562 128.875 -85.570312 128.875 -65.652344 L 128.875 4.769531 L 80.726562 4.769531 L 80.726562 -15.269531 L 85.5 -15.269531 L 89.734375 -13.070312 C 82.882812 0.132812 69.835938 6.734375 50.601562 6.734375 C 40.71875 6.734375 32.109375 4.980469 24.769531 1.46875 C 17.246094 -2.128906 11.53125 -7.042969 7.625 -13.28125 C 3.722656 -19.507812 1.773438 -26.566406 1.773438 -34.460938 C 1.773438 -47.285156 6.722656 -57.265625 16.621094 -64.394531 C 26.035156 -71.175781 40.195312 -74.566406 59.109375 -74.566406 L 82.664062 -74.566406 L 82.664062 -69.792969 L 77.898438 -69.519531 C 77.621094 -74.292969 75.984375 -77.800781 72.988281 -80.042969 C 69.65625 -82.535156 64.519531 -83.78125 57.582031 -83.78125 C 52.394531 -83.78125 47.125 -82.945312 41.773438 -81.273438 C 36.515625 -79.628906 32.078125 -77.386719 28.464844 -74.550781 L 23.851562 -70.925781 L 5.417969 -108.078125 L 8.914062 -110.40625 C 15.90625 -115.070312 24.355469 -118.667969 34.261719 -121.203125 C 44.027344 -123.699219 53.835938 -124.949219 63.6875 -124.949219 Z M 63.6875 -115.40625 C 54.636719 -115.40625 45.617188 -114.257812 36.625 -111.957031 C 27.773438 -109.691406 20.296875 -106.527344 14.207031 -102.46875 L 11.558594 -106.4375 L 15.832031 -108.558594 L 29.792969 -80.421875 L 25.519531 -78.300781 L 22.570312 -82.050781 C 27.101562 -85.613281 32.554688 -88.386719 38.925781 -90.378906 C 45.207031 -92.34375 51.425781 -93.324219 57.582031 -93.324219 C 66.636719 -93.324219 73.675781 -91.445312 78.703125 -87.683594 C 84.070312 -83.671875 86.976562 -77.800781 87.425781 -70.070312 L 87.71875 -65.023438 L 59.109375 -65.023438 C 42.25 -65.023438 29.945312 -62.234375 22.199219 -56.652344 C 14.941406 -51.425781 11.3125 -44.027344 11.3125 -34.460938 C 11.3125 -28.394531 12.78125 -23.023438 15.710938 -18.347656 C 18.636719 -13.675781 23.03125 -9.941406 28.886719 -7.140625 C 34.921875 -4.253906 42.164062 -2.808594 50.601562 -2.808594 C 65.972656 -2.808594 76.191406 -7.695312 81.265625 -17.464844 L 90.269531 -15.269531 L 90.269531 0 L 85.5 0 L 85.5 -4.769531 L 124.105469 -4.769531 L 124.105469 0 L 119.332031 0 L 119.332031 -65.652344 C 119.332031 -82.664062 114.71875 -95.167969 105.496094 -103.15625 C 96.066406 -111.324219 82.132812 -115.40625 63.6875 -115.40625 Z M 62.160156 -28.980469 C 66.027344 -28.980469 69.386719 -29.894531 72.238281 -31.71875 C 74.957031 -33.457031 76.933594 -36.066406 78.167969 -39.546875 L 82.664062 -37.949219 L 77.890625 -37.949219 L 77.890625 -48.203125 L 82.664062 -48.203125 L 82.664062 -43.429688 L 64.777344 -43.429688 C 59.703125 -43.429688 56.054688 -42.695312 53.835938 -41.226562 C 52.242188 -40.171875 51.445312 -38.496094 51.445312 -36.207031 C 51.445312 -34.113281 52.222656 -32.453125 53.777344 -31.226562 C 55.671875 -29.730469 58.46875 -28.980469 62.160156 -28.980469 Z M 62.160156 -19.4375 C 56.257812 -19.4375 51.492188 -20.871094 47.863281 -23.738281 C 43.890625 -26.875 41.902344 -31.03125 41.902344 -36.207031 C 41.902344 -41.914062 44.125 -46.238281 48.566406 -49.179688 C 52.382812 -51.707031 57.785156 -52.972656 64.777344 -52.972656 L 87.433594 -52.972656 L 87.433594 -37.128906 L 87.160156 -36.355469 C 85.195312 -30.820312 81.9375 -26.59375 77.382812 -23.679688 C 72.964844 -20.851562 67.890625 -19.4375 62.160156 -19.4375 Z M 62.160156 -19.4375 "/></g></g></g><g fill="#029ef8" fill-opacity="1"><g transform="translate(361.172694, 452.517328)"><g><path d="M 143.707031 -161.835938 L 143.707031 4.769531 L 94.6875 4.769531 L 94.6875 -11.777344 L 99.457031 -11.777344 L 103.109375 -8.707031 C 94.449219 1.585938 81.671875 6.734375 64.777344 6.734375 C 53.179688 6.734375 42.582031 4.019531 32.984375 -1.410156 C 23.335938 -6.867188 15.710938 -14.640625 10.113281 -24.730469 C 4.550781 -34.757812 1.773438 -46.289062 1.773438 -59.324219 C 1.773438 -72.367188 4.554688 -83.867188 10.121094 -93.824219 C 15.722656 -103.84375 23.351562 -111.546875 33.011719 -116.929688 C 42.601562 -122.277344 53.191406 -124.949219 64.777344 -124.949219 C 80.25 -124.949219 92.3125 -120.378906 100.960938 -111.242188 L 97.496094 -107.964844 L 92.722656 -107.964844 L 92.722656 -166.609375 L 143.707031 -166.609375 Z M 134.164062 -161.835938 L 138.933594 -161.835938 L 138.933594 -157.066406 L 97.496094 -157.066406 L 97.496094 -161.835938 L 102.265625 -161.835938 L 102.265625 -95.980469 L 94.027344 -104.683594 C 87.265625 -111.832031 77.511719 -115.40625 64.777344 -115.40625 C 54.84375 -115.40625 45.804688 -113.136719 37.65625 -108.59375 C 29.574219 -104.089844 23.171875 -97.613281 18.449219 -89.167969 C 13.691406 -80.660156 11.3125 -70.710938 11.3125 -59.324219 C 11.3125 -47.933594 13.695312 -37.945312 18.457031 -29.359375 C 23.183594 -20.839844 29.59375 -14.289062 37.683594 -9.714844 C 45.824219 -5.109375 54.855469 -2.808594 64.777344 -2.808594 C 78.710938 -2.808594 89.054688 -6.820312 95.804688 -14.847656 L 104.230469 -24.859375 L 104.230469 0 L 99.457031 0 L 99.457031 -4.769531 L 138.933594 -4.769531 L 138.933594 0 L 134.164062 0 Z M 73.503906 -35.742188 C 79.238281 -35.742188 83.960938 -37.742188 87.671875 -41.742188 C 91.476562 -45.84375 93.378906 -51.703125 93.378906 -59.324219 C 93.378906 -66.804688 91.511719 -72.554688 87.777344 -76.585938 C 84.140625 -80.511719 79.382812 -82.472656 73.503906 -82.472656 C 67.605469 -82.472656 62.804688 -80.5 59.09375 -76.558594 C 55.304688 -72.53125 53.410156 -66.789062 53.410156 -59.324219 C 53.410156 -51.703125 55.3125 -45.84375 59.117188 -41.742188 C 62.824219 -37.742188 67.621094 -35.742188 73.503906 -35.742188 Z M 73.503906 -26.199219 C 64.84375 -26.199219 57.714844 -29.21875 52.121094 -35.25 C 46.617188 -41.183594 43.867188 -49.207031 43.867188 -59.324219 C 43.867188 -69.3125 46.625 -77.234375 52.144531 -83.097656 C 57.738281 -89.042969 64.859375 -92.015625 73.503906 -92.015625 C 82.160156 -92.015625 89.253906 -89.03125 94.777344 -83.070312 C 100.207031 -77.210938 102.921875 -69.296875 102.921875 -59.324219 C 102.921875 -49.207031 100.167969 -41.183594 94.667969 -35.25 C 89.070312 -29.21875 82.015625 -26.199219 73.503906 -26.199219 Z M 73.503906 -26.199219 "/></g></g></g><g fill="#029ef8" fill-opacity="1"><g transform="translate(504.68783, 452.517328)"><g><path d="M 142.398438 -118.214844 L 142.398438 4.769531 L 93.378906 4.769531 L 93.378906 -12.648438 L 98.148438 -12.648438 L 101.679688 -9.441406 C 96.828125 -4.105469 91.015625 -0.0664062 84.234375 2.679688 C 77.554688 5.382812 70.488281 6.734375 63.035156 6.734375 C 46.457031 6.734375 33.15625 1.765625 23.140625 -8.171875 C 13.113281 -18.121094 8.097656 -32.773438 8.097656 -52.128906 L 8.097656 -122.984375 L 59.082031 -122.984375 L 59.082031 -58.890625 C 59.082031 -51.160156 60.390625 -45.699219 63.011719 -42.507812 C 65.402344 -39.597656 69.042969 -38.140625 73.9375 -38.140625 C 79.070312 -38.140625 83.234375 -39.910156 86.433594 -43.441406 C 89.753906 -47.113281 91.414062 -53.0625 91.414062 -61.289062 L 91.414062 -122.984375 L 142.398438 -122.984375 Z M 132.855469 -118.214844 L 137.625 -118.214844 L 137.625 -113.445312 L 96.1875 -113.445312 L 96.1875 -118.214844 L 100.957031 -118.214844 L 100.957031 -61.289062 C 100.957031 -50.613281 98.472656 -42.527344 93.507812 -37.039062 C 88.417969 -31.414062 81.894531 -28.597656 73.9375 -28.597656 C 66.039062 -28.597656 59.9375 -31.214844 55.640625 -36.449219 C 51.570312 -41.402344 49.539062 -48.878906 49.539062 -58.890625 L 49.539062 -118.214844 L 54.308594 -118.214844 L 54.308594 -113.445312 L 12.867188 -113.445312 L 12.867188 -118.214844 L 17.640625 -118.214844 L 17.640625 -52.128906 C 17.640625 -35.421875 21.714844 -23.027344 29.859375 -14.945312 C 38.019531 -6.855469 49.074219 -2.808594 63.035156 -2.808594 C 69.25 -2.808594 75.121094 -3.929688 80.65625 -6.167969 C 86.089844 -8.367188 90.746094 -11.597656 94.617188 -15.859375 L 102.921875 -24.992188 L 102.921875 0 L 98.148438 0 L 98.148438 -4.769531 L 137.625 -4.769531 L 137.625 0 L 132.855469 0 Z M 132.855469 -118.214844 "/></g></g></g><g fill="#029ef8" fill-opacity="1"><g transform="translate(646.894329, 452.517328)"><g><path d="M 73.722656 6.734375 C 59.875 6.734375 47.449219 3.945312 36.449219 -1.632812 C 25.324219 -7.273438 16.65625 -15.125 10.445312 -25.195312 C 4.226562 -35.269531 1.117188 -46.644531 1.117188 -59.324219 C 1.117188 -72.011719 4.230469 -83.359375 10.453125 -93.363281 C 16.671875 -103.359375 25.34375 -111.140625 36.472656 -116.703125 C 47.46875 -122.199219 59.882812 -124.949219 73.722656 -124.949219 C 87.964844 -124.949219 100.332031 -121.855469 110.824219 -115.671875 C 121.5 -109.378906 129.074219 -100.636719 133.550781 -89.453125 L 135.167969 -85.410156 L 94.964844 -64.898438 L 92.800781 -69.164062 C 90.484375 -73.734375 87.707031 -77.117188 84.460938 -79.308594 C 81.34375 -81.417969 77.691406 -82.472656 73.503906 -82.472656 C 67.417969 -82.472656 62.40625 -80.472656 58.472656 -76.480469 C 54.515625 -72.464844 52.535156 -66.746094 52.535156 -59.324219 C 52.535156 -51.746094 54.523438 -45.910156 58.496094 -41.820312 C 62.429688 -37.769531 67.433594 -35.742188 73.503906 -35.742188 C 77.691406 -35.742188 81.34375 -36.796875 84.460938 -38.90625 C 87.707031 -41.097656 90.484375 -44.480469 92.800781 -49.050781 L 94.964844 -53.316406 L 135.167969 -32.804688 L 133.550781 -28.761719 C 129.074219 -17.578125 121.5 -8.835938 110.824219 -2.542969 C 100.332031 3.640625 87.964844 6.734375 73.722656 6.734375 Z M 73.722656 -2.808594 C 86.230469 -2.808594 96.980469 -5.460938 105.976562 -10.761719 C 114.785156 -15.953125 121.023438 -23.136719 124.691406 -32.308594 L 129.121094 -30.535156 L 126.953125 -26.285156 L 94.890625 -42.644531 L 97.058594 -46.894531 L 101.3125 -44.738281 C 98.25 -38.695312 94.414062 -34.113281 89.804688 -31 C 85.074219 -27.800781 79.636719 -26.199219 73.503906 -26.199219 C 64.742188 -26.199219 57.457031 -29.191406 51.648438 -35.171875 C 45.878906 -41.113281 42.996094 -49.164062 42.996094 -59.324219 C 42.996094 -69.355469 45.886719 -77.304688 51.671875 -83.175781 C 57.480469 -89.070312 64.753906 -92.015625 73.503906 -92.015625 C 79.636719 -92.015625 85.074219 -90.414062 89.804688 -87.214844 C 94.414062 -84.101562 98.25 -79.519531 101.3125 -73.480469 L 97.058594 -71.320312 L 94.890625 -75.570312 L 126.953125 -91.929688 L 129.121094 -87.679688 L 124.691406 -85.90625 C 121.023438 -95.078125 114.785156 -102.261719 105.976562 -107.453125 C 96.980469 -112.753906 86.230469 -115.40625 73.722656 -115.40625 C 61.386719 -115.40625 50.390625 -112.992188 40.738281 -108.167969 C 31.21875 -103.40625 23.824219 -96.792969 18.554688 -88.320312 C 13.292969 -79.859375 10.660156 -70.195312 10.660156 -59.324219 C 10.660156 -48.449219 13.292969 -38.742188 18.5625 -30.207031 C 23.835938 -21.660156 31.238281 -14.972656 40.761719 -10.144531 C 50.410156 -5.253906 61.394531 -2.808594 73.722656 -2.808594 Z M 73.722656 -2.808594 "/></g></g></g><g fill="#029ef8" fill-opacity="1"><g transform="translate(769.689176, 452.517328)"><g><path d="M 13.304688 -122.984375 L 59.515625 -122.984375 L 59.515625 4.769531 L 8.535156 4.769531 L 8.535156 -122.984375 Z M 13.304688 -113.445312 L 13.304688 -118.214844 L 18.074219 -118.214844 L 18.074219 0 L 13.304688 0 L 13.304688 -4.769531 L 54.746094 -4.769531 L 54.746094 0 L 49.972656 0 L 49.972656 -118.214844 L 54.746094 -118.214844 L 54.746094 -113.445312 Z M 34.023438 -126.53125 C 25.238281 -126.53125 18.0625 -129.050781 12.5 -134.089844 C 6.800781 -139.253906 3.953125 -145.667969 3.953125 -153.332031 C 3.953125 -160.992188 6.800781 -167.40625 12.5 -172.570312 C 18.0625 -177.609375 25.238281 -180.128906 34.023438 -180.128906 C 42.765625 -180.128906 49.910156 -177.746094 55.457031 -172.980469 C 61.214844 -168.03125 64.097656 -161.699219 64.097656 -153.984375 C 64.097656 -146.046875 61.257812 -139.460938 55.578125 -134.226562 C 50.011719 -129.097656 42.828125 -126.53125 34.023438 -126.53125 Z M 34.023438 -136.074219 C 40.34375 -136.074219 45.371094 -137.796875 49.113281 -141.242188 C 52.742188 -144.589844 54.554688 -148.835938 54.554688 -153.984375 C 54.554688 -158.777344 52.78125 -162.695312 49.238281 -165.742188 C 45.476562 -168.972656 40.40625 -170.589844 34.023438 -170.589844 C 27.691406 -170.589844 22.652344 -168.890625 18.90625 -165.5 C 15.300781 -162.230469 13.496094 -158.171875 13.496094 -153.332031 C 13.496094 -148.488281 15.300781 -144.433594 18.90625 -141.160156 C 22.652344 -137.769531 27.691406 -136.074219 34.023438 -136.074219 Z M 34.023438 -136.074219 "/></g></g></g><g fill="#029ef8" fill-opacity="1"><g transform="translate(829.232634, 452.517328)"><g><path d="M 143.707031 -161.835938 L 143.707031 4.769531 L 94.6875 4.769531 L 94.6875 -11.777344 L 99.457031 -11.777344 L 103.109375 -8.707031 C 94.449219 1.585938 81.671875 6.734375 64.777344 6.734375 C 53.179688 6.734375 42.582031 4.019531 32.984375 -1.410156 C 23.335938 -6.867188 15.710938 -14.640625 10.113281 -24.730469 C 4.550781 -34.757812 1.773438 -46.289062 1.773438 -59.324219 C 1.773438 -72.367188 4.554688 -83.867188 10.121094 -93.824219 C 15.722656 -103.84375 23.351562 -111.546875 33.011719 -116.929688 C 42.601562 -122.277344 53.191406 -124.949219 64.777344 -124.949219 C 80.25 -124.949219 92.3125 -120.378906 100.960938 -111.242188 L 97.496094 -107.964844 L 92.722656 -107.964844 L 92.722656 -166.609375 L 143.707031 -166.609375 Z M 134.164062 -161.835938 L 138.933594 -161.835938 L 138.933594 -157.066406 L 97.496094 -157.066406 L 97.496094 -161.835938 L 102.265625 -161.835938 L 102.265625 -95.980469 L 94.027344 -104.683594 C 87.265625 -111.832031 77.511719 -115.40625 64.777344 -115.40625 C 54.84375 -115.40625 45.804688 -113.136719 37.65625 -108.59375 C 29.574219 -104.089844 23.171875 -97.613281 18.449219 -89.167969 C 13.691406 -80.660156 11.3125 -70.710938 11.3125 -59.324219 C 11.3125 -47.933594 13.695312 -37.945312 18.457031 -29.359375 C 23.183594 -20.839844 29.59375 -14.289062 37.683594 -9.714844 C 45.824219 -5.109375 54.855469 -2.808594 64.777344 -2.808594 C 78.710938 -2.808594 89.054688 -6.820312 95.804688 -14.847656 L 104.230469 -24.859375 L 104.230469 0 L 99.457031 0 L 99.457031 -4.769531 L 138.933594 -4.769531 L 138.933594 0 L 134.164062 0 Z M 73.503906 -35.742188 C 79.238281 -35.742188 83.960938 -37.742188 87.671875 -41.742188 C 91.476562 -45.84375 93.378906 -51.703125 93.378906 -59.324219 C 93.378906 -66.804688 91.511719 -72.554688 87.777344 -76.585938 C 84.140625 -80.511719 79.382812 -82.472656 73.503906 -82.472656 C 67.605469 -82.472656 62.804688 -80.5 59.09375 -76.558594 C 55.304688 -72.53125 53.410156 -66.789062 53.410156 -59.324219 C 53.410156 -51.703125 55.3125 -45.84375 59.117188 -41.742188 C 62.824219 -37.742188 67.621094 -35.742188 73.503906 -35.742188 Z M 73.503906 -26.199219 C 64.84375 -26.199219 57.714844 -29.21875 52.121094 -35.25 C 46.617188 -41.183594 43.867188 -49.207031 43.867188 -59.324219 C 43.867188 -69.3125 46.625 -77.234375 52.144531 -83.097656 C 57.738281 -89.042969 64.859375 -92.015625 73.503906 -92.015625 C 82.160156 -92.015625 89.253906 -89.03125 94.777344 -83.070312 C 100.207031 -77.210938 102.921875 -69.296875 102.921875 -59.324219 C 102.921875 -49.207031 100.167969 -41.183594 94.667969 -35.25 C 89.070312 -29.21875 82.015625 -26.199219 73.503906 -26.199219 Z M 73.503906 -26.199219 "/></g></g></g><g fill="#029ef8" fill-opacity="1"><g transform="translate(972.747815, 452.517328)"><g><path d="M 63.6875 -124.949219 C 84.503906 -124.949219 100.523438 -120.089844 111.742188 -110.371094 C 123.164062 -100.476562 128.875 -85.570312 128.875 -65.652344 L 128.875 4.769531 L 80.726562 4.769531 L 80.726562 -15.269531 L 85.5 -15.269531 L 89.734375 -13.070312 C 82.882812 0.132812 69.835938 6.734375 50.601562 6.734375 C 40.71875 6.734375 32.109375 4.980469 24.769531 1.46875 C 17.246094 -2.128906 11.53125 -7.042969 7.625 -13.28125 C 3.722656 -19.507812 1.773438 -26.566406 1.773438 -34.460938 C 1.773438 -47.285156 6.722656 -57.265625 16.621094 -64.394531 C 26.035156 -71.175781 40.195312 -74.566406 59.109375 -74.566406 L 82.664062 -74.566406 L 82.664062 -69.792969 L 77.898438 -69.519531 C 77.621094 -74.292969 75.984375 -77.800781 72.988281 -80.042969 C 69.65625 -82.535156 64.519531 -83.78125 57.582031 -83.78125 C 52.394531 -83.78125 47.125 -82.945312 41.773438 -81.273438 C 36.515625 -79.628906 32.078125 -77.386719 28.464844 -74.550781 L 23.851562 -70.925781 L 5.417969 -108.078125 L 8.914062 -110.40625 C 15.90625 -115.070312 24.355469 -118.667969 34.261719 -121.203125 C 44.027344 -123.699219 53.835938 -124.949219 63.6875 -124.949219 Z M 63.6875 -115.40625 C 54.636719 -115.40625 45.617188 -114.257812 36.625 -111.957031 C 27.773438 -109.691406 20.296875 -106.527344 14.207031 -102.46875 L 11.558594 -106.4375 L 15.832031 -108.558594 L 29.792969 -80.421875 L 25.519531 -78.300781 L 22.570312 -82.050781 C 27.101562 -85.613281 32.554688 -88.386719 38.925781 -90.378906 C 45.207031 -92.34375 51.425781 -93.324219 57.582031 -93.324219 C 66.636719 -93.324219 73.675781 -91.445312 78.703125 -87.683594 C 84.070312 -83.671875 86.976562 -77.800781 87.425781 -70.070312 L 87.71875 -65.023438 L 59.109375 -65.023438 C 42.25 -65.023438 29.945312 -62.234375 22.199219 -56.652344 C 14.941406 -51.425781 11.3125 -44.027344 11.3125 -34.460938 C 11.3125 -28.394531 12.78125 -23.023438 15.710938 -18.347656 C 18.636719 -13.675781 23.03125 -9.941406 28.886719 -7.140625 C 34.921875 -4.253906 42.164062 -2.808594 50.601562 -2.808594 C 65.972656 -2.808594 76.191406 -7.695312 81.265625 -17.464844 L 90.269531 -15.269531 L 90.269531 0 L 85.5 0 L 85.5 -4.769531 L 124.105469 -4.769531 L 124.105469 0 L 119.332031 0 L 119.332031 -65.652344 C 119.332031 -82.664062 114.71875 -95.167969 105.496094 -103.15625 C 96.066406 -111.324219 82.132812 -115.40625 63.6875 -115.40625 Z M 62.160156 -28.980469 C 66.027344 -28.980469 69.386719 -29.894531 72.238281 -31.71875 C 74.957031 -33.457031 76.933594 -36.066406 78.167969 -39.546875 L 82.664062 -37.949219 L 77.890625 -37.949219 L 77.890625 -48.203125 L 82.664062 -48.203125 L 82.664062 -43.429688 L 64.777344 -43.429688 C 59.703125 -43.429688 56.054688 -42.695312 53.835938 -41.226562 C 52.242188 -40.171875 51.445312 -38.496094 51.445312 -36.207031 C 51.445312 -34.113281 52.222656 -32.453125 53.777344 -31.226562 C 55.671875 -29.730469 58.46875 -28.980469 62.160156 -28.980469 Z M 62.160156 -19.4375 C 56.257812 -19.4375 51.492188 -20.871094 47.863281 -23.738281 C 43.890625 -26.875 41.902344 -31.03125 41.902344 -36.207031 C 41.902344 -41.914062 44.125 -46.238281 48.566406 -49.179688 C 52.382812 -51.707031 57.785156 -52.972656 64.777344 -52.972656 L 87.433594 -52.972656 L 87.433594 -37.128906 L 87.160156 -36.355469 C 85.195312 -30.820312 81.9375 -26.59375 77.382812 -23.679688 C 72.964844 -20.851562 67.890625 -19.4375 62.160156 -19.4375 Z M 62.160156 -19.4375 "/></g></g></g><g fill="#ffffff" fill-opacity="1"><g transform="translate(64.439914, 234.461171)"><g><path d="M 153.109375 0 L 152.671875 -80.921875 L 113.421875 -15.046875 L 94.21875 -15.046875 L 55.1875 -78.734375 L 55.1875 0 L 15.265625 0 L 15.265625 -152.671875 L 50.8125 -152.671875 L 104.46875 -64.5625 L 156.828125 -152.671875 L 192.375 -152.671875 L 192.8125 0 Z M 153.109375 0 "/></g></g></g><g fill="#ffffff" fill-opacity="1"><g transform="translate(263.790756, 234.461171)"><g><path d="M 134.140625 -58.890625 C 134.140625 -58.597656 133.921875 -55.179688 133.484375 -48.640625 L 47.546875 -48.640625 C 49.296875 -42.535156 52.675781 -37.84375 57.6875 -34.5625 C 62.707031 -31.289062 69 -29.65625 76.5625 -29.65625 C 82.226562 -29.65625 87.132812 -30.457031 91.28125 -32.0625 C 95.425781 -33.664062 99.601562 -36.28125 103.8125 -39.90625 L 125.625 -17.234375 C 114.144531 -4.429688 97.351562 1.96875 75.25 1.96875 C 61.4375 1.96875 49.296875 -0.644531 38.828125 -5.875 C 28.359375 -11.113281 20.25 -18.382812 14.5 -27.6875 C 8.757812 -37 5.890625 -47.546875 5.890625 -59.328125 C 5.890625 -70.960938 8.6875 -81.394531 14.28125 -90.625 C 19.882812 -99.851562 27.628906 -107.082031 37.515625 -112.3125 C 47.398438 -117.550781 58.523438 -120.171875 70.890625 -120.171875 C 82.660156 -120.171875 93.34375 -117.734375 102.9375 -112.859375 C 112.539062 -107.992188 120.140625 -100.941406 125.734375 -91.703125 C 131.335938 -82.472656 134.140625 -71.535156 134.140625 -58.890625 Z M 71.109375 -90.734375 C 64.703125 -90.734375 59.351562 -88.914062 55.0625 -85.28125 C 50.78125 -81.644531 48.054688 -76.703125 46.890625 -70.453125 L 95.3125 -70.453125 C 94.144531 -76.703125 91.414062 -81.644531 87.125 -85.28125 C 82.84375 -88.914062 77.503906 -90.734375 71.109375 -90.734375 Z M 71.109375 -90.734375 "/></g></g></g><g fill="#ffffff" fill-opacity="1"><g transform="translate(395.0919, 234.461171)"><g><path d="M 138.9375 -161.84375 L 138.9375 0 L 99.453125 0 L 99.453125 -11.78125 C 91.742188 -2.613281 80.1875 1.96875 64.78125 1.96875 C 54.019531 1.96875 44.203125 -0.539062 35.328125 -5.5625 C 26.460938 -10.582031 19.445312 -17.742188 14.28125 -27.046875 C 9.125 -36.347656 6.546875 -47.109375 6.546875 -59.328125 C 6.546875 -71.535156 9.125 -82.253906 14.28125 -91.484375 C 19.445312 -100.722656 26.460938 -107.8125 35.328125 -112.75 C 44.203125 -117.695312 54.019531 -120.171875 64.78125 -120.171875 C 78.882812 -120.171875 89.789062 -116.101562 97.5 -107.96875 L 97.5 -161.84375 Z M 73.5 -30.96875 C 80.625 -30.96875 86.515625 -33.472656 91.171875 -38.484375 C 95.828125 -43.503906 98.15625 -50.453125 98.15625 -59.328125 C 98.15625 -68.046875 95.863281 -74.878906 91.28125 -79.828125 C 86.695312 -84.773438 80.769531 -87.25 73.5 -87.25 C 66.226562 -87.25 60.265625 -84.773438 55.609375 -79.828125 C 50.960938 -74.878906 48.640625 -68.046875 48.640625 -59.328125 C 48.640625 -50.453125 50.960938 -43.503906 55.609375 -38.484375 C 60.265625 -33.472656 66.226562 -30.96875 73.5 -30.96875 Z M 73.5 -30.96875 "/></g></g></g><g fill="#ffffff" fill-opacity="1"><g transform="translate(538.607035, 234.461171)"><g><path d="M 13.296875 -118.21875 L 54.75 -118.21875 L 54.75 0 L 13.296875 0 Z M 34.015625 -131.296875 C 26.453125 -131.296875 20.34375 -133.40625 15.6875 -137.625 C 11.039062 -141.84375 8.71875 -147.078125 8.71875 -153.328125 C 8.71875 -159.578125 11.039062 -164.8125 15.6875 -169.03125 C 20.34375 -173.25 26.453125 -175.359375 34.015625 -175.359375 C 41.578125 -175.359375 47.6875 -173.359375 52.34375 -169.359375 C 57 -165.359375 59.328125 -160.234375 59.328125 -153.984375 C 59.328125 -147.441406 57 -142.023438 52.34375 -137.734375 C 47.6875 -133.441406 41.578125 -131.296875 34.015625 -131.296875 Z M 34.015625 -131.296875 "/></g></g></g><g fill="#ffffff" fill-opacity="1"><g transform="translate(598.150493, 234.461171)"><g><path d="M 73.71875 1.96875 C 60.632812 1.96875 48.929688 -0.644531 38.609375 -5.875 C 28.285156 -11.113281 20.25 -18.382812 14.5 -27.6875 C 8.757812 -37 5.890625 -47.546875 5.890625 -59.328125 C 5.890625 -71.109375 8.757812 -81.613281 14.5 -90.84375 C 20.25 -100.070312 28.285156 -107.265625 38.609375 -112.421875 C 48.929688 -117.585938 60.632812 -120.171875 73.71875 -120.171875 C 87.09375 -120.171875 98.648438 -117.300781 108.390625 -111.5625 C 118.140625 -105.820312 125.050781 -97.863281 129.125 -87.6875 L 97.0625 -71.328125 C 91.675781 -81.941406 83.820312 -87.25 73.5 -87.25 C 66.082031 -87.25 59.9375 -84.773438 55.0625 -79.828125 C 50.195312 -74.878906 47.765625 -68.046875 47.765625 -59.328125 C 47.765625 -50.453125 50.195312 -43.503906 55.0625 -38.484375 C 59.9375 -33.472656 66.082031 -30.96875 73.5 -30.96875 C 83.820312 -30.96875 91.675781 -36.273438 97.0625 -46.890625 L 129.125 -30.53125 C 125.050781 -20.351562 118.140625 -12.390625 108.390625 -6.640625 C 98.648438 -0.898438 87.09375 1.96875 73.71875 1.96875 Z M 73.71875 1.96875 "/></g></g></g><g fill="#ffffff" fill-opacity="1"><g transform="translate(720.945386, 234.461171)"><g><path d="M 13.296875 -118.21875 L 54.75 -118.21875 L 54.75 0 L 13.296875 0 Z M 34.015625 -131.296875 C 26.453125 -131.296875 20.34375 -133.40625 15.6875 -137.625 C 11.039062 -141.84375 8.71875 -147.078125 8.71875 -153.328125 C 8.71875 -159.578125 11.039062 -164.8125 15.6875 -169.03125 C 20.34375 -173.25 26.453125 -175.359375 34.015625 -175.359375 C 41.578125 -175.359375 47.6875 -173.359375 52.34375 -169.359375 C 57 -165.359375 59.328125 -160.234375 59.328125 -153.984375 C 59.328125 -147.441406 57 -142.023438 52.34375 -137.734375 C 47.6875 -133.441406 41.578125 -131.296875 34.015625 -131.296875 Z M 34.015625 -131.296875 "/></g></g></g><g fill="#ffffff" fill-opacity="1"><g transform="translate(780.48889, 234.461171)"><g><path d="M 90.296875 -120.171875 C 104.984375 -120.171875 116.796875 -115.804688 125.734375 -107.078125 C 134.679688 -98.359375 139.15625 -85.203125 139.15625 -67.609375 L 139.15625 0 L 97.71875 0 L 97.71875 -60.859375 C 97.71875 -76.992188 91.242188 -85.0625 78.296875 -85.0625 C 71.171875 -85.0625 65.460938 -82.734375 61.171875 -78.078125 C 56.890625 -73.429688 54.75 -66.453125 54.75 -57.140625 L 54.75 0 L 13.296875 0 L 13.296875 -118.21875 L 52.78125 -118.21875 L 52.78125 -105.34375 C 57.4375 -110.144531 62.960938 -113.816406 69.359375 -116.359375 C 75.753906 -118.898438 82.734375 -120.171875 90.296875 -120.171875 Z M 90.296875 -120.171875 "/></g></g></g><g fill="#ffffff" fill-opacity="1"><g transform="translate(923.567846, 234.461171)"><g><path d="M 63.6875 -120.171875 C 83.3125 -120.171875 98.285156 -115.695312 108.609375 -106.75 C 118.941406 -97.8125 124.109375 -84.113281 124.109375 -65.65625 L 124.109375 0 L 85.5 0 L 85.5 -15.265625 C 79.539062 -3.773438 67.90625 1.96875 50.59375 1.96875 C 41.4375 1.96875 33.515625 0.367188 26.828125 -2.828125 C 20.140625 -6.035156 15.085938 -10.363281 11.671875 -15.8125 C 8.253906 -21.257812 6.546875 -27.476562 6.546875 -34.46875 C 6.546875 -45.65625 10.832031 -54.335938 19.40625 -60.515625 C 27.988281 -66.703125 41.222656 -69.796875 59.109375 -69.796875 L 82.65625 -69.796875 C 81.9375 -82.296875 73.578125 -88.546875 57.578125 -88.546875 C 51.910156 -88.546875 46.164062 -87.632812 40.34375 -85.8125 C 34.53125 -84 29.585938 -81.492188 25.515625 -78.296875 L 11.5625 -106.4375 C 18.101562 -110.800781 26.0625 -114.179688 35.4375 -116.578125 C 44.820312 -118.972656 54.238281 -120.171875 63.6875 -120.171875 Z M 62.15625 -24.203125 C 66.957031 -24.203125 71.175781 -25.363281 74.8125 -27.6875 C 78.445312 -30.019531 81.0625 -33.441406 82.65625 -37.953125 L 82.65625 -48.203125 L 64.78125 -48.203125 C 52.707031 -48.203125 46.671875 -44.203125 46.671875 -36.203125 C 46.671875 -32.566406 48.050781 -29.65625 50.8125 -27.46875 C 53.582031 -25.289062 57.363281 -24.203125 62.15625 -24.203125 Z M 62.15625 -24.203125 "/></g></g></g><g fill="#ffffff" fill-opacity="1"><g transform="translate(15.25317, 452.517328)"><g><path d="M 47.765625 -118.4375 L 0.875 -118.4375 L 0.875 -152.671875 L 137.625 -152.671875 L 137.625 -118.4375 L 90.953125 -118.4375 L 90.953125 0 L 47.765625 0 Z M 47.765625 -118.4375 "/></g></g></g><g fill="#ffffff" fill-opacity="1"><g transform="translate(145.027538, 452.517328)"><g><path d="M 52.78125 -104.03125 C 57 -109.414062 62.488281 -113.453125 69.25 -116.140625 C 76.007812 -118.828125 83.753906 -120.171875 92.484375 -120.171875 L 92.484375 -82.875 C 88.703125 -83.3125 85.570312 -83.53125 83.09375 -83.53125 C 74.226562 -83.53125 67.285156 -81.128906 62.265625 -76.328125 C 57.253906 -71.535156 54.75 -64.195312 54.75 -54.3125 L 54.75 0 L 13.296875 0 L 13.296875 -118.21875 L 52.78125 -118.21875 Z M 52.78125 -104.03125 "/></g></g></g><g fill="#ffffff" fill-opacity="1"><g transform="translate(232.925124, 452.517328)"><g><path d="M 63.6875 -120.171875 C 83.3125 -120.171875 98.285156 -115.695312 108.609375 -106.75 C 118.941406 -97.8125 124.109375 -84.113281 124.109375 -65.65625 L 124.109375 0 L 85.5 0 L 85.5 -15.265625 C 79.539062 -3.773438 67.90625 1.96875 50.59375 1.96875 C 41.4375 1.96875 33.515625 0.367188 26.828125 -2.828125 C 20.140625 -6.035156 15.085938 -10.363281 11.671875 -15.8125 C 8.253906 -21.257812 6.546875 -27.476562 6.546875 -34.46875 C 6.546875 -45.65625 10.832031 -54.335938 19.40625 -60.515625 C 27.988281 -66.703125 41.222656 -69.796875 59.109375 -69.796875 L 82.65625 -69.796875 C 81.9375 -82.296875 73.578125 -88.546875 57.578125 -88.546875 C 51.910156 -88.546875 46.164062 -87.632812 40.34375 -85.8125 C 34.53125 -84 29.585938 -81.492188 25.515625 -78.296875 L 11.5625 -106.4375 C 18.101562 -110.800781 26.0625 -114.179688 35.4375 -116.578125 C 44.820312 -118.972656 54.238281 -120.171875 63.6875 -120.171875 Z M 62.15625 -24.203125 C 66.957031 -24.203125 71.175781 -25.363281 74.8125 -27.6875 C 78.445312 -30.019531 81.0625 -33.441406 82.65625 -37.953125 L 82.65625 -48.203125 L 64.78125 -48.203125 C 52.707031 -48.203125 46.671875 -44.203125 46.671875 -36.203125 C 46.671875 -32.566406 48.050781 -29.65625 50.8125 -27.46875 C 53.582031 -25.289062 57.363281 -24.203125 62.15625 -24.203125 Z M 62.15625 -24.203125 "/></g></g></g><g fill="#ffffff" fill-opacity="1"><g transform="translate(361.172694, 452.517328)"><g><path d="M 138.9375 -161.84375 L 138.9375 0 L 99.453125 0 L 99.453125 -11.78125 C 91.742188 -2.613281 80.1875 1.96875 64.78125 1.96875 C 54.019531 1.96875 44.203125 -0.539062 35.328125 -5.5625 C 26.460938 -10.582031 19.445312 -17.742188 14.28125 -27.046875 C 9.125 -36.347656 6.546875 -47.109375 6.546875 -59.328125 C 6.546875 -71.535156 9.125 -82.253906 14.28125 -91.484375 C 19.445312 -100.722656 26.460938 -107.8125 35.328125 -112.75 C 44.203125 -117.695312 54.019531 -120.171875 64.78125 -120.171875 C 78.882812 -120.171875 89.789062 -116.101562 97.5 -107.96875 L 97.5 -161.84375 Z M 73.5 -30.96875 C 80.625 -30.96875 86.515625 -33.472656 91.171875 -38.484375 C 95.828125 -43.503906 98.15625 -50.453125 98.15625 -59.328125 C 98.15625 -68.046875 95.863281 -74.878906 91.28125 -79.828125 C 86.695312 -84.773438 80.769531 -87.25 73.5 -87.25 C 66.226562 -87.25 60.265625 -84.773438 55.609375 -79.828125 C 50.960938 -74.878906 48.640625 -68.046875 48.640625 -59.328125 C 48.640625 -50.453125 50.960938 -43.503906 55.609375 -38.484375 C 60.265625 -33.472656 66.226562 -30.96875 73.5 -30.96875 Z M 73.5 -30.96875 "/></g></g></g><g fill="#ffffff" fill-opacity="1"><g transform="translate(504.68783, 452.517328)"><g><path d="M 137.625 -118.21875 L 137.625 0 L 98.15625 0 L 98.15625 -12.65625 C 93.789062 -7.851562 88.550781 -4.210938 82.4375 -1.734375 C 76.332031 0.734375 69.863281 1.96875 63.03125 1.96875 C 47.757812 1.96875 35.582031 -2.535156 26.5 -11.546875 C 17.414062 -20.566406 12.875 -34.09375 12.875 -52.125 L 12.875 -118.21875 L 54.3125 -118.21875 L 54.3125 -58.890625 C 54.3125 -50.015625 55.984375 -43.539062 59.328125 -39.46875 C 62.671875 -35.40625 67.539062 -33.375 73.9375 -33.375 C 80.476562 -33.375 85.820312 -35.660156 89.96875 -40.234375 C 94.113281 -44.816406 96.1875 -51.832031 96.1875 -61.28125 L 96.1875 -118.21875 Z M 137.625 -118.21875 "/></g></g></g><g fill="#ffffff" fill-opacity="1"><g transform="translate(646.894329, 452.517328)"><g><path d="M 73.71875 1.96875 C 60.632812 1.96875 48.929688 -0.644531 38.609375 -5.875 C 28.285156 -11.113281 20.25 -18.382812 14.5 -27.6875 C 8.757812 -37 5.890625 -47.546875 5.890625 -59.328125 C 5.890625 -71.109375 8.757812 -81.613281 14.5 -90.84375 C 20.25 -100.070312 28.285156 -107.265625 38.609375 -112.421875 C 48.929688 -117.585938 60.632812 -120.171875 73.71875 -120.171875 C 87.09375 -120.171875 98.648438 -117.300781 108.390625 -111.5625 C 118.140625 -105.820312 125.050781 -97.863281 129.125 -87.6875 L 97.0625 -71.328125 C 91.675781 -81.941406 83.820312 -87.25 73.5 -87.25 C 66.082031 -87.25 59.9375 -84.773438 55.0625 -79.828125 C 50.195312 -74.878906 47.765625 -68.046875 47.765625 -59.328125 C 47.765625 -50.453125 50.195312 -43.503906 55.0625 -38.484375 C 59.9375 -33.472656 66.082031 -30.96875 73.5 -30.96875 C 83.820312 -30.96875 91.675781 -36.273438 97.0625 -46.890625 L 129.125 -30.53125 C 125.050781 -20.351562 118.140625 -12.390625 108.390625 -6.640625 C 98.648438 -0.898438 87.09375 1.96875 73.71875 1.96875 Z M 73.71875 1.96875 "/></g></g></g><g fill="#ffffff" fill-opacity="1"><g transform="translate(769.689176, 452.517328)"><g><path d="M 13.296875 -118.21875 L 54.75 -118.21875 L 54.75 0 L 13.296875 0 Z M 34.015625 -131.296875 C 26.453125 -131.296875 20.34375 -133.40625 15.6875 -137.625 C 11.039062 -141.84375 8.71875 -147.078125 8.71875 -153.328125 C 8.71875 -159.578125 11.039062 -164.8125 15.6875 -169.03125 C 20.34375 -173.25 26.453125 -175.359375 34.015625 -175.359375 C 41.578125 -175.359375 47.6875 -173.359375 52.34375 -169.359375 C 57 -165.359375 59.328125 -160.234375 59.328125 -153.984375 C 59.328125 -147.441406 57 -142.023438 52.34375 -137.734375 C 47.6875 -133.441406 41.578125 -131.296875 34.015625 -131.296875 Z M 34.015625 -131.296875 "/></g></g></g><g fill="#ffffff" fill-opacity="1"><g transform="translate(829.232634, 452.517328)"><g><path d="M 138.9375 -161.84375 L 138.9375 0 L 99.453125 0 L 99.453125 -11.78125 C 91.742188 -2.613281 80.1875 1.96875 64.78125 1.96875 C 54.019531 1.96875 44.203125 -0.539062 35.328125 -5.5625 C 26.460938 -10.582031 19.445312 -17.742188 14.28125 -27.046875 C 9.125 -36.347656 6.546875 -47.109375 6.546875 -59.328125 C 6.546875 -71.535156 9.125 -82.253906 14.28125 -91.484375 C 19.445312 -100.722656 26.460938 -107.8125 35.328125 -112.75 C 44.203125 -117.695312 54.019531 -120.171875 64.78125 -120.171875 C 78.882812 -120.171875 89.789062 -116.101562 97.5 -107.96875 L 97.5 -161.84375 Z M 73.5 -30.96875 C 80.625 -30.96875 86.515625 -33.472656 91.171875 -38.484375 C 95.828125 -43.503906 98.15625 -50.453125 98.15625 -59.328125 C 98.15625 -68.046875 95.863281 -74.878906 91.28125 -79.828125 C 86.695312 -84.773438 80.769531 -87.25 73.5 -87.25 C 66.226562 -87.25 60.265625 -84.773438 55.609375 -79.828125 C 50.960938 -74.878906 48.640625 -68.046875 48.640625 -59.328125 C 48.640625 -50.453125 50.960938 -43.503906 55.609375 -38.484375 C 60.265625 -33.472656 66.226562 -30.96875 73.5 -30.96875 Z M 73.5 -30.96875 "/></g></g></g><g fill="#ffffff" fill-opacity="1"><g transform="translate(972.747815, 452.517328)"><g><path d="M 63.6875 -120.171875 C 83.3125 -120.171875 98.285156 -115.695312 108.609375 -106.75 C 118.941406 -97.8125 124.109375 -84.113281 124.109375 -65.65625 L 124.109375 0 L 85.5 0 L 85.5 -15.265625 C 79.539062 -3.773438 67.90625 1.96875 50.59375 1.96875 C 41.4375 1.96875 33.515625 0.367188 26.828125 -2.828125 C 20.140625 -6.035156 15.085938 -10.363281 11.671875 -15.8125 C 8.253906 -21.257812 6.546875 -27.476562 6.546875 -34.46875 C 6.546875 -45.65625 10.832031 -54.335938 19.40625 -60.515625 C 27.988281 -66.703125 41.222656 -69.796875 59.109375 -69.796875 L 82.65625 -69.796875 C 81.9375 -82.296875 73.578125 -88.546875 57.578125 -88.546875 C 51.910156 -88.546875 46.164062 -87.632812 40.34375 -85.8125 C 34.53125 -84 29.585938 -81.492188 25.515625 -78.296875 L 11.5625 -106.4375 C 18.101562 -110.800781 26.0625 -114.179688 35.4375 -116.578125 C 44.820312 -118.972656 54.238281 -120.171875 63.6875 -120.171875 Z M 62.15625 -24.203125 C 66.957031 -24.203125 71.175781 -25.363281 74.8125 -27.6875 C 78.445312 -30.019531 81.0625 -33.441406 82.65625 -37.953125 L 82.65625 -48.203125 L 64.78125 -48.203125 C 52.707031 -48.203125 46.671875 -44.203125 46.671875 -36.203125 C 46.671875 -32.566406 48.050781 -29.65625 50.8125 -27.46875 C 53.582031 -25.289062 57.363281 -24.203125 62.15625 -24.203125 Z M 62.15625 -24.203125 "/></g></g></g></svg>